<?xml version="1.0" encoding="UTF-8"?>
<svg version="1.1" xmlns="http://www.w3.org/2000/svg" width="2000" height="753">
<path d="M0 0 C1.0697633 -0.00165078 2.1395266 -0.00330156 3.24170697 -0.00500236 C6.85194212 -0.00934069 10.46213675 -0.00652184 14.07237297 -0.00377727 C16.68781689 -0.00542627 19.30326057 -0.00751225 21.91870382 -0.00999737 C27.63644754 -0.01471377 33.35418261 -0.01569488 39.07192796 -0.01426902 C47.63198855 -0.01215007 56.19204017 -0.01575818 64.75209938 -0.0204838 C79.34049949 -0.02836296 93.92889716 -0.03144613 108.51729923 -0.03192973 C123.30679465 -0.03243181 138.09628732 -0.03507553 152.88578182 -0.04033732 C154.2857565 -0.04083252 154.2857565 -0.04083252 155.71401349 -0.04133773 C159.51517152 -0.04268771 163.31632954 -0.04405037 167.11748756 -0.04542983 C212.14858377 -0.06174281 257.17967946 -0.06812024 302.21077812 -0.0728777 C324.63745465 -0.07526043 347.06413087 -0.07896387 369.49080717 -0.0829148 C441.43209547 -0.09558169 513.37338376 -0.1063642 585.31467316 -0.10975526 C588.75412059 -0.1099175 592.19356803 -0.11008306 595.63301546 -0.11024964 C602.53089305 -0.11058344 609.42877064 -0.11091392 616.32664824 -0.1112442 C624.40240167 -0.1116311 632.47815511 -0.11202071 640.55390855 -0.11241527 C642.8652569 -0.11252769 645.17660524 -0.1126391 647.48795359 -0.11274952 C721.68433985 -0.11629722 795.88071642 -0.1313671 870.07709899 -0.15468726 C923.38286654 -0.17143464 976.68863226 -0.18690656 1029.99440247 -0.19142222 C1031.09129832 -0.19151571 1032.18819417 -0.1916092 1033.31832929 -0.19170551 C1057.40151699 -0.19372485 1081.48470465 -0.19488066 1105.56789243 -0.1952341 C1114.18626975 -0.19537027 1122.80464707 -0.19557926 1131.42302439 -0.19582735 C1133.56703013 -0.19588891 1135.71103586 -0.19594723 1137.85504159 -0.1960023 C1171.98656582 -0.19692125 1206.11807993 -0.20687921 1240.24960083 -0.22145979 C1274.6472281 -0.23609515 1309.04484296 -0.24110573 1343.44247279 -0.23304025 C1348.20338891 -0.23192498 1352.96430505 -0.23091428 1357.72522122 -0.22996593 C1359.12504111 -0.22968097 1359.12504111 -0.22968097 1360.5531402 -0.22939027 C1375.28776188 -0.22666412 1390.02236051 -0.23397444 1404.75697718 -0.24553929 C1419.27105655 -0.25671985 1433.78510355 -0.25707177 1448.29918345 -0.24616911 C1456.05283314 -0.24063475 1463.80640974 -0.23971839 1471.56005257 -0.25267783 C1539.81551012 -0.3610868 1603.22647003 6.48089588 1665.4480148 37.1276505 C1666.36163784 37.57753331 1667.27526089 38.02741612 1668.21656948 38.49093175 C1697.57767409 53.10305552 1724.32425805 71.94869061 1748.4480148 94.1276505 C1749.23047573 94.818588 1750.01293667 95.5095255 1750.81910855 96.2214005 C1760.63931261 104.89460473 1770.009556 114.09772798 1778.4480148 124.1276505 C1779.2420773 125.03257237 1780.0361398 125.93749425 1780.8542648 126.869838 C1788.68004782 135.84187228 1795.63898916 145.36899249 1802.4480148 155.1276505 C1802.90063687 155.77492101 1803.35325894 156.42219151 1803.81959683 157.08907628 C1810.98701862 167.40701315 1817.3102955 178.17222611 1823.4480148 189.1276505 C1823.8384396 189.81520421 1824.22886441 190.50275792 1824.63112026 191.21114659 C1869.74298192 271.0033635 1878.49400113 371.42473311 1854.57887417 459.14522862 C1839.22336849 513.26220495 1812.66732722 563.01612047 1774.68629605 604.67061925 C1773.21342672 606.28743392 1771.75209055 607.9148435 1770.30348355 609.55343175 C1761.93581805 619.00663223 1753.10213854 627.98308065 1743.4480148 636.1276505 C1742.55340542 636.9114005 1741.65879605 637.6951505 1740.7370773 638.5026505 C1684.0039252 687.91125069 1611.96403461 716.74894767 1537.4480148 724.1276505 C1536.29660271 724.25227951 1536.29660271 724.25227951 1535.12192977 724.37942629 C1523.07848928 725.50691647 1510.9929349 725.26831583 1498.90924889 725.25907826 C1496.27989564 725.26072914 1493.65054535 725.26277527 1491.02119306 725.26529837 C1485.29480054 725.26999587 1479.56841666 725.27100086 1473.84202253 725.26957002 C1465.26940487 725.26744378 1456.69679611 725.27106941 1448.12417983 725.2757848 C1433.51231481 725.28364866 1418.90045222 725.28674636 1404.28858525 725.28723073 C1389.48269554 725.28773335 1374.67680857 725.29038266 1359.87091976 725.29563832 C1358.46778013 725.29613352 1358.46778013 725.29613352 1357.03629424 725.29663873 C1353.22640191 725.29798874 1349.41650958 725.29935141 1345.60661726 725.30073083 C1300.5204099 725.31702592 1255.43420306 725.32341809 1210.34799325 725.3281787 C1187.90141349 725.3305622 1165.45483402 725.33426568 1143.00825448 725.3382158 C1071.01309163 725.35087833 999.01792879 725.36166341 927.02276484 725.36505626 C923.58254202 725.3652185 920.14231919 725.36538406 916.70209637 725.36555064 C909.80266946 725.36588444 902.90324256 725.36621492 896.00381565 725.3665452 C887.92625229 725.3669321 879.84868893 725.36732171 871.77112557 725.36771626 C869.45926217 725.36782868 867.14739877 725.3679401 864.83553538 725.36805052 C790.55512018 725.37160146 716.27471465 725.38668718 641.99430314 725.40998826 C588.61300159 725.42672671 535.23170186 725.4422034 481.85039765 725.44672322 C480.75295446 725.44681671 479.65551128 725.44691019 478.52481224 725.44700651 C454.43519049 725.4490254 430.34556877 725.45018158 406.25594693 725.4505351 C397.63670001 725.45067127 389.01745308 725.45088027 380.39820616 725.45112835 C378.25392926 725.45118991 376.10965237 725.45124823 373.96537547 725.4513033 C339.78198623 725.45222353 305.59860708 725.46219653 271.41522116 725.47676079 C236.99546735 725.49136714 202.57572592 725.4964245 168.15596956 725.48834124 C163.40188265 725.48722584 158.64779572 725.48621519 153.89370877 725.48526692 C152.96176552 725.48507696 152.02982227 725.48488699 151.06963831 725.48469126 C136.30199746 725.4819556 121.53437947 725.48930601 106.76674359 725.50084029 C92.25240926 725.51196758 77.73810733 725.5124259 63.22377251 725.50147011 C54.71060146 725.49536557 46.19752805 725.49748992 37.68436616 725.51172208 C32.03175672 725.52035377 26.3792192 725.51811944 20.72661422 725.50702337 C17.52149337 725.5010366 14.31660149 725.50134699 11.11148624 725.51170823 C7.66278201 725.52212666 4.21458886 725.5140409 0.765903 725.50139666 C-0.21440851 725.50880515 -1.19472001 725.51621365 -2.20473792 725.52384665 C-18.11888945 725.40129745 -32.92679685 719.5330584 -44.3722977 708.44405675 C-58.7214131 693.19490723 -62.72500157 676.86965176 -62.68061966 656.42529988 C-62.68237269 655.38973622 -62.68412573 654.35417255 -62.68593189 653.28722817 C-62.69057593 649.82457792 -62.6881305 646.36196995 -62.68569797 642.89931798 C-62.68756674 640.38866136 -62.68986771 637.87800502 -62.6925633 635.36734915 C-62.69740284 629.9123576 -62.69913666 624.45737874 -62.69810718 619.00238538 C-62.69658 610.89032003 -62.70074898 602.77826448 -62.70598181 594.66620104 C-62.71564611 579.33379652 -62.7184657 564.00139535 -62.71903887 548.66898814 C-62.71949863 536.82771659 -62.72155811 524.98644634 -62.72473949 513.14517522 C-62.72563705 509.73514366 -62.72652687 506.32511211 -62.72741437 502.91508055 C-62.72763542 502.06730834 -62.72785647 501.21953614 -62.72808421 500.34607386 C-62.73423724 476.50421179 -62.73818489 452.66235017 -62.73774093 428.82048726 C-62.73772536 427.92183858 -62.73770978 427.0231899 -62.73769373 426.09730944 C-62.73761062 421.54271067 -62.73751158 416.9881119 -62.73740902 412.43351313 C-62.73738907 411.52897304 -62.73736913 410.62443294 -62.73734858 409.69248254 C-62.73730814 407.86328278 -62.73726634 406.03408302 -62.73722319 404.20488327 C-62.73661044 375.74570291 -62.74411743 347.28653447 -62.75779575 318.82735753 C-62.77316129 286.84465564 -62.7817617 254.86196158 -62.78083253 222.87925577 C-62.7807579 219.4679668 -62.78070919 216.05667782 -62.78067821 212.64538884 C-62.78066656 211.80545912 -62.7806549 210.96552941 -62.7806429 210.10014728 C-62.78061214 196.59298191 -62.78699358 183.0858269 -62.79561048 169.57866461 C-62.80409345 156.00048341 -62.80507184 142.42231734 -62.79850116 128.84413496 C-62.79480991 120.78193113 -62.79662515 112.71977331 -62.8064435 104.65757437 C-62.81316086 98.6315826 -62.80937863 92.60564487 -62.80157027 86.57965246 C-62.80003336 84.14633988 -62.80185864 81.71302231 -62.80743035 79.27971563 C-62.85881294 55.24323052 -61.5445372 35.04487772 -44.4894852 16.5026505 C-32.1012875 4.55915733 -16.85410067 -0.03655888 0 0 Z " fill="#A9EDF9" transform="translate(97.55198520421982,13.872349500656128)"/>
<path d="M0 0 C1.0697633 -0.00165078 2.1395266 -0.00330156 3.24170697 -0.00500236 C6.85194212 -0.00934069 10.46213675 -0.00652184 14.07237297 -0.00377727 C16.68781689 -0.00542627 19.30326057 -0.00751225 21.91870382 -0.00999737 C27.63644754 -0.01471377 33.35418261 -0.01569488 39.07192796 -0.01426902 C47.63198855 -0.01215007 56.19204017 -0.01575818 64.75209938 -0.0204838 C79.34049949 -0.02836296 93.92889716 -0.03144613 108.51729923 -0.03192973 C123.30679465 -0.03243181 138.09628732 -0.03507553 152.88578182 -0.04033732 C154.2857565 -0.04083252 154.2857565 -0.04083252 155.71401349 -0.04133773 C159.51517152 -0.04268771 163.31632954 -0.04405037 167.11748756 -0.04542983 C212.14858377 -0.06174281 257.17967946 -0.06812024 302.21077812 -0.0728777 C324.63745465 -0.07526043 347.06413087 -0.07896387 369.49080717 -0.0829148 C441.43209547 -0.09558169 513.37338376 -0.1063642 585.31467316 -0.10975526 C588.75412059 -0.1099175 592.19356803 -0.11008306 595.63301546 -0.11024964 C602.53089305 -0.11058344 609.42877064 -0.11091392 616.32664824 -0.1112442 C624.40240167 -0.1116311 632.47815511 -0.11202071 640.55390855 -0.11241527 C642.8652569 -0.11252769 645.17660524 -0.1126391 647.48795359 -0.11274952 C721.68433985 -0.11629722 795.88071642 -0.1313671 870.07709899 -0.15468726 C923.38286654 -0.17143464 976.68863226 -0.18690656 1029.99440247 -0.19142222 C1031.09129832 -0.19151571 1032.18819417 -0.1916092 1033.31832929 -0.19170551 C1057.40151699 -0.19372485 1081.48470465 -0.19488066 1105.56789243 -0.1952341 C1114.18626975 -0.19537027 1122.80464707 -0.19557926 1131.42302439 -0.19582735 C1133.56703013 -0.19588891 1135.71103586 -0.19594723 1137.85504159 -0.1960023 C1171.98656582 -0.19692125 1206.11807993 -0.20687921 1240.24960083 -0.22145979 C1274.6472281 -0.23609515 1309.04484296 -0.24110573 1343.44247279 -0.23304025 C1348.20338891 -0.23192498 1352.96430505 -0.23091428 1357.72522122 -0.22996593 C1359.12504111 -0.22968097 1359.12504111 -0.22968097 1360.5531402 -0.22939027 C1375.28776188 -0.22666412 1390.02236051 -0.23397444 1404.75697718 -0.24553929 C1419.27105655 -0.25671985 1433.78510355 -0.25707177 1448.29918345 -0.24616911 C1456.05283314 -0.24063475 1463.80640974 -0.23971839 1471.56005257 -0.25267783 C1539.81551012 -0.3610868 1603.22647003 6.48089588 1665.4480148 37.1276505 C1666.36163784 37.57753331 1667.27526089 38.02741612 1668.21656948 38.49093175 C1697.57767409 53.10305552 1724.32425805 71.94869061 1748.4480148 94.1276505 C1749.23047573 94.818588 1750.01293667 95.5095255 1750.81910855 96.2214005 C1760.63931261 104.89460473 1770.009556 114.09772798 1778.4480148 124.1276505 C1779.2420773 125.03257237 1780.0361398 125.93749425 1780.8542648 126.869838 C1788.68004782 135.84187228 1795.63898916 145.36899249 1802.4480148 155.1276505 C1802.90063687 155.77492101 1803.35325894 156.42219151 1803.81959683 157.08907628 C1810.98701862 167.40701315 1817.3102955 178.17222611 1823.4480148 189.1276505 C1823.8384396 189.81520421 1824.22886441 190.50275792 1824.63112026 191.21114659 C1869.74298192 271.0033635 1878.49400113 371.42473311 1854.57887417 459.14522862 C1839.22336849 513.26220495 1812.66732722 563.01612047 1774.68629605 604.67061925 C1773.21342672 606.28743392 1771.75209055 607.9148435 1770.30348355 609.55343175 C1761.93581805 619.00663223 1753.10213854 627.98308065 1743.4480148 636.1276505 C1742.55340542 636.9114005 1741.65879605 637.6951505 1740.7370773 638.5026505 C1684.0039252 687.91125069 1611.96403461 716.74894767 1537.4480148 724.1276505 C1536.29660271 724.25227951 1536.29660271 724.25227951 1535.12192977 724.37942629 C1523.07848928 725.50691647 1510.9929349 725.26831583 1498.90924889 725.25907826 C1496.27989564 725.26072914 1493.65054535 725.26277527 1491.02119306 725.26529837 C1485.29480054 725.26999587 1479.56841666 725.27100086 1473.84202253 725.26957002 C1465.26940487 725.26744378 1456.69679611 725.27106941 1448.12417983 725.2757848 C1433.51231481 725.28364866 1418.90045222 725.28674636 1404.28858525 725.28723073 C1389.48269554 725.28773335 1374.67680857 725.29038266 1359.87091976 725.29563832 C1358.46778013 725.29613352 1358.46778013 725.29613352 1357.03629424 725.29663873 C1353.22640191 725.29798874 1349.41650958 725.29935141 1345.60661726 725.30073083 C1300.5204099 725.31702592 1255.43420306 725.32341809 1210.34799325 725.3281787 C1187.90141349 725.3305622 1165.45483402 725.33426568 1143.00825448 725.3382158 C1071.01309163 725.35087833 999.01792879 725.36166341 927.02276484 725.36505626 C923.58254202 725.3652185 920.14231919 725.36538406 916.70209637 725.36555064 C909.80266946 725.36588444 902.90324256 725.36621492 896.00381565 725.3665452 C887.92625229 725.3669321 879.84868893 725.36732171 871.77112557 725.36771626 C869.45926217 725.36782868 867.14739877 725.3679401 864.83553538 725.36805052 C790.55512018 725.37160146 716.27471465 725.38668718 641.99430314 725.40998826 C588.61300159 725.42672671 535.23170186 725.4422034 481.85039765 725.44672322 C480.75295446 725.44681671 479.65551128 725.44691019 478.52481224 725.44700651 C454.43519049 725.4490254 430.34556877 725.45018158 406.25594693 725.4505351 C397.63670001 725.45067127 389.01745308 725.45088027 380.39820616 725.45112835 C378.25392926 725.45118991 376.10965237 725.45124823 373.96537547 725.4513033 C339.78198623 725.45222353 305.59860708 725.46219653 271.41522116 725.47676079 C236.99546735 725.49136714 202.57572592 725.4964245 168.15596956 725.48834124 C163.40188265 725.48722584 158.64779572 725.48621519 153.89370877 725.48526692 C152.96176552 725.48507696 152.02982227 725.48488699 151.06963831 725.48469126 C136.30199746 725.4819556 121.53437947 725.48930601 106.76674359 725.50084029 C92.25240926 725.51196758 77.73810733 725.5124259 63.22377251 725.50147011 C54.71060146 725.49536557 46.19752805 725.49748992 37.68436616 725.51172208 C32.03175672 725.52035377 26.3792192 725.51811944 20.72661422 725.50702337 C17.52149337 725.5010366 14.31660149 725.50134699 11.11148624 725.51170823 C7.66278201 725.52212666 4.21458886 725.5140409 0.765903 725.50139666 C-0.21440851 725.50880515 -1.19472001 725.51621365 -2.20473792 725.52384665 C-18.11888945 725.40129745 -32.92679685 719.5330584 -44.3722977 708.44405675 C-58.7214131 693.19490723 -62.72500157 676.86965176 -62.68061966 656.42529988 C-62.68237269 655.38973622 -62.68412573 654.35417255 -62.68593189 653.28722817 C-62.69057593 649.82457792 -62.6881305 646.36196995 -62.68569797 642.89931798 C-62.68756674 640.38866136 -62.68986771 637.87800502 -62.6925633 635.36734915 C-62.69740284 629.9123576 -62.69913666 624.45737874 -62.69810718 619.00238538 C-62.69658 610.89032003 -62.70074898 602.77826448 -62.70598181 594.66620104 C-62.71564611 579.33379652 -62.7184657 564.00139535 -62.71903887 548.66898814 C-62.71949863 536.82771659 -62.72155811 524.98644634 -62.72473949 513.14517522 C-62.72563705 509.73514366 -62.72652687 506.32511211 -62.72741437 502.91508055 C-62.72763542 502.06730834 -62.72785647 501.21953614 -62.72808421 500.34607386 C-62.73423724 476.50421179 -62.73818489 452.66235017 -62.73774093 428.82048726 C-62.73772536 427.92183858 -62.73770978 427.0231899 -62.73769373 426.09730944 C-62.73761062 421.54271067 -62.73751158 416.9881119 -62.73740902 412.43351313 C-62.73738907 411.52897304 -62.73736913 410.62443294 -62.73734858 409.69248254 C-62.73730814 407.86328278 -62.73726634 406.03408302 -62.73722319 404.20488327 C-62.73661044 375.74570291 -62.74411743 347.28653447 -62.75779575 318.82735753 C-62.77316129 286.84465564 -62.7817617 254.86196158 -62.78083253 222.87925577 C-62.7807579 219.4679668 -62.78070919 216.05667782 -62.78067821 212.64538884 C-62.78066656 211.80545912 -62.7806549 210.96552941 -62.7806429 210.10014728 C-62.78061214 196.59298191 -62.78699358 183.0858269 -62.79561048 169.57866461 C-62.80409345 156.00048341 -62.80507184 142.42231734 -62.79850116 128.84413496 C-62.79480991 120.78193113 -62.79662515 112.71977331 -62.8064435 104.65757437 C-62.81316086 98.6315826 -62.80937863 92.60564487 -62.80157027 86.57965246 C-62.80003336 84.14633988 -62.80185864 81.71302231 -62.80743035 79.27971563 C-62.85881294 55.24323052 -61.5445372 35.04487772 -44.4894852 16.5026505 C-32.1012875 4.55915733 -16.85410067 -0.03655888 0 0 Z M-12.8644852 51.4401505 C-17.47626512 57.21797704 -21.67318666 64.74978986 -21.68078637 72.25029916 C-21.68405857 73.09538223 -21.68733076 73.94046531 -21.69070211 74.81115696 C-21.68921849 75.74159652 -21.68773486 76.67203608 -21.68620628 77.63067079 C-21.68855851 78.62161251 -21.69091074 79.61255424 -21.69333425 80.63352451 C-21.70004292 83.986512 -21.69956547 87.33946092 -21.69915622 90.69245458 C-21.7024537 93.10774985 -21.70617902 95.52304457 -21.7102977 97.93833858 C-21.71928442 103.90119901 -21.7235475 109.86404688 -21.72581667 115.82691231 C-21.7287761 122.96673821 -21.73747207 130.10655423 -21.74623095 137.24637496 C-21.76708837 154.50667488 -21.77754769 171.76697653 -21.78636056 189.02728612 C-21.79056573 197.19201349 -21.79578793 205.35674013 -21.80104509 213.52146689 C-21.81893754 241.46703855 -21.83393328 269.41261042 -21.84136528 297.35818696 C-21.84184004 299.11309979 -21.84231592 300.86801261 -21.84279294 302.62292543 C-21.84302932 303.49321214 -21.84326569 304.36349884 -21.84350923 305.26015787 C-21.84471044 309.66952065 -21.84592588 314.07888343 -21.84715122 318.4882462 C-21.84739137 319.3633011 -21.84763152 320.23835599 -21.84787895 321.1399277 C-21.85577057 349.50658336 -21.87919843 377.87319719 -21.91170716 406.23983459 C-21.94600916 436.2259762 -21.96571683 466.21209333 -21.96900952 496.19825488 C-21.96942706 499.49053698 -21.96990662 502.78281906 -21.9704327 506.07510114 C-21.97055589 506.88576189 -21.97067908 507.69642265 -21.97080601 508.53164888 C-21.97313773 521.5756247 -21.98879634 534.61955195 -22.00927455 547.66351046 C-22.02953608 560.77763583 -22.03500832 573.89170288 -22.02550391 587.00584101 C-22.02028999 594.79520708 -22.02616114 602.58437892 -22.04803858 610.37371702 C-22.06314718 616.19333218 -22.057299 622.01280477 -22.04336806 627.83242697 C-22.04098447 630.1844901 -22.04535432 632.5365719 -22.05719671 634.88860642 C-22.16853533 657.39761316 -22.16853533 657.39761316 -10.5519852 676.1276505 C-4.86862438 681.45183982 1.04811103 684.75047934 8.4480148 687.1276505 C8.98623061 687.30500306 9.52444643 687.48235562 10.07897182 687.6650825 C13.57862569 688.34840817 17.06304486 688.26512907 20.61442119 688.255301 C21.4501642 688.25695178 22.28590721 688.25860256 23.14697577 688.26030336 C25.97158077 688.26464675 28.79613409 688.26182127 31.62074047 688.25907826 C33.66536902 688.26072703 35.70999726 688.2628129 37.75462496 688.26529837 C43.41307675 688.27088608 49.07151347 688.27018876 54.72996714 688.26852078 C60.87101279 688.26779206 67.01205411 688.27280701 73.15309793 688.27709579 C83.92960774 688.28380592 94.70611214 688.28677403 105.48262364 688.28723073 C117.0494447 688.28773273 128.61626225 688.29037569 140.18308216 688.29563832 C140.91290831 688.29596846 141.64273446 688.29629859 142.39467655 688.29663873 C145.3670343 688.29798869 148.33939204 688.29935136 151.31174977 688.30073083 C186.52548829 688.31704454 221.73922615 688.32342105 256.95296781 688.3281787 C274.48638115 688.33056101 292.01979411 688.33426433 309.55320716 688.3382158 C365.78590924 688.35088184 422.01861131 688.36166514 478.2513148 688.36505626 C480.93972253 688.3652185 483.62813027 688.36538406 486.316538 688.36555064 C491.7082566 688.36588444 497.0999752 688.36621492 502.49169379 688.3665452 C508.80419659 688.3669321 515.11669939 688.36732171 521.42920218 688.36771626 C523.23589789 688.36782868 525.04259359 688.3679401 526.8492893 688.36805052 C584.86607085 688.37159946 642.88284001 688.38667495 700.89961683 688.40998826 C742.58104378 688.42673063 784.26246839 688.44220535 825.94389874 688.44672322 C827.22981785 688.44686345 827.22981785 688.44686345 828.54171513 688.44700651 C847.36170912 688.44902562 866.18170306 688.45018161 885.00169715 688.4505351 C891.73608431 688.45067127 898.47047147 688.45088027 905.20485863 688.45112835 C906.88022156 688.45118991 908.55558449 688.45124823 910.23094743 688.4513033 C936.9242245 688.45222302 963.61748864 688.46219012 990.31076145 688.47676079 C1017.20150069 688.49138048 1044.09222407 688.49641637 1070.98296659 688.48834124 C1074.70068926 688.4872259 1078.41841196 688.48621523 1082.13613468 688.48526692 C1082.864898 688.48507696 1083.59366131 688.48488699 1084.34450836 688.48469126 C1095.87408852 688.48195984 1107.40363932 688.48929246 1118.9332131 688.50084029 C1130.27637244 688.51199134 1141.61947946 688.51215184 1152.96264339 688.50147011 C1159.02805365 688.49606747 1165.09336201 688.49540223 1171.15876392 688.50797883 C1176.6811064 688.51933387 1182.20326423 688.51677551 1187.72560038 688.50331175 C1189.706697 688.50088429 1191.68780791 688.50343857 1193.66888876 688.51170823 C1224.30848234 688.6311576 1252.37283057 680.53567672 1274.74781948 658.85567784 C1285.94398237 647.47623487 1293.63529212 634.09653278 1298.8230148 619.0651505 C1299.18133389 618.04082921 1299.18133389 618.04082921 1299.54689175 616.99581456 C1303.76998458 603.90621377 1303.73771359 590.42953537 1303.70198208 576.8404038 C1303.70429031 574.91542786 1303.70746925 572.99045281 1303.71143657 571.06547958 C1303.71974338 565.8090508 1303.71567809 560.55269515 1303.70946413 555.2962662 C1303.70492377 549.61454235 1303.71193123 543.93283075 1303.71742398 538.25110936 C1303.72630256 527.13400878 1303.72440285 516.01693524 1303.71859869 504.89983361 C1303.7140764 495.86280506 1303.71347176 486.82578407 1303.71564633 477.7887547 C1303.71595279 476.50108662 1303.71625926 475.21341854 1303.71657501 473.88673021 C1303.71721448 471.27062419 1303.71786291 468.65451818 1303.71852019 466.03841216 C1303.72405658 442.22399653 1303.7183217 418.40959625 1303.707835 394.59518307 C1303.69834341 372.87544753 1303.69919478 351.15573545 1303.70875698 329.43600011 C1303.71947586 305.00758694 1303.72367077 280.57918884 1303.71753246 256.15077335 C1303.71689538 253.54475908 1303.71626663 250.93874481 1303.71564633 248.33273053 C1303.71533778 247.05061423 1303.71502922 245.76849793 1303.71471132 244.44752963 C1303.71298631 235.42352575 1303.7158953 226.39953021 1303.72060543 217.37552762 C1303.72622103 206.37529479 1303.72468346 195.3750905 1303.71404395 184.37486093 C1303.70879658 178.76517403 1303.7067146 173.15553466 1303.71334225 167.54584813 C1303.71932306 162.40583523 1303.71599149 157.26591371 1303.70538715 152.12590904 C1303.70316216 150.27146606 1303.70426903 148.41701528 1303.70913872 146.56257736 C1303.77638871 118.81374076 1297.77172277 93.66794627 1279.4480148 72.1276505 C1278.92852261 71.46249425 1278.40903042 70.797338 1277.87379605 70.1120255 C1266.70432895 56.26976401 1250.56990257 47.17310408 1233.8855148 41.7526505 C1233.15501919 41.5137711 1232.42452358 41.27489171 1231.67189175 41.02877355 C1217.99323726 36.88695192 1204.19042183 36.83821879 1190.04925495 36.87038159 C1187.99346545 36.86768489 1185.93767695 36.86411518 1183.8818903 36.85975713 C1178.2390844 36.85032668 1172.5963433 36.85329083 1166.95353428 36.85831267 C1160.81213826 36.86158489 1154.67075592 36.85329213 1148.52936429 36.84649432 C1137.76786722 36.83619352 1127.00639385 36.83328106 1116.24489361 36.83540654 C1104.70162363 36.8376577 1093.15836655 36.83557945 1081.61509854 36.82826161 C1080.88519348 36.82780231 1080.15528843 36.827343 1079.40326505 36.82686978 C1076.43033218 36.82498644 1073.45739934 36.82307506 1070.48446652 36.8211274 C1039.49449561 36.80085461 1008.50453193 36.79471607 977.51455514 36.79354317 C974.18057868 36.79341368 970.84660222 36.7932778 967.51262575 36.79313636 C966.68528095 36.79310235 965.85793615 36.79306834 965.0055203 36.7930333 C946.66392193 36.79221605 928.32232495 36.78783521 909.98072732 36.78282467 C902.42626476 36.78076796 894.87180218 36.77878788 887.3173396 36.77679217 C886.48262447 36.77657099 885.64790933 36.77634981 884.7878998 36.77612193 C836.96543697 36.76347664 789.14297504 36.75522343 741.32051045 36.75613904 C739.53137939 36.7561706 737.74224833 36.75620207 735.95311727 36.75623346 C727.87546385 36.75638022 719.79781043 36.75655656 711.72015701 36.75674123 C708.11816976 36.75682347 704.5161825 36.75690377 700.91419525 36.75698385 C699.11133831 36.75702464 697.30848137 36.75706668 695.50562442 36.75710997 C638.47876088 36.7584709 581.45192216 36.74382696 524.42506558 36.71602941 C510.0525878 36.70902739 495.68011 36.70208849 481.30763203 36.69550061 C480.42266647 36.69509486 479.53770091 36.69468912 478.62591821 36.69427107 C451.35413929 36.68184278 424.08236242 36.67431031 396.81058079 36.67178464 C395.95447437 36.67170474 395.09836794 36.67162484 394.2163189 36.67154251 C375.42366742 36.66983605 356.63101607 36.66931355 337.83836452 36.66988327 C331.11431238 36.67007624 324.39026025 36.67018032 317.66620811 36.67024072 C315.99344235 36.67025655 314.32067658 36.67027696 312.64791082 36.67030197 C285.99005985 36.67065467 259.33223013 36.65925671 232.67438525 36.64199434 C205.83114061 36.6247002 178.9879254 36.62030721 152.14467753 36.63351698 C148.43582805 36.63534158 144.72697852 36.63702814 141.01812893 36.63863301 C140.29109615 36.63895319 139.56406337 36.63927336 138.81499929 36.63960324 C127.3018369 36.64430977 115.78872541 36.63559294 104.27557258 36.62129064 C92.95556423 36.60750902 81.63565056 36.60833227 70.31563684 36.62367491 C64.26002359 36.631471 58.20459113 36.63289468 52.14899032 36.61676021 C46.640317 36.60221107 41.13197516 36.60606507 35.62331664 36.62460794 C33.64272481 36.62805123 31.66210709 36.62479158 29.68154164 36.61400553 C13.07552018 36.52962543 -0.96466951 38.6016725 -12.8644852 51.4401505 Z " fill="#16353B" transform="translate(97.55198520421982,13.872349500656128)"/>
<path d="M0 0 C14.85 0 29.7 0 45 0 C45 119.79 45 239.58 45 363 C30.15 363 15.3 363 0 363 C-0.33 347.16 -0.66 331.32 -1 315 C-4.3 319.62 -7.6 324.24 -11 329 C-30.83538616 350.81892477 -57.8244572 365.18508302 -87.53369141 366.88720703 C-125.07235677 368.60398226 -156.72442838 360.15351168 -185.125 334.6875 C-211.84582291 309.97820091 -226.13937948 273.94532111 -228 238 C-229.24259144 199.29099971 -221.3711589 159.88221354 -194.375 130.5625 C-192.59868831 128.6927625 -190.80029147 126.84687436 -189 125 C-188.36964844 124.29617188 -187.73929688 123.59234375 -187.08984375 122.8671875 C-169.27130271 103.52134294 -139.7602942 91.09780161 -113.77929688 89.71264648 C-110.23388001 89.59008855 -106.69265136 89.57737451 -103.14550781 89.60888672 C-101.00000512 89.62499996 -98.85638477 89.60890353 -96.7109375 89.58984375 C-65.3386707 89.54357164 -36.47345771 102.06272674 -13.64990234 123.34423828 C-8.86860303 128.14251765 -4.03884588 133.92230824 -1 140 C-0.67 93.8 -0.34 47.6 0 0 Z " fill="#16353B" transform="translate(797,169)"/>
<path d="M0 0 C14.85 0 29.7 0 45 0 C45 49.83 45 99.66 45 151 C102.42 151 159.84 151 219 151 C219 101.5 219 52 219 1 C233.85 1 248.7 1 264 1 C264 113.86 264 226.72 264 343 C249.15 343 234.3 343 219 343 C219 291.85 219 240.7 219 188 C161.58 188 104.16 188 45 188 C45 239.15 45 290.3 45 343 C30.15 343 15.3 343 0 343 C0 229.81 0 116.62 0 0 Z " fill="#17363C" transform="translate(246,189)"/>
<path d="M0 0 C23.99858294 -0.86957565 46.23596204 6.80238893 64.4609375 22.50390625 C85.36971622 42.14346198 94.1036694 66.73778823 95.40136719 94.97509766 C96.19641183 124.14910602 89.24757084 151.1648849 69.2734375 173.19140625 C68.74621094 173.81144531 68.21898437 174.43148437 67.67578125 175.0703125 C53.48004517 190.7182978 30.76054474 199.45289399 10.078125 200.50390625 C-14.51749745 201.27744862 -37.51193999 194.65871029 -56.0390625 177.81640625 C-70.2286491 164.40762472 -79.07572002 148.05548408 -83.7265625 129.19140625 C-84.04496094 127.9384375 -84.36335937 126.68546875 -84.69140625 125.39453125 C-90.25972662 100.84777534 -88.11394669 72.7957048 -76.7265625 50.19140625 C-76.27539062 49.26457031 -75.82421875 48.33773437 -75.359375 47.3828125 C-64.65667799 26.52701643 -46.40502578 11.45991547 -24.28125 4.03515625 C-16.04032508 1.5432999 -8.54304208 0.43879357 0 0 Z " fill="#A9EDF9" transform="translate(701.7265625,296.80859375)"/>
<path d="M0 0 C0.84304688 -0.01675781 1.68609375 -0.03351563 2.5546875 -0.05078125 C8.13901691 0.73849327 11.80606992 4.70571523 15.6171875 8.57421875 C16.38073044 9.33844902 16.38073044 9.33844902 17.15969849 10.11811829 C18.23270597 11.19413494 19.30329406 12.27256906 20.37158203 13.35327148 C21.98296523 14.98277369 23.60206772 16.60426736 25.22265625 18.22460938 C30.09636787 23.1155157 34.84638435 28.05858481 39.33642578 33.30786133 C43.22791891 37.66945702 47.46405058 41.71040417 51.625 45.8125 C61.78584239 55.82962468 61.78584239 55.82962468 65.59375 60.28125 C70.13433836 65.58307041 75.15815519 70.41556387 80.125 75.3125 C101.47783479 96.36479221 101.47783479 96.36479221 102.75 104.125 C102.16483075 113.8992808 92.19357878 121.57864765 85.6875 127.875 C80.25831123 133.17428559 74.93002475 138.44281045 69.99975586 144.21069336 C65.47216507 149.28661849 60.51042025 153.97472977 55.66796875 158.74902344 C50.57846034 163.77336968 45.60404215 168.82457513 40.953125 174.26171875 C36.1930408 179.60155679 30.95527961 184.5151805 25.86328125 189.53515625 C21.25257056 194.10594737 16.78079174 198.69275054 12.62890625 203.6875 C9.19660065 207.39617306 5.60332471 209.10501583 0.5625 209.8125 C-4.59644435 209.06210809 -7.35738381 206.59049258 -11.25 203.3125 C-13.97017223 198.29064358 -13.96796308 193.85614272 -12.875 188.3125 C-7.12786471 178.98134133 1.97039406 171.25963777 9.75 163.625 C12.12063279 161.29122805 14.48794182 158.95415481 16.8515625 156.61328125 C17.41703796 156.05339508 17.98251343 155.49350891 18.56512451 154.91665649 C21.9782949 151.51599112 25.19763789 148.01730728 28.31787109 144.34448242 C32.99345354 139.08713674 38.14775389 134.24313125 43.15478516 129.30322266 C48.50359573 124.01966242 53.8013504 118.74559579 58.66235352 113 C61.009611 110.29189722 63.56073202 107.81422486 66.125 105.3125 C64.56734073 101.55939118 62.2470056 99.21832087 59.36328125 96.390625 C58.89439987 95.92694519 58.42551849 95.46326538 57.94242859 94.98553467 C56.44548402 93.50632975 54.94204251 92.03397299 53.4375 90.5625 C51.47178762 88.63370693 49.50937128 86.70165034 47.55078125 84.765625 C47.07158234 84.29201538 46.59238342 83.81840576 46.09866333 83.33044434 C42.89326744 80.13872802 39.90877874 76.82302468 36.97338867 73.38574219 C32.90751945 68.8252665 28.4745547 64.60083443 24.125 60.3125 C18.50968526 54.77622119 12.972408 49.24165375 7.84570312 43.24267578 C3.86161312 38.77357596 -0.57074603 34.70066339 -4.91015625 30.58007812 C-9.77535503 25.83154042 -13.40611358 21.8914689 -14.125 14.87109375 C-13.45240297 9.16452831 -12.00221798 6.34145088 -7.875 2.3125 C-4.68080328 0.18303552 -3.69351004 0.01683971 0 0 Z " fill="#A8ECF8" transform="translate(1743.875,271.6875)"/>
<path d="M0 0 C4.40608743 2.16298837 7.1987497 4.39680479 9 9 C10.1563443 15.65773989 8.96626527 19.89762045 5.15551758 25.33251953 C0.43164233 31.17837534 -5.0623953 36.32336519 -10.4375 41.5625 C-12.83585655 43.91409997 -15.2298068 46.27011876 -17.62109375 48.62890625 C-18.19548187 49.19461334 -18.76987 49.76032043 -19.36166382 50.34317017 C-22.81990817 53.76891424 -26.08073729 57.29057879 -29.23071289 61.00366211 C-33.70773206 66.05521251 -38.65135985 70.69849218 -43.45703125 75.43652344 C-48.64854651 80.56157051 -53.74020278 85.71081901 -58.48486328 91.2578125 C-60.69124502 93.79483153 -63.04363694 96.13892959 -65.4375 98.5 C-66.30246094 99.3559375 -67.16742187 100.211875 -68.05859375 101.09375 C-68.69925781 101.7228125 -69.33992188 102.351875 -70 103 C-68.4079412 106.79231985 -65.90415866 109.54090593 -63.125 112.5 C-62.61686768 113.0468042 -62.10873535 113.5936084 -61.58520508 114.15698242 C-55.58993692 120.54190387 -49.35638373 126.6959392 -43.11962891 132.84375 C-39.48427041 136.44121783 -35.90802606 140.03055787 -32.58203125 143.91796875 C-28.02074653 149.23382161 -22.98406527 154.08608578 -18 159 C-12.28506943 164.63449254 -6.6321468 170.26436839 -1.41259766 176.36914062 C0.74710819 178.86254454 3.12223187 181.09922089 5.51953125 183.359375 C9.01983884 187.23834383 9.38282722 190.69817017 9.25 195.75390625 C8.73173753 200.41017061 6.87924003 203.18670298 3.5 206.3125 C-0.68153556 209.1350365 -4.02971527 209.42121057 -9 209 C-14.04059633 206.12066494 -17.89407537 202.37794065 -21.9375 198.25 C-22.51951172 197.66734375 -23.10152344 197.0846875 -23.70117188 196.484375 C-26.67680398 193.47908543 -29.5329689 190.41441653 -32.28515625 187.203125 C-36.75538782 182.03685821 -41.63756993 177.29365453 -46.5 172.5 C-51.92074763 167.1559249 -57.23352025 161.81934589 -62.18554688 156.03710938 C-65.92664807 151.83692794 -69.99450544 147.94571106 -74 144 C-79.32838268 138.75114542 -84.53276506 133.49427521 -89.40039062 127.81347656 C-92.3400152 124.48082526 -95.58056878 121.44843893 -98.8125 118.40234375 C-103.2362314 114.10402742 -105.65918732 110.3099526 -106.5625 104.1875 C-106.03438571 93.70627351 -94.57210056 85.25450127 -87.5625 78.4375 C-85.35160937 76.27343804 -83.14516257 74.10491932 -80.94140625 71.93359375 C-80.14435776 71.1495668 -80.14435776 71.1495668 -79.33120728 70.34970093 C-75.98441275 67.03678765 -72.85319943 63.61593692 -69.80444336 60.03149414 C-65.31035895 54.97192489 -60.36093197 50.31362663 -55.54296875 45.56347656 C-50.44753341 40.53327927 -45.4660983 35.47655037 -40.81005859 30.03271484 C-37.01243365 25.76794207 -32.87863388 21.81888172 -28.8125 17.8125 C-27.04579814 16.07142108 -25.28139273 14.32800817 -23.51953125 12.58203125 C-22.74714111 11.82124268 -21.97475098 11.0604541 -21.17895508 10.27661133 C-18.9591874 7.95735826 -16.99688649 5.51119213 -15 3 C-10.54589856 -0.79908652 -5.58795993 -0.80595576 0 0 Z " fill="#A8ECF8" transform="translate(1610,272)"/>
<path d="M0 0 C3.70509162 1.83490252 5.71972813 4.57959219 8 8 C9.05322511 15.75063967 7.35219623 22.27533219 4.5390625 29.42578125 C4.16618607 30.41754364 3.79330963 31.40930603 3.40913391 32.43112183 C2.16419968 35.73140773 0.89439638 39.02155417 -0.375 42.3125 C-1.27204591 44.67870691 -2.16709479 47.04567173 -3.06030273 49.41333008 C-4.49459315 53.21219163 -5.93013081 57.01050821 -7.3745575 60.80552673 C-11.11408096 70.63137898 -14.79622736 80.47760615 -18.44921875 90.3359375 C-18.72014721 91.06700274 -18.99107567 91.79806797 -19.27021408 92.5512867 C-20.37141027 95.52312219 -21.47235392 98.495051 -22.57286263 101.46714115 C-25.33092359 108.9151789 -28.09787934 116.35990142 -30.86576462 123.80429268 C-34.66637655 134.02632716 -38.46436063 144.2493276 -42.2565155 154.47450256 C-43.97922944 159.11845859 -45.7039512 163.76166714 -47.4291687 168.4046936 C-48.20846907 170.50330564 -48.9869326 172.60222868 -49.76443481 174.70150757 C-51.821886 180.2559688 -53.89881668 185.80231662 -56.00109863 191.33996582 C-57.03867301 194.10298467 -58.04418919 196.87657571 -59.04980469 199.65136719 C-59.72743712 201.46329434 -60.40610766 203.27483367 -61.0859375 205.0859375 C-61.52203842 206.32520493 -61.52203842 206.32520493 -61.96694946 207.58950806 C-64.18678325 213.38520601 -66.62069123 215.8712223 -72 219 C-76.52124705 220.16467324 -80.13734687 219.40691186 -84.3125 217.4375 C-88.42075269 213.71141035 -90.83030883 210.50480621 -91.21142578 204.87915039 C-90.96771444 200.40763826 -89.86861506 197.00466613 -88.28125 192.859375 C-87.84820808 191.68750389 -87.84820808 191.68750389 -87.40641785 190.49195862 C-86.44829812 187.90718731 -85.47417306 185.32875928 -84.5 182.75 C-83.80991291 180.89776702 -83.12088811 179.04513796 -82.43286133 177.19213867 C-81.00007559 173.33909922 -79.56077034 169.48859406 -78.11572266 165.64013672 C-76.18393756 160.49487091 -74.26655322 155.34439119 -72.35546875 150.19140625 C-69.81081852 143.33364213 -67.25912354 136.47854211 -64.703125 129.625 C-60.47738548 118.29177169 -56.26793902 106.95251801 -52.05992126 95.61270142 C-49.22060621 87.96152508 -46.37997415 80.31084411 -43.53540039 72.66162109 C-43.25806722 71.91580717 -42.98073404 71.16999325 -42.69499683 70.4015789 C-40.37919972 64.17386366 -40.37919972 64.17386366 -39.38730049 61.50684738 C-36.32991616 53.28532937 -33.28122338 45.06080048 -30.2545929 36.82789612 C-28.861334 33.04045547 -27.46149 29.25547328 -26.06008911 25.47103882 C-25.444937 23.80434017 -24.83308676 22.13641849 -24.224823 20.4671936 C-23.41087771 18.23403948 -22.58581111 16.00531744 -21.7578125 13.77734375 C-21.09483154 11.97124634 -21.09483154 11.97124634 -20.41845703 10.12866211 C-16.04753385 0.48780486 -10.04039082 -1.32633961 0 0 Z " fill="#A8ECF8" transform="translate(1717,267)"/>
</svg>
