<?xml version="1.0" encoding="UTF-8"?>
<svg version="1.1" xmlns="http://www.w3.org/2000/svg" width="261" height="263">
<path d="M0 0 C0.94875 0.53625 1.8975 1.0725 2.875 1.625 C3.82375 2.140625 4.7725 2.65625 5.75 3.1875 C15.08092047 10.46561796 20.67719545 20.49065567 22.3984375 32.1796875 C22.83706355 37.5973119 22.880004 42.94542129 22.75 48.375 C22.68601031 53.77412968 23.75451243 58.65449931 25.875 63.625 C26.865 64.615 26.865 64.615 27.875 65.625 C28.51824219 65.37105469 29.16148438 65.11710937 29.82421875 64.85546875 C36.17263354 62.43745627 42.33111944 60.79240574 49.02734375 59.62890625 C52.63012756 58.35878905 53.828927 56.80464448 55.875 53.625 C56.73627458 51.67554994 56.73627458 51.67554994 57.125 49.8125 C57.49625 48.2346875 57.49625 48.2346875 57.875 46.625 C59.5625 45.8125 59.5625 45.8125 61.875 45.625 C64.90669839 48.16316609 66.61669637 49.85008911 67.875 53.625 C69.79886845 52.74473944 71.71385958 51.84506309 73.625 50.9375 C74.69234375 50.43863281 75.7596875 49.93976562 76.859375 49.42578125 C80.04511154 47.52341785 81.75864099 45.64029792 83.875 42.625 C85.525 42.955 87.175 43.285 88.875 43.625 C89.865 46.595 90.855 49.565 91.875 52.625 C92.73552979 52.70016846 93.59605957 52.77533691 94.48266602 52.8527832 C97.75431507 53.14259852 101.02511725 53.43992672 104.2956543 53.74194336 C105.69643464 53.86983861 107.09747233 53.99495347 108.4987793 54.11694336 C127.93321763 55.81387779 145.20417714 60.07460184 162.875 68.625 C163.69428886 67.37943908 164.50515186 66.12833365 165.3125 64.875 C165.99119141 63.83085937 165.99119141 63.83085937 166.68359375 62.765625 C168.80734545 58.94983505 169.01439508 55.40350715 169.12109375 51.08203125 C169.17040039 49.47038086 169.17040039 49.47038086 169.22070312 47.82617188 C169.28136955 45.58667742 169.33872099 43.34709043 169.39257812 41.10742188 C169.85216226 26.56548608 173.23413964 16.72151567 183.26953125 5.9296875 C188.66229465 1.159477 195.64586255 -2.5422613 202.875 -3.375 C206.81114016 -1.83141562 208.50726576 -0.92660136 210.875 2.625 C211.54507978 8.01680478 209.77977297 11.6574891 207.5 16.375 C202.44660499 27.39761564 199.84067076 38.07373261 203.375 50 C206.76320793 62.56392893 206.55074009 77.80054148 200.875 89.625 C199.08833808 92.31625335 197.25047199 94.83964661 195.16796875 97.30859375 C193.65098423 99.58080443 193.65098423 99.58080443 193.88671875 102.359375 C195.21146503 106.73679749 197.2402089 110.47615108 199.5 114.4375 C199.94641846 115.23631592 200.39283691 116.03513184 200.8527832 116.8581543 C203.73575153 121.92078931 206.81333301 126.51571071 210.79296875 130.80078125 C211.875 132.625 211.875 132.625 211.55078125 135.35546875 C211.32777344 136.10441406 211.10476562 136.85335937 210.875 137.625 C203.125 137.75 203.125 137.75 200.875 136.625 C200.875 141.76379849 201.91536075 143.9921383 205.5 147.6875 C213.36598792 155.90717443 219.07229045 167.95547312 219.953125 179.3046875 C219.875 181.625 219.875 181.625 218.5 184.3125 C213.06467842 187.03016079 207.31697007 184.86838292 201.8125 183.0625 C200.49671907 182.59241758 199.18288739 182.11661725 197.875 181.625 C198.0915625 182.24246094 198.308125 182.85992187 198.53125 183.49609375 C202.07787015 194.28373003 201.39546315 202.13054857 196.875 212.625 C195.37672475 215.28164328 193.88378667 217.29903649 191.875 219.625 C191.215 219.625 190.555 219.625 189.875 219.625 C189.6275 220.223125 189.38 220.82125 189.125 221.4375 C184.70312722 229.17577736 172.88315874 232.64843183 164.75 234.875 C155.67236557 236.68406594 145.6717099 236.39162264 136.76171875 234.015625 C131.27141006 232.87891513 127.37603721 234.79876734 122.875 237.625 C118.07730483 239.74884742 113.19058264 241.55138084 108.1875 243.125 C105.21030538 244.07014115 102.76528134 245.20985496 100.125 246.875 C96.875 248.625 96.875 248.625 94.0625 248.5 C91.875 247.625 91.875 247.625 89.875 245.625 C89.318125 246.140625 88.76125 246.65625 88.1875 247.1875 C85.875 248.625 85.875 248.625 83.4375 248.5 C80.875 247.625 80.875 247.625 78.4375 246.125 C75.97273102 244.45782734 75.97273102 244.45782734 73.1640625 244.27734375 C69.1813787 243.48742903 66.11822747 241.75618839 62.6875 239.6875 C61.76420898 239.14706055 61.76420898 239.14706055 60.82226562 238.59570312 C58.12142671 237.00680222 55.48268135 235.36345424 52.875 233.625 C50.78176221 233.56260347 50.78176221 233.56260347 48.5625 233.9375 C47.82386719 234.03675781 47.08523437 234.13601562 46.32421875 234.23828125 C44.53942803 234.52009031 42.75853144 234.8268985 40.98046875 235.1484375 C26.92805989 237.30490779 10.6132921 235.15573554 -1.125 226.625 C-9.52365515 220.32600864 -15.29063995 212.82869619 -18.125 202.625 C-18.853832 194.99592742 -18.39365403 188.5708898 -15.125 181.625 C-16.259375 182.099375 -17.39375 182.57375 -18.5625 183.0625 C-22.93806875 184.697499 -27.42454895 185.81969324 -32.125 185.625 C-33.115 184.965 -34.105 184.305 -35.125 183.625 C-37.35028951 171.2004669 -32.17819046 161.24367086 -25.3125 151.375 C-23.93484174 149.44372872 -22.53663348 147.53178161 -21.125 145.625 C-21.785 144.965 -22.445 144.305 -23.125 143.625 C-22.80959631 140.13405456 -21.28279258 138.48599557 -18.875 136.0625 C-11.04503932 127.35366619 -8.35173663 115.62987019 -5.125 104.625 C-4.69316406 103.39394531 -4.26132812 102.16289063 -3.81640625 100.89453125 C-2.81381532 97.74596144 -2.81381532 97.74596144 -4.1015625 95.46484375 C-4.64554688 94.83707031 -5.18953125 94.20929688 -5.75 93.5625 C-13.26421764 83.35970908 -14.23915834 70.86793531 -13.125 58.625 C-12.47273137 55.89665351 -11.65249309 53.2741687 -10.8046875 50.6015625 C-7.94457915 38.0762604 -10.35141947 26.3565652 -15.8125 15 C-18.07547152 10.15175496 -18.96433674 6.94079936 -18.125 1.625 C-13.01847426 -5.24239668 -6.83991903 -3.00956437 0 0 Z M118.875 145.625 C119.205 146.945 119.535 148.265 119.875 149.625 C120.865 149.295 121.855 148.965 122.875 148.625 C122.875 147.635 122.875 146.645 122.875 145.625 C121.555 145.625 120.235 145.625 118.875 145.625 Z " fill="#25201F" transform="translate(35.125,11.375)"/>
<path d="M0 0 C0.94875 0.53625 1.8975 1.0725 2.875 1.625 C3.82375 2.140625 4.7725 2.65625 5.75 3.1875 C15.08092047 10.46561796 20.67719545 20.49065567 22.3984375 32.1796875 C22.83706355 37.5973119 22.880004 42.94542129 22.75 48.375 C22.68601031 53.77412968 23.75451243 58.65449931 25.875 63.625 C26.865 64.615 26.865 64.615 27.875 65.625 C28.51824219 65.37105469 29.16148438 65.11710937 29.82421875 64.85546875 C36.17263354 62.43745627 42.33111944 60.79240574 49.02734375 59.62890625 C52.63012756 58.35878905 53.828927 56.80464448 55.875 53.625 C56.73627458 51.67554994 56.73627458 51.67554994 57.125 49.8125 C57.49625 48.2346875 57.49625 48.2346875 57.875 46.625 C59.5625 45.8125 59.5625 45.8125 61.875 45.625 C64.90669839 48.16316609 66.61669637 49.85008911 67.875 53.625 C69.79886845 52.74473944 71.71385958 51.84506309 73.625 50.9375 C74.69234375 50.43863281 75.7596875 49.93976562 76.859375 49.42578125 C80.04511154 47.52341785 81.75864099 45.64029792 83.875 42.625 C85.525 42.955 87.175 43.285 88.875 43.625 C89.865 46.595 90.855 49.565 91.875 52.625 C92.73552979 52.70016846 93.59605957 52.77533691 94.48266602 52.8527832 C97.75431507 53.14259852 101.02511725 53.43992672 104.2956543 53.74194336 C105.69643464 53.86983861 107.09747233 53.99495347 108.4987793 54.11694336 C127.93321763 55.81387779 145.20417714 60.07460184 162.875 68.625 C163.69428886 67.37943908 164.50515186 66.12833365 165.3125 64.875 C165.99119141 63.83085937 165.99119141 63.83085937 166.68359375 62.765625 C168.80734545 58.94983505 169.01439508 55.40350715 169.12109375 51.08203125 C169.17040039 49.47038086 169.17040039 49.47038086 169.22070312 47.82617188 C169.28136955 45.58667742 169.33872099 43.34709043 169.39257812 41.10742188 C169.85216226 26.56548608 173.23413964 16.72151567 183.26953125 5.9296875 C188.66229465 1.159477 195.64586255 -2.5422613 202.875 -3.375 C206.81114016 -1.83141562 208.50726576 -0.92660136 210.875 2.625 C211.54507978 8.01680478 209.77977297 11.6574891 207.5 16.375 C202.44660499 27.39761564 199.84067076 38.07373261 203.375 50 C207.03603746 63.57561737 206.4424591 79.661334 199.51953125 92.05078125 C195.54425202 97.88048029 190.85472155 100.93527057 184 102.6875 C182.96875 102.996875 181.9375 103.30625 180.875 103.625 C180.545 104.615 180.215 105.605 179.875 106.625 C180.865 106.955 181.855 107.285 182.875 107.625 C177.77165983 109.530247 173.41157294 111.05089023 167.875 110.625 C171.54166667 106.95833333 175.20833333 103.29166667 178.875 99.625 C177.72 99.7075 176.565 99.79 175.375 99.875 C170.48195379 99.90995033 167.00650506 98.08632216 162.875 95.625 C163.349375 95.0475 163.82375 94.47 164.3125 93.875 C165.8234867 91.69917916 166.41536151 90.19897552 166.875 87.625 C165.885 87.625 164.895 87.625 163.875 87.625 C164.535 83.665 165.195 79.705 165.875 75.625 C164.885 75.955 163.895 76.285 162.875 76.625 C161.48060336 76.69165376 160.08330125 76.71038199 158.6875 76.6875 C157.429375 76.666875 156.17125 76.64625 154.875 76.625 C155.205 75.965 155.535 75.305 155.875 74.625 C156.535 74.625 157.195 74.625 157.875 74.625 C148.97541757 64.42448194 127.57182673 62.45257355 114.875 60.625 C114.6584375 62.2028125 114.6584375 62.2028125 114.4375 63.8125 C114.00205261 66.76386565 113.46007638 69.6996181 112.875 72.625 C117.825 72.955 122.775 73.285 127.875 73.625 C128.205 75.275 128.535 76.925 128.875 78.625 C128.08738281 79.29144531 127.29976562 79.95789063 126.48828125 80.64453125 C125.96830566 81.08458496 125.44833008 81.52463867 124.91259766 81.97802734 C123.74980716 82.96177509 122.58671472 83.94516606 121.42333984 84.92822266 C118.3962613 87.48696995 115.37395782 90.05087129 112.36328125 92.62890625 C109.22014648 95.31824359 106.05179602 97.97550889 102.875 100.625 C102.18535156 101.21925781 101.49570313 101.81351562 100.78515625 102.42578125 C97.27559568 105.25093772 94.51394757 106.12780943 90.01342773 106.01098633 C86.04534085 105.29474642 83.36075865 102.88784751 80.3125 100.375 C79.6328418 99.84011963 78.95318359 99.30523926 78.25292969 98.75415039 C76.11189031 97.06241312 73.99337276 95.34499655 71.875 93.625 C70.46615886 92.50225404 69.05602209 91.38113174 67.64453125 90.26171875 C65.08201829 88.22589192 62.52866864 86.17963619 59.984375 84.12109375 C57.64319392 82.24167829 55.29325679 80.40277789 52.875 78.625 C53.75 74.75 53.75 74.75 54.875 73.625 C57.40549402 73.55186433 59.90804837 73.53252473 62.4375 73.5625 C63.50387695 73.56926758 63.50387695 73.56926758 64.59179688 73.57617188 C66.35290013 73.58799136 68.11396036 73.60592737 69.875 73.625 C69.875 70.325 69.875 67.025 69.875 63.625 C69.215 63.625 68.555 63.625 67.875 63.625 C67.689375 65.048125 67.689375 65.048125 67.5 66.5 C66.875 69.625 66.875 69.625 64.875 71.625 C63.885 71.625 62.895 71.625 61.875 71.625 C62.00068359 70.01818359 62.00068359 70.01818359 62.12890625 68.37890625 C62.23204896 66.98179134 62.33489843 65.58465476 62.4375 64.1875 C62.49357422 63.48044922 62.54964844 62.77339844 62.60742188 62.04492188 C62.73690993 60.24072163 62.81021608 58.43268048 62.875 56.625 C62.545 56.295 62.215 55.965 61.875 55.625 C61.50375 56.346875 61.1325 57.06875 60.75 57.8125 C57.55944565 62.59833152 55.29631309 65.14015673 49.6171875 66.27734375 C47.16291576 66.59259522 44.70567971 66.88556541 42.24609375 67.15625 C38.27498812 67.70843155 35.39961688 68.77877211 31.875 70.625 C33.195 72.275 34.515 73.925 35.875 75.625 C35.029375 76.099375 34.18375 76.57375 33.3125 77.0625 C30.64237254 79.31062949 30.64237254 79.31062949 30.765625 81.89453125 C31.03790077 84.16946693 31.39176686 86.3858603 31.875 88.625 C27.06050592 88.14355059 24.27328259 87.8241413 19.875 85.625 C21.195 90.245 22.515 94.865 23.875 99.625 C21.4 100.12 21.4 100.12 18.875 100.625 C19.37 101.7078125 19.37 101.7078125 19.875 102.8125 C20.88103529 105.64197427 21.04477402 107.65395466 20.875 110.625 C15.62318167 109.69322578 11.30494551 108.49740089 6.5546875 106.04296875 C5.67280762 105.59074951 4.79092773 105.13853027 3.88232422 104.67260742 C3.21990723 104.32689697 2.55749023 103.98118652 1.875 103.625 C1.66407715 104.29966309 1.4531543 104.97432617 1.23583984 105.66943359 C0.25378883 108.78396868 -0.74795619 111.89184229 -1.75 115 C-2.08128906 116.06089844 -2.41257812 117.12179688 -2.75390625 118.21484375 C-5.27168534 125.95820208 -8.26507566 133.76507566 -14.125 139.625 C-10.36992176 138.37330725 -8.88441479 136.44858723 -6.125 133.625 C-4.18496649 131.73496736 -2.34115736 130.22817767 -0.125 128.625 C2.25 128.8125 2.25 128.8125 3.875 129.625 C3.49243687 132.06513241 3.23515026 133.30732901 1.3515625 134.96875 C0.74054687 135.3503125 0.12953125 135.731875 -0.5 136.125 C-3.37357321 138.02705966 -5.0971256 139.82460201 -7.125 142.625 C-9.0625 143.75 -9.0625 143.75 -11.125 144.625 C-11.785 144.955 -12.445 145.285 -13.125 145.625 C-14.50063117 146.31281558 -15.89885274 146.95665117 -17.3125 147.5625 C-19.46895107 148.55934552 -19.46895107 148.55934552 -20.125 151.625 C-21.115 151.625 -22.105 151.625 -23.125 151.625 C-23.3725 152.73875 -23.62 153.8525 -23.875 155 C-25.125 158.625 -25.125 158.625 -27.25 160.0625 C-27.86875 160.248125 -28.4875 160.43375 -29.125 160.625 C-29.125 161.285 -29.125 161.945 -29.125 162.625 C-29.785 162.625 -30.445 162.625 -31.125 162.625 C-29.31204792 157.59817832 -26.52442714 153.48250339 -23.5859375 149.05078125 C-21.95302831 146.81141014 -21.95302831 146.81141014 -22.125 144.625 C-22.36476563 144.00753906 -22.60453125 143.39007813 -22.8515625 142.75390625 C-23.125 140.625 -23.125 140.625 -21.6484375 138.65234375 C-20.93945312 137.96269531 -20.23046875 137.27304688 -19.5 136.5625 C-11.21614442 127.6879695 -8.46607735 116.01983222 -5.125 104.625 C-4.69316406 103.39394531 -4.26132812 102.16289063 -3.81640625 100.89453125 C-2.81381532 97.74596144 -2.81381532 97.74596144 -4.1015625 95.46484375 C-4.64554688 94.83707031 -5.18953125 94.20929688 -5.75 93.5625 C-13.26421764 83.35970908 -14.23915834 70.86793531 -13.125 58.625 C-12.47273137 55.89665351 -11.65249309 53.2741687 -10.8046875 50.6015625 C-7.94457915 38.0762604 -10.35141947 26.3565652 -15.8125 15 C-18.07547152 10.15175496 -18.96433674 6.94079936 -18.125 1.625 C-13.01847426 -5.24239668 -6.83991903 -3.00956437 0 0 Z " fill="#231F1E" transform="translate(35.125,11.375)"/>
<path d="M0 0 C2 2 2 2 2.01171875 3.953125 C1.90472656 4.71109375 1.79773438 5.4690625 1.6875 6.25 C1.57921875 7.04792969 1.4709375 7.84585938 1.359375 8.66796875 C0.93062763 11.45016636 0.49733464 14.22913555 0 17 C1.99863756 16.42055068 1.99863756 16.42055068 4 15 C5.29231642 11.95800528 5.29231642 11.95800528 6 9 C6.66 9 7.32 9 8 9 C8 12.3 8 15.6 8 19 C3.05 19.33 -1.9 19.66 -7 20 C-7.33 21.32 -7.66 22.64 -8 24 C4.02472537 33.48785213 4.02472537 33.48785213 16.1640625 42.828125 C17.82696112 44.10163965 19.47538985 45.39526796 21.0859375 46.734375 C24.43231494 49.42964733 27.44890635 50.97613341 31.84375 50.671875 C36.69872408 49.15909322 40.27368678 45.31719277 44 42 C45.80620496 40.51315302 47.61880192 39.03403919 49.4375 37.5625 C50.79101562 36.44294922 50.79101562 36.44294922 52.171875 35.30078125 C54.13553511 33.70327323 56.12758545 32.14028622 58.140625 30.60546875 C59.64882813 29.43951172 59.64882813 29.43951172 61.1875 28.25 C62.10917969 27.55390625 63.03085938 26.8578125 63.98046875 26.140625 C66.5718614 23.88433581 66.5718614 23.88433581 66 19 C61.05 19 56.1 19 51 19 C49.81585706 15.44757118 50.30464468 14.30169438 51.4375 10.8125 C51.72496094 9.91144531 52.01242188 9.01039062 52.30859375 8.08203125 C52.53675781 7.39496094 52.76492187 6.70789063 53 6 C67.34607162 6.5434118 82.38523188 9.88640895 95 17 C95.33 17.99 95.66 18.98 96 20 C95.34 20.33 94.68 20.66 94 21 C97.3 21 100.6 21 104 21 C104.25 29.625 104.25 29.625 102 33 C102.99 33 103.98 33 105 33 C104.25 37.75 104.25 37.75 102 40 C107.54165256 43.77304004 111.34454208 44.54330269 118 44 C114.79239749 47.80635497 111.59253891 51.54563567 108 55 C114.49164648 54.70559426 118.49635299 53.41226115 124 50 C124.99 50 125.98 50 127 50 C127.50789062 51.05058594 128.01578125 52.10117188 128.5390625 53.18359375 C131.97552307 60.21561028 135.35504361 67.04232072 139.96875 73.3984375 C141 75 141 75 141 77 C136.01101158 75.82612037 134.01341878 72.81687611 131.13671875 68.875 C130 67 130 67 130 65 C129.01 65.33 128.02 65.66 127 66 C127.57764475 69.75137106 128.66542499 72.41761288 130.5625 75.6875 C133.25462912 80.90058239 133.8094926 85.2105909 133 91 C132 94.125 132 94.125 131 96 C120.50237937 94.61873413 113.0822978 89.04974839 106.296875 81.140625 C100.93452518 73.80843239 97.31586812 65.7735773 95 57 C93.68 56.67 92.36 56.34 91 56 C92.75897022 64.19422713 95.26310632 71.49667197 99 79 C91.52136987 79.65031566 85.19718614 77.13145743 79 73 C76.74534596 72.69822121 76.74534596 72.69822121 74.24609375 72.7265625 C73.30830078 72.7059375 72.37050781 72.6853125 71.40429688 72.6640625 C69.45385992 72.63838196 67.50331178 72.61994008 65.55273438 72.609375 C58.52084328 72.43704819 53.40337392 70.93025862 47 68 C46.67 71.63 46.34 75.26 46 79 C43 80 43 80 41.17578125 79.22265625 C39.45052083 78.1484375 37.72526042 77.07421875 36 76 C36.33 73.69 36.66 71.38 37 69 C35.35 69 33.7 69 32 69 C31.95875 69.66 31.9175 70.32 31.875 71 C30.19870882 76.74728404 26.4944619 81.42294042 21.3125 84.4375 C14.72831386 87.54324818 8.76349 87.90713286 1.75 85.9375 C-3.25877115 84.68530721 -5.48664177 85.21179259 -10 87.5625 C-13.02360695 89.01131166 -14.71109809 89.29019723 -18 89 C-17.13375 88.05125 -16.2675 87.1025 -15.375 86.125 C-11.03848929 81.07775476 -7.11357224 75.34071673 -5 69 C-6.65 69 -8.3 69 -10 69 C-10.309375 69.804375 -10.61875 70.60875 -10.9375 71.4375 C-12 74 -12 74 -13 75 C-14.91750286 74.91256669 -16.83406665 74.8043811 -18.75 74.6875 C-25.54666376 74.60543271 -30.0772815 76.47941319 -36.05859375 79.53125 C-41.89540967 82.44578225 -47.4505442 83.40098709 -54 83 C-55 82 -55 82 -55.0625 79.4375 C-55.041875 78.633125 -55.02125 77.82875 -55 77 C-55.99 77 -56.98 77 -58 77 C-58.495 76.01 -58.495 76.01 -59 75 C-62.30915581 75.61445175 -64.39416703 76.78168782 -67.0625 78.8125 C-67.73410156 79.31394531 -68.40570313 79.81539063 -69.09765625 80.33203125 C-71.06675468 82.05853028 -72.50712885 83.8560324 -74 86 C-74.99 85.67 -75.98 85.34 -77 85 C-76.09894531 83.92105469 -76.09894531 83.92105469 -75.1796875 82.8203125 C-68.84585029 74.6249174 -65.84558777 65.05442316 -63.00439453 55.23583984 C-62.77091309 54.44258301 -62.53743164 53.64932617 -62.296875 52.83203125 C-62.09416992 52.11764893 -61.89146484 51.4032666 -61.68261719 50.66723633 C-61 49 -61 49 -59 48 C-56.64453125 49.14453125 -56.64453125 49.14453125 -53.8125 50.8125 C-49.53945413 53.2357668 -45.78140556 54.93746543 -41 56 C-41.99 52.7 -42.98 49.4 -44 46 C-42.35 45.34 -40.7 44.68 -39 44 C-39.495 42.783125 -39.99 41.56625 -40.5 40.3125 C-41.94633768 36.75691987 -42 35.13481323 -42 31 C-38.04 31.99 -34.08 32.98 -30 34 C-30.433125 32.618125 -30.86625 31.23625 -31.3125 29.8125 C-31.88671875 27.3359375 -31.88671875 27.3359375 -32 25 C-29.625 21.9375 -29.625 21.9375 -27 20 C-28.32 18.68 -29.64 17.36 -31 16 C-24.77435672 12.26461403 -19.3890217 11.31781849 -12.171875 10.6875 C-8.52913549 9.8979407 -7.4101843 8.74186104 -5 6 C-4.34 6 -3.68 6 -3 6 C-2.5359375 4.7934375 -2.5359375 4.7934375 -2.0625 3.5625 C-1 1 -1 1 0 0 Z " fill="#F6FAE3" transform="translate(97,66)"/>
<path d="M0 0 C0.97582031 0.00902344 1.95164063 0.01804688 2.95703125 0.02734375 C4.06111328 0.04474609 4.06111328 0.04474609 5.1875 0.0625 C5.17589844 0.78695312 5.16429687 1.51140625 5.15234375 2.2578125 C4.91429159 9.75099841 4.91429159 9.75099841 6.1875 17.0625 C7.97015886 18.4123008 7.97015886 18.4123008 10.1875 19.0625 C10.71601562 19.41183594 11.24453125 19.76117188 11.7890625 20.12109375 C15.39384188 21.53599901 18.95100458 21.04921197 22.75 20.875 C30.79961754 20.67794202 36.08560975 22.19502006 43.1875 26.0625 C56.02776474 31.75939389 70.36028703 30.11577542 83.1484375 25.3515625 C86.05496785 24.20113443 86.05496785 24.20113443 88.0859375 22.92578125 C91.41832918 21.55689917 94.88386178 21.71835504 98.4375 21.625 C108.66876661 21.3368394 108.66876661 21.3368394 117.125 16.0625 C119.08340643 12.3760879 119.29830414 9.48085199 119.25 5.375 C119.24097656 4.38113281 119.23195312 3.38726562 119.22265625 2.36328125 C119.21105469 1.60402344 119.19945312 0.84476563 119.1875 0.0625 C133.24084207 -0.77696955 146.2644089 3.60503654 157.36328125 12.25 C163.38842236 18.23643571 166.32682515 25.32042043 166.5 33.6875 C166.36927733 44.29782357 162.84428622 50.1986463 155.61328125 57.83203125 C147.25448982 65.5178121 136.66903696 68.62763917 125.5 68.4375 C124.63076904 68.42734863 123.76153809 68.41719727 122.8659668 68.40673828 C111.84681214 68.14454683 100.56788342 67.02164722 92.1875 59.0625 C92.1875 58.4025 92.1875 57.7425 92.1875 57.0625 C92.75339844 56.89234375 93.31929687 56.7221875 93.90234375 56.546875 C94.63582031 56.30453125 95.36929688 56.0621875 96.125 55.8125 C97.22134766 55.46445313 97.22134766 55.46445313 98.33984375 55.109375 C100.39320556 54.2117447 100.39320556 54.2117447 100.94140625 51.953125 C101.02261719 51.32921875 101.10382813 50.7053125 101.1875 50.0625 C94.69362746 50.5820098 88.78264833 52.23857979 82.5546875 54.125 C67.75348276 58.24598508 51.6343758 56.87298324 36.9375 53.03515625 C33.6881081 52.19234523 30.50498878 51.55493974 27.1875 51.0625 C27.1875 52.3825 27.1875 53.7025 27.1875 55.0625 C28.8375 55.7225 30.4875 56.3825 32.1875 57.0625 C30.2955427 62.23459629 26.20670146 63.49830791 21.48046875 65.734375 C9.00475042 70.76610007 -4.12140938 69.88838559 -16.8125 66.0625 C-26.59536129 61.81226813 -35.53144528 55.85828601 -39.7890625 45.7421875 C-42.45471755 37.79504767 -43.31740402 30.61489213 -39.6875 22.875 C-32.87344828 10.66330057 -23.92317614 5.37740607 -10.8125 1.0625 C-7.14492329 0.14136748 -3.77693888 -0.04550529 0 0 Z " fill="#615349" transform="translate(63.8125,172.9375)"/>
<path d="M0 0 C0.7528125 0.10828125 1.505625 0.2165625 2.28125 0.328125 C1.12964582 8.11516282 -4.03480744 14.14570679 -9.71875 19.328125 C-4.83841929 18.97010332 -4.83841929 18.97010332 -0.65625 16.703125 C1.28125 15.328125 1.28125 15.328125 4.15625 15.578125 C5.1875 15.825625 6.21875 16.073125 7.28125 16.328125 C15.2197676 17.91582852 22.01481314 18.38056094 29.28125 14.328125 C33.78636911 10.45162716 37.38796888 6.00796835 39.28125 0.328125 C40.93125 0.328125 42.58125 0.328125 44.28125 0.328125 C43.82352414 3.44066083 43.14674083 5.58162305 41.65625 8.390625 C40.13993663 11.08945796 40.13993663 11.08945796 40.28125 13.328125 C42.08208417 16.92979333 44.63492412 20.50496206 48.28125 22.328125 C48.36375 21.626875 48.44625 20.925625 48.53125 20.203125 C49.62684872 16.00332991 51.43835781 12.45763957 55.21875 10.140625 C58.59272804 10.44735028 60.05707924 12.93286419 62.28125 15.328125 C65.56644475 16.42318992 68.01788415 16.42773108 71.46875 16.390625 C72.55542969 16.38160156 73.64210938 16.37257812 74.76171875 16.36328125 C75.59316406 16.35167969 76.42460937 16.34007812 77.28125 16.328125 C76.78625 14.843125 76.78625 14.843125 76.28125 13.328125 C75.62125 13.328125 74.96125 13.328125 74.28125 13.328125 C73.78625 10.853125 73.78625 10.853125 73.28125 8.328125 C75 7.54296875 75 7.54296875 77.28125 7.328125 C79.4375 9.20703125 79.4375 9.20703125 81.78125 11.890625 C87.01739985 17.41294552 92.33630637 20.37676747 99.28125 23.328125 C100.04566406 23.66714844 100.81007812 24.00617188 101.59765625 24.35546875 C103.14914381 25.03561582 104.71335224 25.68671228 106.28125 26.328125 C107.27125 23.853125 107.27125 23.853125 108.28125 21.328125 C109.78125 22.453125 109.78125 22.453125 111.28125 24.328125 C111.34137319 26.3272211 111.34625629 28.32918173 111.28125 30.328125 C102.32067632 30.15336204 91.93512812 28.98200312 85.28125 22.328125 C82.37449817 22.30643863 82.37449817 22.30643863 79.15625 22.703125 C78.06054688 22.81398437 76.96484375 22.92484375 75.8359375 23.0390625 C74.99289063 23.13445312 74.14984375 23.22984375 73.28125 23.328125 C73.77625 24.318125 73.77625 24.318125 74.28125 25.328125 C74.32147391 27.6611116 74.32445247 29.99519166 74.28125 32.328125 C74.92811768 32.31652344 75.57498535 32.30492187 76.24145508 32.29296875 C83.53696042 32.2203444 90.70600865 32.66989737 97.96875 33.328125 C99.06380859 33.42351562 100.15886719 33.51890625 101.28710938 33.6171875 C103.95222457 33.84994865 106.61688186 34.0869883 109.28125 34.328125 C108.62125 35.648125 107.96125 36.968125 107.28125 38.328125 C102.66125 38.328125 98.04125 38.328125 93.28125 38.328125 C93.61125 39.318125 93.94125 40.308125 94.28125 41.328125 C94.64742651 46.91231673 94.5359241 50.55460298 91.28125 55.328125 C85.85872274 59.59692306 82.12909806 60.36559502 75.34204102 60.56787109 C67.70643111 60.81495674 62.09408733 61.73541782 55.28125 65.328125 C42.47818774 70.92946474 28.27694713 69.43653294 15.515625 64.71484375 C12.28125 63.328125 12.28125 63.328125 9.42578125 61.66015625 C5.22463856 59.88054177 1.71507618 60.1068128 -2.78125 60.328125 C-12.18503942 60.78871877 -12.18503942 60.78871877 -16.71875 57.328125 C-17.70875 56.668125 -18.69875 56.008125 -19.71875 55.328125 C-21.91245613 50.59433808 -22.5513934 45.47618904 -21.71875 40.328125 C-20.19921875 37.55078125 -20.19921875 37.55078125 -18.71875 35.328125 C-32.9816121 34.87834475 -32.9816121 34.87834475 -46.71875 38.328125 C-48.04735925 38.67981568 -49.37962802 39.01886589 -50.71875 39.328125 C-49.65234375 36.42578125 -49.65234375 36.42578125 -47.71875 33.328125 C-44.56640625 32.26171875 -44.56640625 32.26171875 -40.78125 31.765625 C-34.5028223 30.80486645 -29.19258193 29.12438676 -23.40234375 26.4140625 C-18.43814289 24.40525924 -13.64983669 24.20666848 -8.34375 24.265625 C-6.75433594 24.27916016 -6.75433594 24.27916016 -5.1328125 24.29296875 C-4.33617187 24.30457031 -3.53953125 24.31617188 -2.71875 24.328125 C-2.71875 23.668125 -2.71875 23.008125 -2.71875 22.328125 C-3.42 22.534375 -4.12125 22.740625 -4.84375 22.953125 C-8.387375 23.41533696 -10.4166606 22.63520206 -13.71875 21.328125 C-14.6675 20.956875 -15.61625 20.585625 -16.59375 20.203125 C-17.295 19.914375 -17.99625 19.625625 -18.71875 19.328125 C-16.66765165 17.20106004 -14.67906429 15.2989838 -12.29296875 13.546875 C-8.68592324 10.43791923 -6.85168739 6.71860653 -4.5625 2.59375 C-2.71875 0.328125 -2.71875 0.328125 0 0 Z M64.28125 22.328125 C64.61125 23.648125 64.94125 24.968125 65.28125 26.328125 C66.27125 25.998125 67.26125 25.668125 68.28125 25.328125 C68.28125 24.338125 68.28125 23.348125 68.28125 22.328125 C66.96125 22.328125 65.64125 22.328125 64.28125 22.328125 Z " fill="#262020" transform="translate(89.71875,134.671875)"/>
<path d="M0 0 C0.97582031 0.00902344 1.95164063 0.01804688 2.95703125 0.02734375 C4.06111328 0.04474609 4.06111328 0.04474609 5.1875 0.0625 C5.17589844 0.78695312 5.16429687 1.51140625 5.15234375 2.2578125 C4.91429159 9.75099841 4.91429159 9.75099841 6.1875 17.0625 C7.97015886 18.4123008 7.97015886 18.4123008 10.1875 19.0625 C10.71601562 19.41183594 11.24453125 19.76117188 11.7890625 20.12109375 C15.39384188 21.53599901 18.95100458 21.04921197 22.75 20.875 C30.79961754 20.67794202 36.08560975 22.19502006 43.1875 26.0625 C56.02776474 31.75939389 70.36028703 30.11577542 83.1484375 25.3515625 C86.05496785 24.20113443 86.05496785 24.20113443 88.0859375 22.92578125 C91.41832918 21.55689917 94.88386178 21.71835504 98.4375 21.625 C108.66876661 21.3368394 108.66876661 21.3368394 117.125 16.0625 C119.08340643 12.3760879 119.29830414 9.48085199 119.25 5.375 C119.24097656 4.38113281 119.23195312 3.38726562 119.22265625 2.36328125 C119.21105469 1.60402344 119.19945312 0.84476563 119.1875 0.0625 C133.24084207 -0.77696955 146.2644089 3.60503654 157.36328125 12.25 C162.2827986 17.13791445 166.07216746 23.71785642 166.3125 30.6875 C166.1875 34.0625 166.1875 34.0625 165.1875 35.0625 C154.60366755 37.35315568 143.77261788 37.25604672 133 37.25 C132.31839813 37.25081573 131.63679626 37.25163147 130.93453979 37.25247192 C119.34838707 37.25090771 107.78632211 37.08446047 96.4375 34.5625 C85.31009232 32.11152915 74.39971152 31.78953755 63.0625 31.75 C62.26702759 31.74638458 61.47155518 31.74276917 60.65197754 31.73904419 C47.88787274 31.71578481 35.85801103 32.88841914 23.36206055 35.60571289 C15.45236942 37.26721868 7.56641743 37.24872538 -0.48364258 37.24780273 C-2.60974306 37.24998434 -4.73531932 37.26817764 -6.86132812 37.28710938 C-16.96158827 37.3298487 -26.49242259 36.64175094 -36 32.9375 C-36.92167969 32.58429688 -37.84335937 32.23109375 -38.79296875 31.8671875 C-39.45941406 31.60164063 -40.12585938 31.33609375 -40.8125 31.0625 C-40.51302481 22.82693215 -37.42927822 17.69233518 -31.6484375 11.890625 C-22.79067789 4.21582352 -11.73934441 -0.14143788 0 0 Z " fill="#867366" transform="translate(63.8125,172.9375)"/>
<path d="M0 0 C8.39423963 1.03087153 14.62422011 6.84325763 19.87109375 13.12890625 C24.47342608 19.41061158 26.61801349 25.24611064 26.80859375 33.015625 C26.84146484 34.09457031 26.87433594 35.17351563 26.90820312 36.28515625 C26.96897701 38.53766916 27.02631774 40.79027754 27.08007812 43.04296875 C27.40100396 53.22782267 28.62641971 63.42849489 36.15234375 71.046875 C37.57828336 72.23225267 39.06718419 73.34093507 40.5625 74.4375 C41.5525 75.4275 41.5525 75.4275 42.5625 76.4375 C41.5725 76.9325 41.5725 76.9325 40.5625 77.4375 C41.0575 81.8925 41.0575 81.8925 41.5625 86.4375 C36.74800592 85.95605059 33.96078259 85.6366413 29.5625 83.4375 C30.8825 88.0575 32.2025 92.6775 33.5625 97.4375 C31.0875 97.9325 31.0875 97.9325 28.5625 98.4375 C29.0575 99.5203125 29.0575 99.5203125 29.5625 100.625 C30.56853529 103.45447427 30.73227402 105.46645466 30.5625 108.4375 C25.31068167 107.50572578 20.99244551 106.30990089 16.2421875 103.85546875 C15.36030762 103.40324951 14.47842773 102.95103027 13.56982422 102.48510742 C12.90740723 102.13939697 12.24499023 101.79368652 11.5625 101.4375 C11.35157715 102.11216309 11.1406543 102.78682617 10.92333984 103.48193359 C9.94128883 106.59646868 8.93954381 109.70434229 7.9375 112.8125 C7.60621094 113.87339844 7.27492188 114.93429688 6.93359375 116.02734375 C4.41581466 123.77070208 1.42242434 131.57757566 -4.4375 137.4375 C-0.68242176 136.18580725 0.80308521 134.26108723 3.5625 131.4375 C5.50253351 129.54746736 7.34634264 128.04067767 9.5625 126.4375 C11.9375 126.625 11.9375 126.625 13.5625 127.4375 C13.17993687 129.87763241 12.92265026 131.11982901 11.0390625 132.78125 C10.42804687 133.1628125 9.81703125 133.544375 9.1875 133.9375 C6.31392679 135.83955966 4.5903744 137.63710201 2.5625 140.4375 C0.625 141.5625 0.625 141.5625 -1.4375 142.4375 C-2.0975 142.7675 -2.7575 143.0975 -3.4375 143.4375 C-4.81313117 144.12531558 -6.21135274 144.76915117 -7.625 145.375 C-9.78145107 146.37184552 -9.78145107 146.37184552 -10.4375 149.4375 C-11.4275 149.4375 -12.4175 149.4375 -13.4375 149.4375 C-13.685 150.55125 -13.9325 151.665 -14.1875 152.8125 C-15.4375 156.4375 -15.4375 156.4375 -17.5625 157.875 C-18.18125 158.060625 -18.8 158.24625 -19.4375 158.4375 C-19.4375 159.0975 -19.4375 159.7575 -19.4375 160.4375 C-20.0975 160.4375 -20.7575 160.4375 -21.4375 160.4375 C-19.62454792 155.41067832 -16.83692714 151.29500339 -13.8984375 146.86328125 C-12.26552831 144.62391014 -12.26552831 144.62391014 -12.4375 142.4375 C-12.67726563 141.82003906 -12.91703125 141.20257813 -13.1640625 140.56640625 C-13.4375 138.4375 -13.4375 138.4375 -11.9609375 136.46484375 C-11.25195312 135.77519531 -10.54296875 135.08554688 -9.8125 134.375 C-1.52864442 125.5004695 1.22142265 113.83233222 4.5625 102.4375 C4.99433594 101.20644531 5.42617188 99.97539063 5.87109375 98.70703125 C6.87368468 95.55846144 6.87368468 95.55846144 5.5859375 93.27734375 C5.04195312 92.64957031 4.49796875 92.02179688 3.9375 91.375 C-3.57671764 81.17220908 -4.55165834 68.68043531 -3.4375 56.4375 C-2.78523137 53.70915351 -1.96499309 51.0866687 -1.1171875 48.4140625 C0.95078484 39.35776986 0.53453764 29.09120957 -2.78125 20.41796875 C-3.4375 18.4375 -3.4375 18.4375 -3.4375 14.4375 C-2.7775 13.7775 -2.1175 13.1175 -1.4375 12.4375 C-1.27062552 9.85395782 -1.27062552 9.85395782 -1.4375 7.4375 C-2.0975 7.4375 -2.7575 7.4375 -3.4375 7.4375 C-3.48004356 5.43795254 -3.47830783 3.43708364 -3.4375 1.4375 C-2.4375 0.4375 -2.4375 0.4375 0 0 Z " fill="#2D2818" transform="translate(25.4375,13.5625)"/>
<path d="M0 0 C1 2 1 2 1.2734375 4.57421875 C2.24813517 9.16997065 4.31111054 12.7563182 6.625 16.8125 C7.07141846 17.61131592 7.51783691 18.41013184 7.9777832 19.2331543 C10.86075153 24.29578931 13.93833301 28.89071071 17.91796875 33.17578125 C19 35 19 35 18.67578125 37.73046875 C18.34126953 38.85388672 18.34126953 38.85388672 18 40 C10.25 40.125 10.25 40.125 8 39 C8.2532832 43.30581447 8.38729009 45.38729009 11.5 48.5 C14.63420274 51.63420274 14.83565719 53.64491563 15 58 C14.505 58.99 14.505 58.99 14 60 C14.93278659 62.23974847 14.93278659 62.23974847 16.3125 64.6875 C19.27614005 70.40073943 21.39865067 75.42226397 21 82 C14.45520207 81.68834296 10.48391507 80.54013204 5.04296875 76.86328125 C2.99942799 75.72495263 2.99942799 75.72495263 0.87890625 76.78515625 C0.25886719 77.18605469 -0.36117187 77.58695312 -1 78 C-2.33333333 78.66666667 -3.66666667 79.33333333 -5 80 C-5 79.34 -5 78.68 -5 78 C-5.86431641 77.59394531 -5.86431641 77.59394531 -6.74609375 77.1796875 C-9.01962393 75.9897289 -10.98317563 74.62522282 -13.0625 73.125 C-19.64243318 68.684088 -27.0808713 65.85612202 -35 65 C-34.360625 64.896875 -33.72125 64.79375 -33.0625 64.6875 C-32.381875 64.460625 -31.70125 64.23375 -31 64 C-30.67 63.01 -30.34 62.02 -30 61 C-30.6391333 60.94465088 -31.2782666 60.88930176 -31.93676758 60.83227539 C-34.89536578 60.57592223 -37.85393296 60.31921259 -40.8125 60.0625 C-41.81732422 59.97548828 -42.82214844 59.88847656 -43.85742188 59.79882812 C-50.57318419 59.21578767 -57.28702306 58.6142955 -64 58 C-64.99 53.05 -64.99 53.05 -66 48 C-53.43343653 46.06520898 -53.43343653 46.06520898 -48.5625 49.3125 C-47.37219967 50.20460915 -46.18434911 51.10000511 -45 52 C-39.31576916 54.45455423 -33.08510497 55.07443387 -27 56 C-27.99 52.04 -27.99 52.04 -29 48 C-29.99 49.65 -30.98 51.3 -32 53 C-32.33 52.34 -32.66 51.68 -33 51 C-34.99728446 50.65076384 -36.99786291 50.32024705 -39 50 C-47.28471861 46.93284325 -53.06720805 42.51631025 -58.94140625 35.9765625 C-60.88502033 33.6537056 -60.88502033 33.6537056 -64 34 C-64 35.65 -64 37.3 -64 39 C-63.34 39 -62.68 39 -62 39 C-61.34 40.32 -60.68 41.64 -60 43 C-74.11408033 43.56540084 -74.11408033 43.56540084 -79 40 C-79.66 39.01 -80.32 38.02 -81 37 C-82.92625985 37.11448845 -82.92625985 37.11448845 -85 38 C-86.57314972 40.29847487 -86.57314972 40.29847487 -87.75 43.0625 C-88.17796875 43.98160156 -88.6059375 44.90070313 -89.046875 45.84765625 C-89.36140625 46.55792969 -89.6759375 47.26820313 -90 48 C-94.32640329 46.05450816 -96.2875462 43.874934 -99 40 C-98.9375 37.9375 -98.9375 37.9375 -98 36 C-97.4740625 34.63875 -97.4740625 34.63875 -96.9375 33.25 C-96.4734375 32.13625 -96.4734375 32.13625 -96 31 C-95.44570312 31.3609375 -94.89140625 31.721875 -94.3203125 32.09375 C-93.59585938 32.5578125 -92.87140625 33.021875 -92.125 33.5 C-91.40570313 33.9640625 -90.68640625 34.428125 -89.9453125 34.90625 C-88.08139534 36.16336501 -88.08139534 36.16336501 -86 36 C-85.34 32.37 -84.68 28.74 -84 25 C-79 26 -79 26 -76.859375 27.04296875 C-71.5948295 28.80500925 -65.87852052 28.3214042 -60.3671875 28.30273438 C-54.14364286 28.43487813 -50.23550157 29.5597264 -44.96044922 32.85766602 C-42.45516027 34.31747261 -40.31786523 34.69079443 -37.4375 34.8125 C-36.59058594 34.86019531 -35.74367187 34.90789062 -34.87109375 34.95703125 C-34.25363281 34.97121094 -33.63617188 34.98539063 -33 35 C-33.63228516 33.74896484 -33.63228516 33.74896484 -34.27734375 32.47265625 C-37.51261206 25.82703453 -39.7488304 20.40950326 -40 13 C-37.525 13.495 -37.525 13.495 -35 14 C-34.78085938 14.75023438 -34.56171875 15.50046875 -34.3359375 16.2734375 C-32.08517409 23.53809665 -29.38251449 29.77437194 -25 36 C-24.44828125 36.78375 -23.8965625 37.5675 -23.328125 38.375 C-17.31652294 45.97941971 -9.10137182 49.96620939 0 53 C1.91145677 45.83203712 1.99963731 39.32404754 -1.4375 32.6875 C-1.88996094 31.90761719 -2.34242188 31.12773437 -2.80859375 30.32421875 C-4.06645196 27.87036421 -4.58214664 25.71364542 -5 23 C-3.68 22.67 -2.36 22.34 -1 22 C-0.31164062 23.04800781 -0.31164062 23.04800781 0.390625 24.1171875 C1.00421875 25.02726562 1.6178125 25.93734375 2.25 26.875 C2.85328125 27.77992188 3.4565625 28.68484375 4.078125 29.6171875 C6.01372844 32.01702103 7.26279535 32.76079281 10 34 C9.68248779 33.48614746 9.36497559 32.97229492 9.0378418 32.44287109 C7.58511462 30.08851514 6.13628321 27.73178479 4.6875 25.375 C4.18798828 24.56675781 3.68847656 23.75851563 3.17382812 22.92578125 C-4 11.23861755 -4 11.23861755 -4 7 C-4.7425 7.33 -5.485 7.66 -6.25 8 C-9 9 -9 9 -13 9 C-13.495 7.515 -13.495 7.515 -14 6 C-13.030625 5.87625 -12.06125 5.7525 -11.0625 5.625 C-10.051875 5.41875 -9.04125 5.2125 -8 5 C-7.67 4.34 -7.34 3.68 -7 3 C-5.35448038 2.28272222 -3.68577711 1.61674772 -2 1 C-1.34 0.67 -0.68 0.34 0 0 Z " fill="#282220" transform="translate(228,109)"/>
<path d="M0 0 C0.89203125 0.10183594 1.7840625 0.20367187 2.703125 0.30859375 C3.37859375 0.39238281 4.0540625 0.47617188 4.75 0.5625 C5.0683632 6.00927904 4.21684323 9.47281621 1.875 14.375 C-2.9712721 25.01591195 -5.12980531 35.53265933 -1.75 46.9375 C1.91103746 60.51311737 1.3174591 76.598834 -5.60546875 88.98828125 C-9.58074798 94.81798029 -14.27027845 97.87277057 -21.125 99.625 C-22.15625 99.934375 -23.1875 100.24375 -24.25 100.5625 C-24.58 101.5525 -24.91 102.5425 -25.25 103.5625 C-23.765 104.0575 -23.765 104.0575 -22.25 104.5625 C-27.35334017 106.467747 -31.71342706 107.98839023 -37.25 107.5625 C-31.75 102.0625 -31.75 102.0625 -26.25 96.5625 C-27.405 96.645 -28.56 96.7275 -29.75 96.8125 C-34.64304621 96.84745033 -38.11849494 95.02382216 -42.25 92.5625 C-41.775625 91.985 -41.30125 91.4075 -40.8125 90.8125 C-39.3015133 88.63667916 -38.70963849 87.13647552 -38.25 84.5625 C-39.24 84.5625 -40.23 84.5625 -41.25 84.5625 C-40.92 83.5725 -40.59 82.5825 -40.25 81.5625 C-40.33077438 80.01943088 -40.43782171 78.47764354 -40.5625 76.9375 C-40.63841291 71.7146921 -39.06912524 68.97602438 -35.85546875 64.9609375 C-30.16261407 56.45628355 -30.83211047 47.6958913 -30.8984375 37.82421875 C-30.76931402 28.27984188 -28.57238569 20.54607853 -23.25 12.5625 C-22.59 12.5625 -21.93 12.5625 -21.25 12.5625 C-21.19457031 11.98886719 -21.13914063 11.41523438 -21.08203125 10.82421875 C-19.86915241 7.52723824 -17.77719642 6.37971283 -14.9375 4.375 C-13.97199219 3.68019531 -13.00648438 2.98539063 -12.01171875 2.26953125 C-7.70314598 -0.39361769 -4.98329687 -0.59012726 0 0 Z " fill="#2D2818" transform="translate(240.25,14.4375)"/>
<path d="M0 0 C0.66 0 1.32 0 2 0 C2.51580127 4.12641013 2.82428922 7.5972622 0.6640625 11.2734375 C-0.41578466 12.63718814 -1.53183424 13.97331353 -2.6875 15.2734375 C-4.3025873 17.03658046 -4.3025873 17.03658046 -4 20 C-0.95738092 19.6740051 -0.0198781 19.02104739 2.125 16.75 C3.87069072 14.18965361 4.90854776 11.87834307 6 9 C9.04172719 8.9728955 12.08320997 8.95311036 15.125 8.9375 C15.9809375 8.92912109 16.836875 8.92074219 17.71875 8.91210938 C22.26678411 8.89461694 26.52383164 9.06807642 31 10 C30.44549838 14.03994039 29.80044424 17.99777881 29 22 C33.95 22.33 38.9 22.66 44 23 C44.495 25.475 44.495 25.475 45 28 C44.21238281 28.66644531 43.42476563 29.33289063 42.61328125 30.01953125 C42.09330566 30.45958496 41.57333008 30.89963867 41.03759766 31.35302734 C39.87480716 32.33677509 38.71171472 33.32016606 37.54833984 34.30322266 C34.5212613 36.86196995 31.49895782 39.42587129 28.48828125 42.00390625 C25.34514648 44.69324359 22.17679602 47.35050889 19 50 C18.31035156 50.59425781 17.62070313 51.18851563 16.91015625 51.80078125 C13.40059568 54.62593772 10.63894757 55.50280943 6.13842773 55.38598633 C2.17034085 54.66974642 -0.51424135 52.26284751 -3.5625 49.75 C-4.2421582 49.21511963 -4.92181641 48.68023926 -5.62207031 48.12915039 C-7.76310969 46.43741312 -9.88162724 44.71999655 -12 43 C-13.40884114 41.87725404 -14.81897791 40.75613174 -16.23046875 39.63671875 C-18.79298171 37.60089192 -21.34633136 35.55463619 -23.890625 33.49609375 C-26.23180608 31.61667829 -28.58174321 29.77777789 -31 28 C-30.125 24.125 -30.125 24.125 -29 23 C-26.46950598 22.92686433 -23.96695163 22.90752473 -21.4375 22.9375 C-20.72658203 22.94201172 -20.01566406 22.94652344 -19.28320312 22.95117188 C-17.52209987 22.96299136 -15.76103964 22.98092737 -14 23 C-14 19.7 -14 16.4 -14 13 C-14.66 12.67 -15.32 12.34 -16 12 C-14.94093691 8.94195534 -14.08599525 8.05105968 -11.25 6.3671875 C-10.1775 5.87476562 -9.105 5.38234375 -8 4.875 C-3.65559984 2.9321098 -3.65559984 2.9321098 0 0 Z " fill="#63564A" transform="translate(119,62)"/>
<path d="M0 0 C-3.38772897 4.69159716 -6.78185183 9.0299782 -11 13 C-9.9171875 13.185625 -9.9171875 13.185625 -8.8125 13.375 C-6 14 -6 14 -3.3125 15.125 C-2.549375 15.41375 -1.78625 15.7025 -1 16 C-0.01 15.505 -0.01 15.505 1 15 C1.66 15.33 2.32 15.66 3 16 C3 16.66 3 17.32 3 18 C0.09749732 19.45125134 -2.39659196 18.94039197 -5.625 18.8125 C-10.96800994 18.77456788 -14.28667046 19.10910957 -18.80859375 21.84375 C-25.90808733 25.58965035 -34.03792651 27.28399753 -42 27 C-42.66 28.65 -43.32 30.3 -44 32 C-42.96875 31.71125 -41.9375 31.4225 -40.875 31.125 C-40.00488281 30.88136719 -40.00488281 30.88136719 -39.1171875 30.6328125 C-36.88917264 30.00301651 -36.88917264 30.00301651 -34.375 28.9375 C-29.8958874 27.69330206 -25.74640409 27.7845207 -21.125 27.875 C-20.24585938 27.88402344 -19.36671875 27.89304688 -18.4609375 27.90234375 C-16.3071729 27.92575423 -14.15354986 27.9616199 -12 28 C-13.0390625 29.94140625 -13.0390625 29.94140625 -15 32 C-17.54402983 32.49748593 -19.81065974 32.77696569 -22.375 32.9375 C-36.60321117 34.31296891 -47.03017028 39.77616188 -57 50 C-57.66 49.34 -58.32 48.68 -59 48 C-60.485 48.495 -60.485 48.495 -62 49 C-62.66 48.01 -63.32 47.02 -64 46 C-65.35544922 46.54140625 -65.35544922 46.54140625 -66.73828125 47.09375 C-67.91777344 47.5578125 -69.09726563 48.021875 -70.3125 48.5 C-71.48425781 48.9640625 -72.65601562 49.428125 -73.86328125 49.90625 C-77 51 -77 51 -80 51 C-82.80255323 48.0936485 -83 47.21174952 -83 43 C-82.57061927 39.50361405 -82.11484922 36.34454766 -81 33 C-80.01 33 -79.02 33 -78 33 C-78 32.34 -78 31.68 -78 31 C-77.01 30.34 -76.02 29.68 -75 29 C-73.91891713 26.9545557 -73.91891713 26.9545557 -73.0625 24.625 C-71.52253277 21.0104354 -70.2939641 18.32515113 -67 16 C-63.875 15.3125 -63.875 15.3125 -61 15 C-58.83333333 14.16666667 -58.83333333 14.16666667 -58 12 C-57.01 11.67 -56.02 11.34 -55 11 C-53.31126121 9.35570171 -51.64694485 7.68615782 -50 6 C-45.45945946 2 -45.45945946 2 -42 2 C-41.505 4.475 -41.505 4.475 -41 7 C-32.72153619 7.55189759 -25.26115585 5.41565846 -18.125 1.25 C-12.15360006 -1.97648222 -6.50862172 -1.03036174 0 0 Z " fill="#27211E" transform="translate(84,141)"/>
<path d="M0 0 C1.35617432 0.1249585 1.35617432 0.1249585 2.73974609 0.25244141 C3.70992676 0.34831543 4.68010742 0.44418945 5.6796875 0.54296875 C7.17169678 0.6829126 7.17169678 0.6829126 8.69384766 0.82568359 C14.46085219 1.38000684 20.19136878 2.06102024 25.9296875 2.85546875 C40.05467798 4.66169676 53.69411411 3.50678184 67.7421875 1.73046875 C70.07944692 1.44233004 72.41700323 1.1569433 74.75495911 0.87451172 C76.19120845 0.70027116 77.62702876 0.52244118 79.06230164 0.34033203 C88.57203155 -0.83364855 88.57203155 -0.83364855 92.9296875 1.66796875 C94.88409934 3.43096912 95.49564097 4.29383521 95.8515625 6.92578125 C95.57588706 10.72258397 94.99450667 13.12382161 92.7421875 16.23046875 C88.46621025 19.16256743 84.66975786 18.82883549 79.5546875 18.73046875 C79.8846875 18.07046875 80.2146875 17.41046875 80.5546875 16.73046875 C81.2146875 16.73046875 81.8746875 16.73046875 82.5546875 16.73046875 C82.5546875 16.07046875 82.5546875 15.41046875 82.5546875 14.73046875 C83.5446875 14.07046875 84.5346875 13.41046875 85.5546875 12.73046875 C85.5546875 11.74046875 85.5546875 10.75046875 85.5546875 9.73046875 C81.63401621 10.31130894 79.58763972 12.27959827 76.5546875 14.73046875 C74.6991001 16.00910881 72.82373032 17.25951552 70.9296875 18.48046875 C69.98867187 19.0940625 69.04765625 19.70765625 68.078125 20.33984375 C65.5546875 21.73046875 65.5546875 21.73046875 62.5546875 21.73046875 C62.5546875 22.39046875 62.5546875 23.05046875 62.5546875 23.73046875 C45.012146 27.70772512 29.26452572 28.19812862 13.4296875 18.23046875 C11.78746989 17.08816518 10.16056073 15.92332552 8.5546875 14.73046875 C4.41990451 11.22561599 4.41990451 11.22561599 -0.4453125 9.73046875 C0.12821643 13.60178903 2.04173102 15.81219671 4.5546875 18.73046875 C-4.5599958 19.35666837 -4.5599958 19.35666837 -8.0078125 16.91796875 C-10.64814795 12.90006698 -10.85945666 9.45171223 -10.4453125 4.73046875 C-7.23800233 0.66787587 -5.04910601 -0.47596092 0 0 Z " fill="#3D3739" transform="translate(83.4453125,171.26953125)"/>
<path d="M0 0 C0.7528125 0.10828125 1.505625 0.2165625 2.28125 0.328125 C1.12964582 8.11516282 -4.03480744 14.14570679 -9.71875 19.328125 C-4.83841929 18.97010332 -4.83841929 18.97010332 -0.65625 16.703125 C1.28125 15.328125 1.28125 15.328125 4.15625 15.578125 C5.1875 15.825625 6.21875 16.073125 7.28125 16.328125 C15.2197676 17.91582852 22.01481314 18.38056094 29.28125 14.328125 C33.78636911 10.45162716 37.38796888 6.00796835 39.28125 0.328125 C40.93125 0.328125 42.58125 0.328125 44.28125 0.328125 C43.82352414 3.44066083 43.14674083 5.58162305 41.65625 8.390625 C40.13993663 11.08945796 40.13993663 11.08945796 40.28125 13.328125 C42.08208417 16.92979333 44.63492412 20.50496206 48.28125 22.328125 C48.77625 20.843125 48.77625 20.843125 49.28125 19.328125 C49.28125 20.648125 49.28125 21.968125 49.28125 23.328125 C47.96125 23.328125 46.64125 23.328125 45.28125 23.328125 C45.39431697 25.28706861 45.39431697 25.28706861 46.28125 27.328125 C48.72441271 28.58102895 50.52650395 29.328125 53.28125 29.328125 C53.22904297 28.40580078 53.22904297 28.40580078 53.17578125 27.46484375 C53.14871094 26.65660156 53.12164062 25.84835938 53.09375 25.015625 C53.04154297 23.81486328 53.04154297 23.81486328 52.98828125 22.58984375 C53.28125 20.328125 53.28125 20.328125 56.28125 17.328125 C60.73625 19.308125 60.73625 19.308125 65.28125 21.328125 C65.02083333 23.83463542 64.76041667 26.34114583 64.5 28.84765625 C64.23732599 31.41117599 64.23732599 31.41117599 64.28125 34.328125 C45.54770217 36.38291321 27.98408243 36.75256624 9.28125 34.328125 C8.78625 30.368125 8.78625 30.368125 8.28125 26.328125 C6.96125 25.998125 5.64125 25.668125 4.28125 25.328125 C4.28125 24.338125 4.28125 23.348125 4.28125 22.328125 C2.25159802 22.7533142 2.25159802 22.7533142 0.28125 24.328125 C-0.412204 26.25382943 -0.412204 26.25382943 -0.8515625 28.421875 C-1.0180127 29.15083984 -1.18446289 29.87980469 -1.35595703 30.63085938 C-1.53553955 31.47100586 -1.53553955 31.47100586 -1.71875 32.328125 C-2.72663574 32.40329346 -3.73452148 32.47846191 -4.77294922 32.5559082 C-8.55723087 32.84111903 -12.34023674 33.14101181 -16.12304688 33.44506836 C-17.75197237 33.57399813 -19.38120702 33.69908772 -21.01074219 33.82006836 C-29.94899678 34.48632476 -38.22159699 35.28731993 -46.71875 38.328125 C-48.04829609 38.67625728 -49.38072701 39.0141451 -50.71875 39.328125 C-49.65234375 36.42578125 -49.65234375 36.42578125 -47.71875 33.328125 C-44.56640625 32.26171875 -44.56640625 32.26171875 -40.78125 31.765625 C-34.5028223 30.80486645 -29.19258193 29.12438676 -23.40234375 26.4140625 C-18.43814289 24.40525924 -13.64983669 24.20666848 -8.34375 24.265625 C-6.75433594 24.27916016 -6.75433594 24.27916016 -5.1328125 24.29296875 C-4.33617187 24.30457031 -3.53953125 24.31617188 -2.71875 24.328125 C-2.71875 23.668125 -2.71875 23.008125 -2.71875 22.328125 C-3.42 22.534375 -4.12125 22.740625 -4.84375 22.953125 C-8.387375 23.41533696 -10.4166606 22.63520206 -13.71875 21.328125 C-14.6675 20.956875 -15.61625 20.585625 -16.59375 20.203125 C-17.295 19.914375 -17.99625 19.625625 -18.71875 19.328125 C-16.66765165 17.20106004 -14.67906429 15.2989838 -12.29296875 13.546875 C-8.68592324 10.43791923 -6.85168739 6.71860653 -4.5625 2.59375 C-2.71875 0.328125 -2.71875 0.328125 0 0 Z " fill="#2A2520" transform="translate(89.71875,134.671875)"/>
<path d="M0 0 C0.50789063 1.05058594 1.01578125 2.10117188 1.5390625 3.18359375 C4.97552307 10.21561028 8.35504361 17.04232072 12.96875 23.3984375 C14 25 14 25 14 27 C9.01101158 25.82612037 7.01341878 22.81687611 4.13671875 18.875 C3 17 3 17 3 15 C2.01 15.33 1.02 15.66 0 16 C0.57764475 19.75137106 1.66542499 22.41761288 3.5625 25.6875 C6.25462912 30.90058239 6.8094926 35.2105909 6 41 C5 44.125 5 44.125 4 46 C-6.80088426 44.57883102 -13.83719745 38.75655257 -21.00390625 30.87890625 C-24.4634683 25.88928348 -25.29196997 20.98538436 -25 15 C-24.01 14.67 -23.02 14.34 -22 14 C-21.525625 13.195625 -21.05125 12.39125 -20.5625 11.5625 C-18.90447019 8.84333111 -17.91563061 8.10592885 -15 7 C-15 6.34 -15 5.68 -15 5 C-14.38511719 4.80664062 -13.77023438 4.61328125 -13.13671875 4.4140625 C-12.32847656 4.15367188 -11.52023438 3.89328125 -10.6875 3.625 C-9.88699219 3.36976562 -9.08648437 3.11453125 -8.26171875 2.8515625 C-0.68807339 0 -0.68807339 0 0 0 Z " fill="#F5F8E2" transform="translate(224,116)"/>
<path d="M0 0 C3.32229826 2.99869778 5.18799793 5.91644597 7.125 9.9375 C7.62257813 10.95714844 8.12015625 11.97679687 8.6328125 13.02734375 C11.38780747 19.01748996 13.22486665 24.32146061 13 31 C11.625 33.6875 11.625 33.6875 9 35 C2.73309705 35.35024607 -3.21389836 33.17491764 -9 31 C-8.7834375 31.61746094 -8.566875 32.23492187 -8.34375 32.87109375 C-4.79712985 43.65873003 -5.47953685 51.50554857 -10 62 C-11.49827525 64.65664328 -12.99121333 66.67403649 -15 69 C-15.66 69 -16.32 69 -17 69 C-17.2475 69.598125 -17.495 70.19625 -17.75 70.8125 C-22.17187278 78.55077736 -33.99184126 82.02343183 -42.125 84.25 C-50.18039272 85.88128921 -60.00388892 85.93704241 -68 84 C-68 83.67 -68 83.34 -68 83 C-65.525 82.505 -65.525 82.505 -63 82 C-63.33 81.34 -63.66 80.68 -64 80 C-63.13217896 79.94054199 -63.13217896 79.94054199 -62.24682617 79.87988281 C-45.61973484 78.68218963 -31.09477953 76.89610368 -19.125 64.125 C-13.38109418 57.03507449 -12.40567214 50.65262015 -12.5625 41.56640625 C-13.22878412 36.13500091 -15.30598241 31.71453079 -18 27 C-15.525 24.525 -15.525 24.525 -13 22 C-10.59250062 22.93193524 -8.21612409 23.89948641 -5.875 24.98828125 C-5.111875 25.34277344 -4.34875 25.69726562 -3.5625 26.0625 C-2.84191406 26.40410156 -2.12132812 26.74570313 -1.37890625 27.09765625 C1.39017213 28.14799632 4.07327664 28.59152206 7 29 C5.41648566 21.62314053 3.36696278 15.08792814 -0.109375 8.375 C-1.11903346 5.68257743 -0.93819476 4.6544047 0 2 C0 1.34 0 0.68 0 0 Z " fill="#221C1D" transform="translate(242,162)"/>
<path d="M0 0 C0.88042969 0.20802246 1.76085937 0.41604492 2.66796875 0.63037109 C8.70736313 1.8711795 14.45494224 2.08128833 20.60546875 2.02880859 C21.65468506 2.02929199 22.70390137 2.02977539 23.78491211 2.03027344 C29.48000247 1.98528782 34.7258979 1.5805878 40.29296875 0.40380859 C45.12083564 -0.52709659 45.12083564 -0.52709659 47.91796875 0.87646484 C49.7169605 2.40185993 51.20383939 3.98610954 52.73046875 5.77880859 C54.05150873 6.7949932 55.37791151 7.80496738 56.73046875 8.77880859 C55.46508506 9.62039395 54.19293096 10.45180608 52.91796875 11.27880859 C52.21027344 11.74287109 51.50257813 12.20693359 50.7734375 12.68505859 C48.73046875 13.77880859 48.73046875 13.77880859 45.73046875 13.77880859 C45.73046875 12.12880859 45.73046875 10.47880859 45.73046875 8.77880859 C43.85993478 8.90915353 43.85993478 8.90915353 41.73046875 9.77880859 C40.39151243 11.44096127 39.05916733 13.10844467 37.73046875 14.77880859 C31.70065845 19.77880859 31.70065845 19.77880859 28.73046875 19.77880859 C28.23546875 16.31380859 28.23546875 16.31380859 27.73046875 12.77880859 C24.44777555 14.26957294 21.79969434 16.1650118 18.98046875 18.40380859 C18.18125 19.03544922 17.38203125 19.66708984 16.55859375 20.31787109 C15.9553125 20.79998047 15.35203125 21.28208984 14.73046875 21.77880859 C10.41352656 18.90084714 8.70396743 16.16459563 6.8203125 11.48583984 C5.84782602 9.57426745 5.84782602 9.57426745 3.609375 9.04052734 C2.98933594 8.95416016 2.36929688 8.86779297 1.73046875 8.77880859 C1.73046875 11.41880859 1.73046875 14.05880859 1.73046875 16.77880859 C-1.8922944 15.4532505 -4.90458473 13.83533904 -8.08203125 11.65380859 C-8.87222656 11.11498047 -9.66242188 10.57615234 -10.4765625 10.02099609 C-11.06824219 9.61107422 -11.65992187 9.20115234 -12.26953125 8.77880859 C-11.54765625 8.22193359 -10.82578125 7.66505859 -10.08203125 7.09130859 C-7.16999213 4.88840041 -7.16999213 4.88840041 -5.14453125 1.90380859 C-2.26953125 -0.22119141 -2.26953125 -0.22119141 0 0 Z " fill="#F1F2DE" transform="translate(104.26953125,232.22119140625)"/>
<path d="M0 0 C5 1 5 1 7.140625 2.04296875 C12.4051705 3.80500925 18.12147948 3.3214042 23.6328125 3.30273438 C29.83377668 3.43439868 33.72304723 4.54163602 38.97705078 7.82641602 C41.75857986 9.44007885 44.39402719 9.9118885 47.5625 10.3125 C48.59503906 10.45300781 49.62757813 10.59351563 50.69140625 10.73828125 C51.83416016 10.86783203 51.83416016 10.86783203 53 11 C52.34 11.33 51.68 11.66 51 12 C50.53045739 15.04581269 50.53045739 15.04581269 50.375 18.5625 C50.30023438 19.76003906 50.22546875 20.95757812 50.1484375 22.19140625 C50.07496094 23.58166016 50.07496094 23.58166016 50 25 C39.20008447 24.29565768 32.24134643 18.83197802 25.12890625 11.01171875 C23.12475863 8.65659034 23.12475863 8.65659034 20 9 C20 10.65 20 12.3 20 14 C20.66 14 21.32 14 22 14 C22.66 15.32 23.32 16.64 24 18 C9.88591967 18.56540084 9.88591967 18.56540084 5 15 C4.34 14.01 3.68 13.02 3 12 C1.07374015 12.11448845 1.07374015 12.11448845 -1 13 C-2.57314972 15.29847487 -2.57314972 15.29847487 -3.75 18.0625 C-4.17796875 18.98160156 -4.6059375 19.90070313 -5.046875 20.84765625 C-5.36140625 21.55792969 -5.6759375 22.26820313 -6 23 C-10.32640329 21.05450816 -12.2875462 18.874934 -15 15 C-14.9375 12.9375 -14.9375 12.9375 -14 11 C-13.649375 10.0925 -13.29875 9.185 -12.9375 8.25 C-12.4734375 7.13625 -12.4734375 7.13625 -12 6 C-11.44570312 6.3609375 -10.89140625 6.721875 -10.3203125 7.09375 C-9.59585938 7.5578125 -8.87140625 8.021875 -8.125 8.5 C-7.40570313 8.9640625 -6.68640625 9.428125 -5.9453125 9.90625 C-4.08139534 11.16336501 -4.08139534 11.16336501 -2 11 C-1.34 7.37 -0.68 3.74 0 0 Z " fill="#A1967B" transform="translate(144,134)"/>
<path d="M0 0 C3.28509647 1.09503216 3.70694377 1.66230012 5.6875 4.3125 C8.85654256 8.1725368 12.3213588 10.30346569 17 12 C17.66 12 18.32 12 19 12 C18.94779297 11.07767578 18.94779297 11.07767578 18.89453125 10.13671875 C18.86746094 9.32847656 18.84039062 8.52023438 18.8125 7.6875 C18.76029297 6.48673828 18.76029297 6.48673828 18.70703125 5.26171875 C19 3 19 3 22 0 C26.455 1.98 26.455 1.98 31 4 C30.73958333 6.50651042 30.47916667 9.01302083 30.21875 11.51953125 C29.95607599 14.08305099 29.95607599 14.08305099 30 17 C11.26645217 19.05478821 -6.29716757 19.42444124 -25 17 C-25.33 14.36 -25.66 11.72 -26 9 C-27.32 8.67 -28.64 8.34 -30 8 C-29.67 6.68 -29.34 5.36 -29 4 C-27.44152344 4.16048828 -27.44152344 4.16048828 -25.8515625 4.32421875 C-16.36566961 5.18367502 -8.25150091 5.50100061 0 0 Z " fill="#483D31" transform="translate(124,152)"/>
<path d="M0 0 C-7.124793 11.15059067 -17.7829198 16.68638637 -30 21 C-31.99045288 21.3862751 -33.98940943 21.73801396 -36 22 C-36.66 18.7 -37.32 15.4 -38 12 C-42.03951214 13.00987804 -42.91079442 13.57301858 -45.75 16.3125 C-50.15071686 20.31016055 -54.86581303 24 -61 24 C-60.85140787 17.01616971 -57.72020855 12.98194096 -53 8 C-46.27459016 2 -46.27459016 2 -42 2 C-41.67 3.65 -41.34 5.3 -41 7 C-32.72153619 7.55189759 -25.26115585 5.41565846 -18.125 1.25 C-12.15360006 -1.97648222 -6.50862172 -1.03036174 0 0 Z " fill="#A2967B" transform="translate(84,141)"/>
<path d="M0 0 C8.39423963 1.03087153 14.62422011 6.84325763 19.87109375 13.12890625 C24.47342608 19.41061158 26.61801349 25.24611064 26.80859375 33.015625 C26.84146484 34.09457031 26.87433594 35.17351563 26.90820312 36.28515625 C26.96897701 38.53766916 27.02631774 40.79027754 27.08007812 43.04296875 C27.40100396 53.22782267 28.62641971 63.42849489 36.15234375 71.046875 C37.57828336 72.23225267 39.06718419 73.34093507 40.5625 74.4375 C41.5525 75.4275 41.5525 75.4275 42.5625 76.4375 C41.5725 76.9325 41.5725 76.9325 40.5625 77.4375 C41.0575 81.8925 41.0575 81.8925 41.5625 86.4375 C39.9125 86.4375 38.2625 86.4375 36.5625 86.4375 C36.315 85.695 36.0675 84.9525 35.8125 84.1875 C34.74171926 81.40458218 34.74171926 81.40458218 32.75 79.625 C23.30420152 70.17920152 23.24915351 58.97705138 23.08398438 46.36914062 C22.8013973 35.48609205 19.89088545 25.52498744 12.58984375 17.18359375 C8.49665446 13.65824575 3.46937163 11.60509863 -1.4375 9.4375 C-1.4375 8.7775 -1.4375 8.1175 -1.4375 7.4375 C-2.0975 7.4375 -2.7575 7.4375 -3.4375 7.4375 C-3.48004356 5.43795254 -3.47830783 3.43708364 -3.4375 1.4375 C-2.4375 0.4375 -2.4375 0.4375 0 0 Z " fill="#4D4632" transform="translate(25.4375,13.5625)"/>
<path d="M0 0 C3 1 3 1 4.1875 3.0625 C4.455625 3.701875 4.72375 4.34125 5 5 C1.18548417 11.13468525 -1.9760405 16.1709275 -8.75 19.25 C-14.41936594 20.55831522 -19.63998472 20.49348537 -25.25 18.9375 C-30.25877115 17.68530721 -32.48664177 18.21179259 -37 20.5625 C-40.02360695 22.01131166 -41.71109809 22.29019723 -45 22 C-44.13375 21.05125 -43.2675 20.1025 -42.375 19.125 C-38.1784444 14.25061594 -34.87322785 8.74645571 -32 3 C-31.20464844 3.15855469 -30.40929687 3.31710938 -29.58984375 3.48046875 C-25.22563253 4.11206841 -20.96655663 4.26084961 -16.5625 4.3125 C-15.33176758 4.35600586 -15.33176758 4.35600586 -14.07617188 4.40039062 C-8.10829291 4.46230796 -5.0330647 3.1241906 0 0 Z " fill="#A1967B" transform="translate(124,133)"/>
<path d="M0 0 C-0.875 5.75 -0.875 5.75 -2 8 C-4.47798938 9.09688777 -7.00548707 9.98448296 -9.5546875 10.90234375 C-11.98941411 11.99524819 -13.19081887 13.0987348 -15 15 C-15.66 15 -16.32 15 -17 15 C-17.268125 15.56332031 -17.53625 16.12664063 -17.8125 16.70703125 C-19.50370044 19.97260579 -21.54926379 22.99900043 -23.5625 26.07421875 C-27.72678645 34.54989959 -27.34391254 43.78606809 -27.390625 53.02929688 C-27.62551393 63.25349015 -30.42312383 70.28310785 -36.8046875 78.171875 C-38.52329014 80.8003261 -38.45638768 82.95741544 -38 86 C-38.33 85.34 -38.66 84.68 -39 84 C-39.99 84 -40.98 84 -42 84 C-41.67 83.01 -41.34 82.02 -41 81 C-41.08077438 79.45693088 -41.18782171 77.91514354 -41.3125 76.375 C-41.38841291 71.1521921 -39.81912524 68.41352438 -36.60546875 64.3984375 C-30.91261407 55.89378355 -31.58211047 47.1333913 -31.6484375 37.26171875 C-31.51931402 27.71734188 -29.32238569 19.98357853 -24 12 C-23.34 12 -22.68 12 -22 12 C-21.94457031 11.42636719 -21.88914063 10.85273438 -21.83203125 10.26171875 C-20.61915241 6.96473824 -18.52719642 5.81721283 -15.6875 3.8125 C-14.72199219 3.11769531 -13.75648438 2.42289063 -12.76171875 1.70703125 C-8.06886106 -1.19364599 -5.37183124 -1.09878366 0 0 Z " fill="#4E4732" transform="translate(241,15)"/>
<path d="M0 0 C7.86749703 7.17330611 12.5373294 15.6278109 15 26 C15.1015625 28.859375 15.1015625 28.859375 15 31 C3.3252597 30.44405999 -3.6895448 25.19526863 -11.53125 16.86328125 C-14.63003981 13.26927345 -17.44682992 9.53007941 -19 5 C-18.67 4.34 -18.34 3.68 -18 3 C-16.205625 3.7425 -16.205625 3.7425 -14.375 4.5 C-10.74742219 5.82669365 -7.88118351 6.79387845 -4 6 C-1.57577814 3.11490087 -1.57577814 3.11490087 0 0 Z " fill="#A1957A" transform="translate(234,160)"/>
<path d="M0 0 C2.25 -0.3125 2.25 -0.3125 5 0 C7.375 2.1875 7.375 2.1875 9 5 C8.6875 7.5625 8.6875 7.5625 8 10 C8.27082397 10.90177979 8.27082397 10.90177979 8.54711914 11.82177734 C9.50682818 16.43769329 6.91654848 21.27980251 5.4375 25.625 C4.93379883 27.18927734 4.93379883 27.18927734 4.41992188 28.78515625 C1.86203284 36.41595371 -1.21438472 44.21438472 -7 50 C-3.24492176 48.74830725 -1.75941479 46.82358723 1 44 C2.94003351 42.10996736 4.78384264 40.60317767 7 39 C9.375 39.1875 9.375 39.1875 11 40 C10.61743687 42.44013241 10.36015026 43.68232901 8.4765625 45.34375 C7.86554687 45.7253125 7.25453125 46.106875 6.625 46.5 C3.75142679 48.40205966 2.0278744 50.19960201 0 53 C-1.9375 54.125 -1.9375 54.125 -4 55 C-4.99 55.495 -4.99 55.495 -6 56 C-7.37563117 56.68781558 -8.77385274 57.33165117 -10.1875 57.9375 C-12.34395107 58.93434552 -12.34395107 58.93434552 -13 62 C-13.99 62 -14.98 62 -16 62 C-16.2475 63.11375 -16.495 64.2275 -16.75 65.375 C-18 69 -18 69 -20.125 70.4375 C-20.74375 70.623125 -21.3625 70.80875 -22 71 C-22 71.66 -22 72.32 -22 73 C-22.66 73 -23.32 73 -24 73 C-22.18704792 67.97317832 -19.39942714 63.85750339 -16.4609375 59.42578125 C-14.82802831 57.18641014 -14.82802831 57.18641014 -15 55 C-15.23976563 54.38253906 -15.47953125 53.76507813 -15.7265625 53.12890625 C-16 51 -16 51 -14.5234375 49.02734375 C-13.81445312 48.33769531 -13.10546875 47.64804688 -12.375 46.9375 C-4.09114442 38.0629695 -1.34107735 26.39483222 2 15 C2.41636719 13.75347656 2.83273438 12.50695312 3.26171875 11.22265625 C4.41309662 7.86116022 4.41309662 7.86116022 2.125 4.6875 C1.42375 3.800625 0.7225 2.91375 0 2 C0 1.34 0 0.68 0 0 Z " fill="#211D1D" transform="translate(28,101)"/>
<path d="M0 0 C0.33 0 0.66 0 1 0 C1.66 2.97 2.32 5.94 3 9 C9.98834761 7.12987881 15.82954271 4.77083501 22 1 C19.3380336 10.54104798 11.25029963 19.55894218 3 25 C-2.02079412 27.34956382 -6.42930783 29 -12 29 C-13.16387132 18.75793242 -7.2353376 9.76016243 -1.453125 1.765625 C-0.97359375 1.18296875 -0.4940625 0.6003125 0 0 Z " fill="#A2957A" transform="translate(17,162)"/>
<path d="M0 0 C1.35617432 0.1249585 1.35617432 0.1249585 2.73974609 0.25244141 C3.70992676 0.34831543 4.68010742 0.44418945 5.6796875 0.54296875 C7.17169678 0.6829126 7.17169678 0.6829126 8.69384766 0.82568359 C14.46085219 1.38000684 20.19136878 2.06102024 25.9296875 2.85546875 C40.05467798 4.66169676 53.69411411 3.50678184 67.7421875 1.73046875 C70.07944692 1.44233004 72.41700323 1.1569433 74.75495911 0.87451172 C76.19120845 0.70027116 77.62702876 0.52244118 79.06230164 0.34033203 C88.73338605 -0.85356784 88.73338605 -0.85356784 92.3671875 1.73046875 C93.45 2.72046875 93.45 2.72046875 94.5546875 3.73046875 C94.2246875 4.72046875 93.8946875 5.71046875 93.5546875 6.73046875 C92.69363403 6.48139771 92.69363403 6.48139771 91.81518555 6.22729492 C89.54009454 5.72726142 87.70621641 5.66866327 85.38671875 5.78125 C84.18414429 5.83841187 84.18414429 5.83841187 82.95727539 5.89672852 C82.10254639 5.94498779 81.24781738 5.99324707 80.3671875 6.04296875 C79.47443115 6.08929443 78.5816748 6.13562012 77.66186523 6.18334961 C72.10621925 6.49975735 66.62958914 7.04810349 61.1171875 7.79296875 C47.70620086 9.54604934 34.15951817 9.46867126 20.81640625 7.2421875 C11.13619063 5.72349499 1.33364613 5.56927712 -8.4453125 5.73046875 C-6.55718684 0.47069012 -5.55460869 -0.52361282 0 0 Z " fill="#595254" transform="translate(83.4453125,171.26953125)"/>
<path d="M0 0 C4.38976728 1.46325576 6.46712632 4.1973655 9 8 C10.58658568 11.59420704 11.78856765 15.26658577 13 19 C13.65394321 20.67169989 14.3168346 22.34002793 15 24 C11.26512223 23.5020163 9.18762365 23.12508244 6 21 C-7.24449902 17.90388335 -21.47965332 17.90993894 -35 17 C-35.66 13.7 -36.32 10.4 -37 7 C-24.43343653 5.06520898 -24.43343653 5.06520898 -19.5625 8.3125 C-18.37219967 9.20460915 -17.18434911 10.10000511 -16 11 C-10.31576916 13.45455423 -4.08510497 14.07443387 2 15 C1.505 13.2365625 1.505 13.2365625 1 11.4375 C0.0030467 7.4988324 -0.16869203 4.04860871 0 0 Z " fill="#473D31" transform="translate(199,150)"/>
<path d="M0 0 C0.66 0 1.32 0 2 0 C3.15625 1.3203125 3.15625 1.3203125 4.5 3.125 C9.67769869 9.37874854 17.39698106 13.36818575 25 16 C28.29285101 16.25269417 28.29285101 16.25269417 31 16 C31.3690205 26.55808656 31.3690205 26.55808656 29 31 C18.19911574 29.57883102 11.16280255 23.75655257 3.99609375 15.87890625 C0.5365317 10.88928348 -0.29196997 5.98538436 0 0 Z " fill="#A1967B" transform="translate(199,131)"/>
<path d="M0 0 C0.66 0 1.32 0 2 0 C4.06642357 4.99385697 5.26027775 8.53416723 5 14 C5.33 14.66 5.66 15.32 6 16 C6.43281288 22.45193159 6.19167825 28.60921549 4.53515625 34.8671875 C3.14063742 40.42490487 2.87061524 45.68465033 2.9375 51.375 C2.94201172 52.11105469 2.94652344 52.84710938 2.95117188 53.60546875 C2.96284858 55.40368158 2.98077989 57.20185197 3 59 C2.34 59 1.68 59 1 59 C1.33 61.64 1.66 64.28 2 67 C1.01 67.495 1.01 67.495 0 68 C-3.6718243 57.6839222 -4.87646669 46.12601722 -1.5 35.5625 C1.75269496 25.35736225 0.81119475 13.21568093 -2 3 C-1.34 2.67 -0.68 2.34 0 2 C0 1.34 0 0.68 0 0 Z " fill="#221E1E" transform="translate(25,29)"/>
<path d="M0 0 C0.66 0.33 1.32 0.66 2 1 C1.01 3.97 0.02 6.94 -1 10 C-2.00788574 10.07516846 -3.01577148 10.15033691 -4.05419922 10.2277832 C-7.83848087 10.51299403 -11.62148674 10.81288681 -15.40429688 11.11694336 C-17.03322237 11.24587313 -18.66245702 11.37096272 -20.29199219 11.49194336 C-29.23024678 12.15819976 -37.50284699 12.95919493 -46 16 C-47.32954609 16.34813228 -48.66197701 16.6860201 -50 17 C-48.93359375 14.09765625 -48.93359375 14.09765625 -47 11 C-43.84765625 9.93359375 -43.84765625 9.93359375 -40.0625 9.4375 C-33.7840723 8.47674145 -28.47383193 6.79626176 -22.68359375 4.0859375 C-17.26068593 1.89151483 -12.11278706 1.93641795 -6.3671875 2.16015625 C-3.77130963 1.98452755 -2.28483501 1.17183598 0 0 Z " fill="#463C32" transform="translate(89,157)"/>
<path d="M0 0 C0.33 0 0.66 0 1 0 C1.12117187 0.9178125 1.24234375 1.835625 1.3671875 2.78125 C1.53476563 4.0084375 1.70234375 5.235625 1.875 6.5 C2.03742188 7.7065625 2.19984375 8.913125 2.3671875 10.15625 C2.81077719 12.85064664 3.32103799 15.25894153 4.046875 17.86328125 C5.23781582 22.47189854 5.38232268 26.944237 5.375 31.6875 C5.37693359 32.99219238 5.37693359 32.99219238 5.37890625 34.32324219 C5.25770332 41.77446789 3.83240658 48.07071961 1 55 C0.67 54.34 0.34 53.68 0 53 C-1.485 53.495 -1.485 53.495 -3 54 C-3 50 -3 50 -2 49 C-1.59326075 46.66124933 -1.27424358 44.35600168 -1 42 C-0.89429688 41.15566406 -0.78859375 40.31132813 -0.6796875 39.44140625 C0.46418114 29.10259355 -1.01862461 20.25272347 -3.57421875 10.19921875 C-4.03740452 6.71895133 -3.59799891 5.07484989 -2 2 C-1.34 2 -0.68 2 0 2 C0 1.34 0 0.68 0 0 Z " fill="#201B1B" transform="translate(235,46)"/>
<path d="M0 0 C2.18408203 0.23339844 2.18408203 0.23339844 4.8828125 0.859375 C10.93903787 2.08680158 16.71017995 2.30561049 22.875 2.25 C24.44121094 2.24419922 24.44121094 2.24419922 26.0390625 2.23828125 C33.51918429 2.15454854 40.67456368 1.6024392 48 0 C48.495 0.99 48.495 0.99 49 2 C48.21496094 2.24234375 47.42992187 2.4846875 46.62109375 2.734375 C39.59417998 4.92781385 39.59417998 4.92781385 33.0625 8.25 C29.96938202 10.01749599 28.48083393 10.42191926 25 10 C24.67 8.68 24.34 7.36 24 6 C23.29875 6.680625 22.5975 7.36125 21.875 8.0625 C19 10 19 10 15.8125 9.875 C13 9 13 9 11 7 C9.01444934 6.80469994 7.02886856 6.60968585 5.04296875 6.41796875 C1.99913745 5.79523462 0.18939554 4.12097692 -2 2 C-1.34 1.34 -0.68 0.68 0 0 Z " fill="#A29980" transform="translate(102,232)"/>
<path d="M0 0 C4 0 4 0 5.5625 1.42578125 C6.036875 2.04839844 6.51125 2.67101562 7 3.3125 C9.13285115 5.98668392 11.10886891 8.10964506 14 10 C13.01 10.495 13.01 10.495 12 11 C12.33 13.97 12.66 16.94 13 20 C11.35 20 9.7 20 8 20 C7.7525 19.2575 7.505 18.515 7.25 17.75 C5.88846474 14.75462243 4.37967057 13.23544811 2 11 C0.1875 9.1875 0.1875 9.1875 -1 7 C-0.6875 3.25 -0.6875 3.25 0 0 Z " fill="#4E4633" transform="translate(54,80)"/>
<path d="M0 0 C2.475 0.495 2.475 0.495 5 1 C6.66666667 6 8.33333333 11 10 16 C9.01 16 8.02 16 7 16 C6.34 16.66 5.68 17.32 5 18 C4.15321949 16.13103445 3.32313789 14.25449819 2.5 12.375 C2.0359375 11.33085937 1.571875 10.28671875 1.09375 9.2109375 C-0.02767398 5.91875709 -0.207138 3.44884777 0 0 Z " fill="#2C2B25" transform="translate(188,122)"/>
<path d="M0 0 C0.53625 0.268125 1.0725 0.53625 1.625 0.8125 C1.24080162 3.2578708 0.96627356 4.50360368 -0.8984375 6.19140625 C-1.81496094 6.77728516 -1.81496094 6.77728516 -2.75 7.375 C-5.25115166 8.99808778 -7.32359328 10.64153277 -9.375 12.8125 C-10.035 12.1525 -10.695 11.4925 -11.375 10.8125 C-12.695 11.8025 -14.015 12.7925 -15.375 13.8125 C-16.035 13.1525 -16.695 12.4925 -17.375 11.8125 C-16.5396875 11.4721875 -16.5396875 11.4721875 -15.6875 11.125 C-12.72808639 9.44533282 -10.75091214 7.24498148 -8.375 4.8125 C-3.17735036 -0.25084345 -3.17735036 -0.25084345 0 0 Z " fill="#2E2A26" transform="translate(37.375,140.1875)"/>
<path d="M0 0 C2.375 0.25 2.375 0.25 5 1 C7.17831524 3.90442032 7.19715281 6.45124947 7 10 C5.948125 9.814375 4.89625 9.62875 3.8125 9.4375 C0.42880118 9.04920669 -1.76425888 9.11752515 -5 10 C-5.66 9.01 -6.32 8.02 -7 7 C-6.21625 6.401875 -5.4325 5.80375 -4.625 5.1875 C-1.85425677 3.08914751 -1.85425677 3.08914751 0 0 Z " fill="#1E1A1B" transform="translate(119,54)"/>
<path d="M0 0 C2.64 0 5.28 0 8 0 C11 5.625 11 5.625 11 9 C6.545 9.495 6.545 9.495 2 10 C1.34 6.7 0.68 3.4 0 0 Z " fill="#726051" transform="translate(162,157)"/>
<path d="M0 0 C3.21852831 0.63065757 5.50801069 1.78020695 8.25 3.5625 C8.95640625 4.01753906 9.6628125 4.47257813 10.390625 4.94140625 C11.18726563 5.46541016 11.18726563 5.46541016 12 6 C9.52414762 8.65269897 7.40973899 10.68010103 4 12 C3.01 12 2.02 12 1 12 C1.04125 11.236875 1.0825 10.47375 1.125 9.6875 C1.22080824 6.77281584 1.22080824 6.77281584 -1 4 C-0.01 3.01 0.98 2.02 2 1 C1.34 0.67 0.68 0.34 0 0 Z " fill="#EAEBDA" transform="translate(149,234)"/>
<path d="M0 0 C0.33 0.66 0.66 1.32 1 2 C0.00390625 3.9453125 0.00390625 3.9453125 -1.4375 6.125 C-1.91058594 6.84945312 -2.38367187 7.57390625 -2.87109375 8.3203125 C-3.24363281 8.87460938 -3.61617187 9.42890625 -4 10 C-4.33 9.34 -4.66 8.68 -5 8 C-5.66 8 -6.32 8 -7 8 C-7 8.99 -7 9.98 -7 11 C-9.31 11.33 -11.62 11.66 -14 12 C-14 11.34 -14 10.68 -14 10 C-14.66 10 -15.32 10 -16 10 C-16 9.34 -16 8.68 -16 8 C-15.18015625 7.67386719 -14.3603125 7.34773437 -13.515625 7.01171875 C-12.43796875 6.57472656 -11.3603125 6.13773438 -10.25 5.6875 C-9.18265625 5.25824219 -8.1153125 4.82898438 -7.015625 4.38671875 C-4.3347085 3.15391388 -2.2616808 1.87192513 0 0 Z " fill="#9D9179" transform="translate(38,163)"/>
<path d="M0 0 C0.99 1.32 1.98 2.64 3 4 C2.34 4 1.68 4 1 4 C1.495 4.433125 1.99 4.86625 2.5 5.3125 C4 7 4 7 4 10 C7.465 9.505 7.465 9.505 11 9 C10.01 9.495 10.01 9.495 9 10 C9 10.66 9 11.32 9 12 C9.66 12.66 10.32 13.32 11 14 C3.375 15.25 3.375 15.25 0 13 C-0.29296875 9.9609375 -0.29296875 9.9609375 -0.1875 6.375 C-0.16042969 5.18648437 -0.13335938 3.99796875 -0.10546875 2.7734375 C-0.07066406 1.85820312 -0.03585937 0.94296875 0 0 Z " fill="#1F1A1A" transform="translate(0,182)"/>
<path d="M0 0 C0.66 0.33 1.32 0.66 2 1 C1.67 1.598125 1.34 2.19625 1 2.8125 C-0.20787988 5.05386471 -0.20787988 5.05386471 0 8 C0.99 8.33 1.98 8.66 3 9 C-2.10334017 10.905247 -6.46342706 12.42589023 -12 12 C-8 8 -4 4 0 0 Z " fill="#302E26" transform="translate(215,110)"/>
<path d="M0 0 C0.66 0.33 1.32 0.66 2 1 C1.01 3.97 0.02 6.94 -1 10 C-3.64 9.67 -6.28 9.34 -9 9 C-9 7.35 -9 5.7 -9 4 C-7.54618103 3.30300448 -6.08677047 2.61766134 -4.625 1.9375 C-3.40683594 1.36322266 -3.40683594 1.36322266 -2.1640625 0.77734375 C-1.44992188 0.52082031 -0.73578125 0.26429688 0 0 Z " fill="#6E5E50" transform="translate(89,157)"/>
<path d="M0 0 C0.66 0.33 1.32 0.66 2 1 C2.73075648 3.3140622 3.40138258 5.64828869 4 8 C3.34 8 2.68 8 2 8 C2.66 11.63 3.32 15.26 4 19 C1.34589702 16.34589702 0.23897673 14.85713881 -1.25 11.5625 C-1.78367188 10.41974609 -1.78367188 10.41974609 -2.328125 9.25390625 C-3.10338367 6.65318385 -2.96804268 5.50764246 -2 3 C-1.34 2.01 -0.68 1.02 0 0 Z " fill="#EAEBD6" transform="translate(197,123)"/>
<path d="M0 0 C3.49873271 1.39655297 4.70891831 2.71260484 6.25 6.125 C6.58515625 6.84945312 6.9203125 7.57390625 7.265625 8.3203125 C7.62914062 9.15175781 7.62914062 9.15175781 8 10 C7.34 10 6.68 10 6 10 C5.67 10.99 5.34 11.98 5 13 C4.34 13 3.68 13 3 13 C1.35 9.7 -0.3 6.4 -2 3 C-1.34 2.01 -0.68 1.02 0 0 Z " fill="#292423" transform="translate(229,121)"/>
<path d="M0 0 C3.28788824 3.11016455 5.83735988 6.01618925 8 10 C7.01 10.33 6.02 10.66 5 11 C4.67 11.66 4.34 12.32 4 13 C3.01 12.67 2.02 12.34 1 12 C1.33 10.35 1.66 8.7 2 7 C1.01 7 0.02 7 -1 7 C-1.66 7.66 -2.32 8.32 -3 9 C-5.625 8.625 -5.625 8.625 -8 8 C-7.13375 7.690625 -7.13375 7.690625 -6.25 7.375 C-3.18589456 5.50249112 -1.84460032 3.03041481 0 0 Z " fill="#9D9177" transform="translate(234,160)"/>
<path d="M0 0 C-1.58960332 6.23440168 -3.27600901 12.16287645 -6 18 C-6.9016858 14.91566208 -7.13468049 12.14658179 -7.125 8.9375 C-7.12757812 8.08027344 -7.13015625 7.22304687 -7.1328125 6.33984375 C-7 4 -7 4 -6 1 C-3.90006779 0.25486277 -2.22568901 0 0 0 Z " fill="#292623" transform="translate(34,123)"/>
<path d="M0 0 C1.765625 0.16015625 1.765625 0.16015625 4 1 C5.921875 3.43359375 5.921875 3.43359375 7.75 6.4375 C8.67039063 7.92056641 8.67039063 7.92056641 9.609375 9.43359375 C11 12 11 12 11 14 C6.47313406 12.63959469 4.74867445 10.79209034 2.1875 6.875 C1.58292969 5.96492187 0.97835937 5.05484375 0.35546875 4.1171875 C-0.09183594 3.41851562 -0.53914062 2.71984375 -1 2 C-0.67 1.34 -0.34 0.68 0 0 Z " fill="#EDEEDF" transform="translate(227,129)"/>
<path d="M0 0 C0.66 0 1.32 0 2 0 C2 3.3 2 6.6 2 10 C-1.63 10 -5.26 10 -9 10 C-9 7 -9 7 -7 4 C-6.67 4.99 -6.34 5.98 -6 7 C-4.03243548 6.96877057 -4.03243548 6.96877057 -2 6 C-0.6954344 3.00384054 -0.6954344 3.00384054 0 0 Z " fill="#FBF9E9" transform="translate(103,75)"/>
<path d="M0 0 C5.5631769 0.48375451 5.5631769 0.48375451 7.375 2.625 C8.20915334 5.7947827 8.12542189 8.73903092 8 12 C7.01 12 6.02 12 5 12 C4.67 9.69 4.34 7.38 4 5 C2.35 4.67 0.7 4.34 -1 4 C-0.67 2.68 -0.34 1.36 0 0 Z " fill="#726458" transform="translate(95,156)"/>
<path d="M0 0 C0.90105469 0.00902344 1.80210937 0.01804687 2.73046875 0.02734375 C3.41753906 0.03894531 4.10460937 0.05054687 4.8125 0.0625 C4.8125 2.0425 4.8125 4.0225 4.8125 6.0625 C0.5225 5.0725 -3.7675 4.0825 -8.1875 3.0625 C-8.1875 2.4025 -8.1875 1.7425 -8.1875 1.0625 C-5.17259443 0.05753148 -3.14568308 -0.04085303 0 0 Z " fill="#2A2926" transform="translate(175.1875,71.9375)"/>
<path d="M0 0 C0.66 0.99 1.32 1.98 2 3 C-2.70406799 4.86540627 -6.94744036 6.36843005 -12 7 C-12 5 -12 5 -10.625 3.375 C-9 2 -9 2 -7 2 C-7 1.34 -7 0.68 -7 0 C-3.98968256 -0.93423645 -3.13349732 -1.04449911 0 0 Z " fill="#1D191A" transform="translate(154,247)"/>
<path d="M0 0 C0.99 0.33 1.98 0.66 3 1 C1.33333333 2.66666667 -0.33333333 4.33333333 -2 6 C-2.7115625 6.8971875 -2.7115625 6.8971875 -3.4375 7.8125 C-5.84793852 9.64443328 -8.07810726 9.19479285 -11 9 C-11.33 8.01 -11.66 7.02 -12 6 C-10.329375 5.87625 -10.329375 5.87625 -8.625 5.75 C-4.94246056 5.42126213 -4.94246056 5.42126213 -3.5625 2.9375 C-3.376875 2.298125 -3.19125 1.65875 -3 1 C-2.01 1.33 -1.02 1.66 0 2 C0 1.34 0 0.68 0 0 Z " fill="#282721" transform="translate(93,68)"/>
<path d="M0 0 C2.1165563 3.17483445 2.22929149 3.66699005 1.9765625 7.23046875 C1.925 8.03291016 1.8734375 8.83535156 1.8203125 9.66210938 C1.72363281 10.91217773 1.72363281 10.91217773 1.625 12.1875 C1.56828125 13.03248047 1.5115625 13.87746094 1.453125 14.74804688 C1.31179176 16.83271217 1.1571675 18.91646866 1 21 C0.67 21 0.34 21 0 21 C-0.33 18.36 -0.66 15.72 -1 13 C-1.99 13.495 -1.99 13.495 -3 14 C-3 11.36 -3 8.72 -3 6 C-2.34 5.67 -1.68 5.34 -1 5 C-0.34444881 2.47266765 -0.34444881 2.47266765 0 0 Z " fill="#1C1819" transform="translate(56,44)"/>
<path d="M0 0 C3.49255468 3.13434395 5.73200974 5.17617535 6 10 C4.10511048 11.89488952 1.42860854 11.18019112 -1.08984375 11.23046875 C-3 11 -3 11 -5 9 C-4.38125 8.71125 -3.7625 8.4225 -3.125 8.125 C-0.86674235 7.06279958 -0.86674235 7.06279958 1 5 C0.67958603 2.39719432 0.67958603 2.39719432 0 0 Z " fill="#1D191B" transform="translate(241,138)"/>
<path d="M0 0 C1.20628008 2.33214148 2.1654738 4.49642139 3 7 C2.071875 7.7425 1.14375 8.485 0.1875 9.25 C-2.27126958 11.29025561 -4.21647549 13.32471323 -6 16 C-6.99 15.67 -7.98 15.34 -9 15 C-8.443125 14.38125 -7.88625 13.7625 -7.3125 13.125 C-4.27521218 9.020557 -2.18059061 4.60247609 0 0 Z " fill="#E5E7D6" transform="translate(29,136)"/>
<path d="M0 0 C1.32 0.33 2.64 0.66 4 1 C4 2.98 4 4.96 4 7 C2.68 7 1.36 7 0 7 C0 7.66 0 8.32 0 9 C-0.99 8.67 -1.98 8.34 -3 8 C-3.33 7.01 -3.66 6.02 -4 5 C-2.0625 2.3125 -2.0625 2.3125 0 0 Z " fill="#312E2A" transform="translate(147,240)"/>
<path d="M0 0 C2.42348595 0.08655307 3.68385658 0.6766715 5.375 2.40625 C6.62094897 3.90705217 7.81389216 5.45147031 9 7 C6.50935112 7.68707555 4.62113708 8 2 8 C2 7.34 2 6.68 2 6 C1.34 6 0.68 6 0 6 C-0.38218767 4.34385343 -0.71395102 2.67542976 -1 1 C-0.67 0.67 -0.34 0.34 0 0 Z " fill="#332B23" transform="translate(164,142)"/>
<path d="M0 0 C0.66 0.33 1.32 0.66 2 1 C0.68 3.31 -0.64 5.62 -2 8 C-4.64 8 -7.28 8 -10 8 C-9.67 7.34 -9.34 6.68 -9 6 C-8.34 6 -7.68 6 -7 6 C-7.33 4.68 -7.66 3.36 -8 2 C-7.01 1.67 -6.02 1.34 -5 1 C-4.34 1.66 -3.68 2.32 -3 3 C-2.01 2.01 -1.02 1.02 0 0 Z " fill="#312F2A" transform="translate(200,80)"/>
<path d="M0 0 C0.66 0.33 1.32 0.66 2 1 C2 2.32 2 3.64 2 5 C1.01 5 0.02 5 -1 5 C-1.2475 6.11375 -1.495 7.2275 -1.75 8.375 C-3 12 -3 12 -5.125 13.4375 C-5.74375 13.623125 -6.3625 13.80875 -7 14 C-7 14.66 -7 15.32 -7 16 C-7.66 16 -8.32 16 -9 16 C-7.56691865 12.04093183 -5.66858051 8.71281819 -3.375 5.1875 C-2.74335938 4.21167969 -2.11171875 3.23585937 -1.4609375 2.23046875 C-0.73777344 1.12638672 -0.73777344 1.12638672 0 0 Z " fill="#1A1719" transform="translate(13,158)"/>
<path d="M0 0 C2.75992564 4.85177405 2.68988832 9.7408724 1.546875 15.140625 C1.08163776 16.7756016 0.54780999 18.39080815 0 20 C-2.18491741 16.52983705 -1.86932413 14.9119586 -1 11 C-0.95934952 8.65853209 -0.99955317 6.32911659 -1.0625 3.98828125 C-1 2 -1 2 0 0 Z " fill="#1D1819" transform="translate(234,199)"/>
<path d="M0 0 C0.33 0 0.66 0 1 0 C1.33 2.97 1.66 5.94 2 9 C1.01 9 0.02 9 -1 9 C-1 8.34 -1 7.68 -1 7 C-3.52259061 8.97420135 -3.9929808 9.96745642 -4.6875 13.1875 C-4.790625 14.115625 -4.89375 15.04375 -5 16 C-5.99 15.01 -6.98 14.02 -8 13 C-7.23302204 11.58124235 -6.46123222 10.16508548 -5.6875 8.75 C-5.04361328 7.56664062 -5.04361328 7.56664062 -4.38671875 6.359375 C-3.0564685 4.09607599 -1.66280463 2.03076419 0 0 Z " fill="#978E7A" transform="translate(17,162)"/>
<path d="M0 0 C-0.99 0.495 -0.99 0.495 -2 1 C-1.67 3.97 -1.34 6.94 -1 10 C-2.65 10 -4.3 10 -6 10 C-6 8.35 -6 6.7 -6 5 C-5.34 5 -4.68 5 -4 5 C-4 4.34 -4 3.68 -4 3 C-4.99 2.67 -5.98 2.34 -7 2 C-5.26578631 -1.46842738 -3.40984787 -1.13661596 0 0 Z " fill="#5E5945" transform="translate(68,90)"/>
<path d="M0 0 C1.65 0.33 3.3 0.66 5 1 C4.25 6.75 4.25 6.75 2 9 C1.01 9 0.02 9 -1 9 C-0.67 6.03 -0.34 3.06 0 0 Z " fill="#2D2C25" transform="translate(98,74)"/>
<path d="M0 0 C5.28 0.33 10.56 0.66 16 1 C16 1.33 16 1.66 16 2 C15.30132812 2.04898438 14.60265625 2.09796875 13.8828125 2.1484375 C12.97273437 2.22320312 12.06265625 2.29796875 11.125 2.375 C10.22007812 2.44460937 9.31515625 2.51421875 8.3828125 2.5859375 C5.82058097 2.79568132 5.82058097 2.79568132 4 5 C0.375 4.625 0.375 4.625 -3 4 C-2.67 3.34 -2.34 2.68 -2 2 C-1.34 2 -0.68 2 0 2 C0 1.34 0 0.68 0 0 Z " fill="#302828" transform="translate(175,240)"/>
<path d="M0 0 C0.66 0.33 1.32 0.66 2 1 C1.34 4.63 0.68 8.26 0 12 C-1.32 12 -2.64 12 -4 12 C-3.28571429 3.42857143 -3.28571429 3.42857143 0 0 Z " fill="#6E5F50" transform="translate(153,156)"/>
<path d="M0 0 C-3.465 2.97 -3.465 2.97 -7 6 C-8.32 4.68 -9.64 3.36 -11 2 C-7.50078951 0.05599417 -3.80583038 -1.90291519 0 0 Z " fill="#EBEBD5" transform="translate(215,111)"/>
<path d="M0 0 C1.32 0.66 2.64 1.32 4 2 C3.25 3.9375 3.25 3.9375 2 6 C-0.125 6.75 -0.125 6.75 -2 7 C-2.33 6.34 -2.66 5.68 -3 5 C-1.5625 2.375 -1.5625 2.375 0 0 Z " fill="#29221C" transform="translate(81,145)"/>
<path d="M0 0 C2.64 1.32 5.28 2.64 8 4 C7.01 4.66 6.02 5.32 5 6 C4.01 5.34 3.02 4.68 2 4 C1.67 4.99 1.34 5.98 1 7 C0.01 6.34 -0.98 5.68 -2 5 C-1.34 3.35 -0.68 1.7 0 0 Z " fill="#E9EADA" transform="translate(37,114)"/>
<path d="M0 0 C0.66 0.66 1.32 1.32 2 2 C0.39743892 2.50512244 -1.20711792 3.00391627 -2.8125 3.5 C-4.15248047 3.91765625 -4.15248047 3.91765625 -5.51953125 4.34375 C-8 5 -8 5 -11 5 C-11.33 4.01 -11.66 3.02 -12 2 C-10.04434742 1.61126172 -8.08533496 1.23939167 -6.125 0.875 C-5.03445312 0.66617188 -3.94390625 0.45734375 -2.8203125 0.2421875 C-1.88960937 0.16226563 -0.95890625 0.08234375 0 0 Z " fill="#96907F" transform="translate(149,232)"/>
<path d="M0 0 C5.94 1.485 5.94 1.485 12 3 C12.33 2.34 12.66 1.68 13 1 C13 1.99 13 2.98 13 4 C9.47826594 5.5093146 7.49912535 6.0941746 3.6875 5.375 C2.3571875 4.694375 2.3571875 4.694375 1 4 C0.67 2.68 0.34 1.36 0 0 Z " fill="#302822" transform="translate(237,188)"/>
<path d="M0 0 C0.66 0.33 1.32 0.66 2 1 C1.8125 2.875 1.8125 2.875 1 5 C-1.5625 6.25 -1.5625 6.25 -4 7 C-4.33 5.68 -4.66 4.36 -5 3 C-2.625 1.4375 -2.625 1.4375 0 0 Z " fill="#1E1919" transform="translate(139,250)"/>
<path d="M0 0 C0 0.66 0 1.32 0 2 C-2.046875 3.40234375 -2.046875 3.40234375 -4.75 4.9375 C-8.00075249 6.79575179 -11.04959258 8.69068578 -14 11 C-12.53185858 7.41297339 -10.61565711 5.59626852 -7.5625 3.25 C-6.78003906 2.63640625 -5.99757813 2.0228125 -5.19140625 1.390625 C-3 0 -3 0 0 0 Z " fill="#7C6C65" transform="translate(43,179)"/>
<path d="M0 0 C0.33 0.66 0.66 1.32 1 2 C1.66 2 2.32 2 3 2 C3.33 3.98 3.66 5.96 4 8 C2.35 8.33 0.7 8.66 -1 9 C-0.67 6.03 -0.34 3.06 0 0 Z " fill="#231E1A" transform="translate(19,159)"/>
<path d="M0 0 C0.66 0 1.32 0 2 0 C2 1.65 2 3.3 2 5 C-1.33333333 6.66666667 -4.66666667 8.33333333 -8 10 C-7.04367001 8.70684939 -6.08486149 7.41553147 -5.125 6.125 C-4.59132813 5.40570313 -4.05765625 4.68640625 -3.5078125 3.9453125 C-2 2 -2 2 0 0 Z " fill="#1A1819" transform="translate(21,142)"/>
<path d="M0 0 C3.3 0 6.6 0 10 0 C8.68 0.33 7.36 0.66 6 1 C6 1.66 6 2.32 6 3 C3.5 4.625 3.5 4.625 1 6 C0.67 4.02 0.34 2.04 0 0 Z " fill="#796960" transform="translate(183,173)"/>
<path d="M0 0 C0.12375 0.639375 0.2475 1.27875 0.375 1.9375 C0.58125 2.618125 0.7875 3.29875 1 4 C1.66 4.33 2.32 4.66 3 5 C2.01 5 1.02 5 0 5 C0 3.35 0 1.7 0 0 Z M1 6 C1.66 7.32 2.32 8.64 3 10 C1.35 10.33 -0.3 10.66 -2 11 C-2.66 9.68 -3.32 8.36 -4 7 C-1 6 -1 6 1 6 Z " fill="#342D25" transform="translate(22,161)"/>
<path d="M0 0 C2 1 4 2 6 3 C6.33 2.01 6.66 1.02 7 0 C7 1.32 7 2.64 7 4 C5.68 4 4.36 4 3 4 C3 4.99 3 5.98 3 7 C1.68 6.34 0.36 5.68 -1 5 C-0.67 3.35 -0.34 1.7 0 0 Z " fill="#332B26" transform="translate(132,154)"/>
<path d="M0 0 C0.66 0.33 1.32 0.66 2 1 C2 5 2 5 -0.1875 7.3125 C-3 9 -3 9 -5.8125 8.75 C-6.8953125 8.37875 -6.8953125 8.37875 -8 8 C-7.13375 7.690625 -7.13375 7.690625 -6.25 7.375 C-3.18589456 5.50249112 -1.84460032 3.03041481 0 0 Z " fill="#8E8671" transform="translate(234,160)"/>
<path d="M0 0 C4.62 0 9.24 0 14 0 C13.01 0.495 13.01 0.495 12 1 C12 1.99 12 2.98 12 4 C10.68 4 9.36 4 8 4 C8 3.01 8 2.02 8 1 C5.36 1 2.72 1 0 1 C0 0.67 0 0.34 0 0 Z " fill="#988D77" transform="translate(120,235)"/>
<path d="M0 0 C2 2 2 2 2 6 C-4.625 5.25 -4.625 5.25 -8 3 C-7.01 3 -6.02 3 -5 3 C-4.67 2.34 -4.34 1.68 -4 1 C-3.67 1.66 -3.34 2.32 -3 3 C-0.83333333 2.16666667 -0.83333333 2.16666667 0 0 Z " fill="#EDEED6" transform="translate(227,142)"/>
<path d="M0 0 C2.31 0.33 4.62 0.66 7 1 C6.67 2.65 6.34 4.3 6 6 C5.01 6.33 4.02 6.66 3 7 C2.01 4.69 1.02 2.38 0 0 Z " fill="#282320" transform="translate(242,170)"/>
<path d="M0 0 C0.99 0 1.98 0 3 0 C3.0825 0.78375 3.165 1.5675 3.25 2.375 C3.72806339 5.14749104 3.72806339 5.14749104 6.0625 6.3125 C6.701875 6.539375 7.34125 6.76625 8 7 C6.02 7.33 4.04 7.66 2 8 C0.74335022 5.09399739 0 3.20395416 0 0 Z " fill="#A9A287" transform="translate(39,143)"/>
<path d="M0 0 C0.33 0.66 0.66 1.32 1 2 C1.66 2.33 2.32 2.66 3 3 C2.21625 3.45375 1.4325 3.9075 0.625 4.375 C-2.03698031 5.88428742 -2.03698031 5.88428742 -4 8 C-4 7.34 -4 6.68 -4 6 C-5.32 6.33 -6.64 6.66 -8 7 C-5.4837822 4.39391727 -2.94865641 2.10618315 0 0 Z " fill="#988E78" transform="translate(38,144)"/>
<path d="M0 0 C1.98 0 3.96 0 6 0 C4.68775452 3.93673644 3.08089673 6.22719294 0 9 C-0.33 8.01 -0.66 7.02 -1 6 C-0.01 6 0.98 6 2 6 C2 4.35 2 2.7 2 1 C1.34 0.67 0.68 0.34 0 0 Z " fill="#2D2B25" transform="translate(21,141)"/>
<path d="M0 0 C0.66 0 1.32 0 2 0 C2.125 6.75 2.125 6.75 1 9 C0.34 9 -0.32 9 -1 9 C-1.625 6.1875 -1.625 6.1875 -2 3 C-1.34 2.01 -0.68 1.02 0 0 Z " fill="#231E1C" transform="translate(233,48)"/>
<path d="M0 0 C1.65 0.33 3.3 0.66 5 1 C4.67 2.65 4.34 4.3 4 6 C2.68 5.34 1.36 4.68 0 4 C0 2.66666667 0 1.33333333 0 0 Z " fill="#1E1C1A" transform="translate(90,242)"/>
<path d="M0 0 C3.08089673 2.77280706 4.68775452 5.06326356 6 9 C3.5625 8.3125 3.5625 8.3125 1 7 C0.20087384 4.54115028 0 2.56909202 0 0 Z " fill="#E3E2D7" transform="translate(232,134)"/>
<path d="M0 0 C0.33 0.99 0.66 1.98 1 3 C0 4 0 4 -3.0625 4.0625 C-4.031875 4.041875 -5.00125 4.02125 -6 4 C-6.33 3.01 -6.66 2.02 -7 1 C-4.50935112 0.31292445 -2.62113708 0 0 0 Z " fill="#383432" transform="translate(88,73)"/>
<path d="M0 0 C1.258125 0.12375 2.51625 0.2475 3.8125 0.375 C4.87404297 0.47941406 4.87404297 0.47941406 5.95703125 0.5859375 C8 1 8 1 11 3 C7.7 3.66 4.4 4.32 1 5 C1.33 4.01 1.66 3.02 2 2 C1.34 1.34 0.68 0.68 0 0 Z " fill="#181517" transform="translate(165,69)"/>
<path d="M0 0 C0.99 0.33 1.98 0.66 3 1 C2.45276317 4.37462715 1.9451 6.08235 0 9 C-1.36623674 6.26752652 -1.128426 4.01801098 -1 1 C-0.67 0.67 -0.34 0.34 0 0 Z " fill="#1C1A1A" transform="translate(18,14)"/>
<path d="M0 0 C2 4 2 4 1.3125 6.6875 C0 9 0 9 -3 10 C-2.01 6.7 -1.02 3.4 0 0 Z " fill="#958C76" transform="translate(8,176)"/>
<path d="M0 0 C1.32 0 2.64 0 4 0 C3.1875 2.4375 3.1875 2.4375 2 5 C1.01 5.33 0.02 5.66 -1 6 C-1.042721 4.33388095 -1.04063832 2.66617115 -1 1 C-0.67 0.67 -0.34 0.34 0 0 Z " fill="#28221F" transform="translate(86,140)"/>
<path d="M0 0 C1.32 0 2.64 0 4 0 C4.33 0.99 4.66 1.98 5 3 C5.66 3.66 6.32 4.32 7 5 C5.02 5.99 5.02 5.99 3 7 C0 2.25 0 2.25 0 0 Z " fill="#1A1617" transform="translate(28,101)"/>
<path d="M0 0 C1.65 0 3.3 0 5 0 C1.375 6.75 1.375 6.75 -2 9 C-1.855625 8.443125 -1.71125 7.88625 -1.5625 7.3125 C-0.97230872 4.88615805 -0.476571 2.45093655 0 0 Z " fill="#28231D" transform="translate(201,78)"/>
<path d="M0 0 C1.32 0 2.64 0 4 0 C4 1.65 4 3.3 4 5 C1.03 4.505 1.03 4.505 -2 4 C-1.34 2.68 -0.68 1.36 0 0 Z " fill="#322F2C" transform="translate(176,73)"/>
<path d="M0 0 C1.32 0.66 2.64 1.32 4 2 C4 3.32 4 4.64 4 6 C2.35 6 0.7 6 -1 6 C-0.67 4.02 -0.34 2.04 0 0 Z " fill="#282625" transform="translate(95,243)"/>
<path d="M0 0 C2.0625 0.4375 2.0625 0.4375 4 1 C4.33 2.98 4.66 4.96 5 7 C4.34 6.34 3.68 5.68 3 5 C2.01 5.495 2.01 5.495 1 6 C0.34 4.35 -0.32 2.7 -1 1 C-0.67 0.67 -0.34 0.34 0 0 Z " fill="#3B3329" transform="translate(43,152)"/>
<path d="M0 0 C0.99 0 1.98 0 3 0 C3.66 1.32 4.32 2.64 5 4 C3.68 4 2.36 4 1 4 C0.67 4.66 0.34 5.32 0 6 C-0.38218767 4.34385343 -0.71395102 2.67542976 -1 1 C-0.67 0.67 -0.34 0.34 0 0 Z " fill="#33322A" transform="translate(224,131)"/>
<path d="M0 0 C2.475 0.495 2.475 0.495 5 1 C5 2.98 5 4.96 5 7 C4.01 7 3.02 7 2 7 C2 6.01 2 5.02 2 4 C2.66 4 3.32 4 4 4 C4 3.34 4 2.68 4 2 C2.68 2 1.36 2 0 2 C0 1.34 0 0.68 0 0 Z " fill="#35342B" transform="translate(188,122)"/>
<path d="M0 0 C1.32 1.32 2.64 2.64 4 4 C1.525 5.485 1.525 5.485 -1 7 C-1 6.01 -1 5.02 -1 4 C-1.66 3.34 -2.32 2.68 -3 2 C-2.01 1.34 -1.02 0.68 0 0 Z " fill="#2F2A29" transform="translate(94,233)"/>
<path d="M0 0 C0.66 0 1.32 0 2 0 C2.185625 1.7015625 2.185625 1.7015625 2.375 3.4375 C2.684375 5.2009375 2.684375 5.2009375 3 7 C3.66 7.33 4.32 7.66 5 8 C4.01 8 3.02 8 2 8 C0.25 6.25 0.25 6.25 -1 4 C-0.6875 1.75 -0.6875 1.75 0 0 Z " fill="#352F2D" transform="translate(2,184)"/>
<path d="M0 0 C0.33 0.66 0.66 1.32 1 2 C-0.4375 4.625 -0.4375 4.625 -2 7 C-3.32 6.34 -4.64 5.68 -6 5 C-5.195625 4.360625 -4.39125 3.72125 -3.5625 3.0625 C-1.7249496 1.59396498 -1.7249496 1.59396498 0 0 Z " fill="#8D8372" transform="translate(38,163)"/>
<path d="M0 0 C0.33 1.32 0.66 2.64 1 4 C-0.98 4.99 -0.98 4.99 -3 6 C-3.66 5.34 -4.32 4.68 -5 4 C-5 3.01 -5 2.02 -5 1 C-3 0 -3 0 0 0 Z " fill="#302A28" transform="translate(200,142)"/>
<path d="M0 0 C0.99 0 1.98 0 3 0 C3.66 1.65 4.32 3.3 5 5 C1 5 1 5 -2 4 C-1.34 2.68 -0.68 1.36 0 0 Z " fill="#1F1B1C" transform="translate(235,131)"/>
<path d="M0 0 C1.98 0.99 1.98 0.99 4 2 C3.34 3.98 2.68 5.96 2 8 C-0.1519437 4.77208445 -0.20086443 3.71599191 0 0 Z " fill="#E9EAD5" transform="translate(55,97)"/>
<path d="M0 0 C2.475 0.99 2.475 0.99 5 2 C4.6875 3.9375 4.6875 3.9375 4 6 C3.01 6.33 2.02 6.66 1 7 C0 4 0 4 0 0 Z " fill="#FAFCE8" transform="translate(142,236)"/>
<path d="M0 0 C3.125 0.375 3.125 0.375 6 1 C4.68 2.32 3.36 3.64 2 5 C0.68 4.01 -0.64 3.02 -2 2 C-1.34 1.34 -0.68 0.68 0 0 Z " fill="#8F8774" transform="translate(102,232)"/>
<path d="M0 0 C0.66 0.33 1.32 0.66 2 1 C2.625 4.0625 2.625 4.0625 3 7 C0 6 0 6 -2 4 C-2.33 3.34 -2.66 2.68 -3 2 C-2.01 1.34 -1.02 0.68 0 0 Z " fill="#1C1717" transform="translate(231,192)"/>
<path d="M0 0 C0.33 0.99 0.66 1.98 1 3 C-1.375 4.5625 -1.375 4.5625 -4 6 C-4.66 5.67 -5.32 5.34 -6 5 C-5.34 4.01 -4.68 3.02 -4 2 C-3.34 2.33 -2.68 2.66 -2 3 C-2 2.34 -2 1.68 -2 1 C-1.34 0.67 -0.68 0.34 0 0 Z " fill="#271F1A" transform="translate(130,142)"/>
<path d="M0 0 C0.99 0.33 1.98 0.66 3 1 C2.67 2.32 2.34 3.64 2 5 C0.35 5 -1.3 5 -3 5 C-3 3 -3 3 -1.5 1.375 C-1.005 0.92125 -0.51 0.4675 0 0 Z " fill="#27241D" transform="translate(36,140)"/>
<path d="M0 0 C1.98 0 3.96 0 6 0 C6.33 0.66 6.66 1.32 7 2 C6.01 2 5.02 2 4 2 C4 2.99 4 3.98 4 5 C3.01 4.67 2.02 4.34 1 4 C0.3125 1.9375 0.3125 1.9375 0 0 Z " fill="#F1F1DE" transform="translate(194,129)"/>
<path d="M0 0 C-0.66 1.65 -1.32 3.3 -2 5 C-3.65 4.67 -5.3 4.34 -7 4 C-3.17391304 0 -3.17391304 0 0 0 Z " fill="#1B1818" transform="translate(112,62)"/>
<path d="M0 0 C0.66 0.33 1.32 0.66 2 1 C2.99 0.67 3.98 0.34 5 0 C4.34 1.65 3.68 3.3 3 5 C1.35 5 -0.3 5 -2 5 C-1.34 3.35 -0.68 1.7 0 0 Z " fill="#27221E" transform="translate(208,35)"/>
<path d="M0 0 C0.66 0.33 1.32 0.66 2 1 C1.67 1.66 1.34 2.32 1 3 C0.01 3.33 -0.98 3.66 -2 4 C-2.33 4.66 -2.66 5.32 -3 6 C-3.99 5.67 -4.98 5.34 -6 5 C-5.34 4.67 -4.68 4.34 -4 4 C-3.67 3.01 -3.34 2.02 -3 1 C-2.01 0.67 -1.02 0.34 0 0 Z " fill="#F9FCE6" transform="translate(119,243)"/>
<path d="M0 0 C0.33 0.66 0.66 1.32 1 2 C1.99 2 2.98 2 4 2 C4 2.66 4 3.32 4 4 C2.35 4.33 0.7 4.66 -1 5 C-1 1 -1 1 0 0 Z " fill="#251E1C" transform="translate(25,165)"/>
<path d="M0 0 C1.65 1.32 3.3 2.64 5 4 C4.34 5.32 3.68 6.64 3 8 C2.34 7.67 1.68 7.34 1 7 C0.59270772 4.67843403 0.25561323 2.3431213 0 0 Z " fill="#191618" transform="translate(237,156)"/>
<path d="M0 0 C0.99 1.32 1.98 2.64 3 4 C2.34 4.66 1.68 5.32 1 6 C0.34 6 -0.32 6 -1 6 C-1.66 4.68 -2.32 3.36 -3 2 C-2.01 1.34 -1.02 0.68 0 0 Z " fill="#2B2723" transform="translate(237,134)"/>
<path d="M0 0 C1.4540625 0.0309375 1.4540625 0.0309375 2.9375 0.0625 C1.9475 0.3925 0.9575 0.7225 -0.0625 1.0625 C-0.79573796 3.07758358 -0.79573796 3.07758358 -1.0625 5.0625 C-1.7225 5.0625 -2.3825 5.0625 -3.0625 5.0625 C-3.625 3.125 -3.625 3.125 -4.0625 1.0625 C-3.0625 0.0625 -3.0625 0.0625 0 0 Z " fill="#D2D1BD" transform="translate(57.0625,110.9375)"/>
<path d="M0 0 C0.66 0.33 1.32 0.66 2 1 C1.34 2.98 0.68 4.96 0 7 C-0.99 6.34 -1.98 5.68 -3 5 C-1.125 1.125 -1.125 1.125 0 0 Z " fill="#ECECD8" transform="translate(155,96)"/>
<path d="M0 0 C0.66 0 1.32 0 2 0 C2.36923077 4.55384615 2.36923077 4.55384615 0.5 6.8125 C0.005 7.204375 -0.49 7.59625 -1 8 C-1.66 7.67 -2.32 7.34 -3 7 C-2.01 4.69 -1.02 2.38 0 0 Z " fill="#CFCCC0" transform="translate(103,75)"/>
<path d="M0 0 C1.65 0 3.3 0 5 0 C3.35 1.65 1.7 3.3 0 5 C-0.99 4.67 -1.98 4.34 -3 4 C-2.34 4 -1.68 4 -1 4 C-0.67 2.68 -0.34 1.36 0 0 Z " fill="#181415" transform="translate(161,243)"/>
<path d="M0 0 C1.65 0 3.3 0 5 0 C5.33 0.66 5.66 1.32 6 2 C5.34 2.66 4.68 3.32 4 4 C1.375 3.625 1.375 3.625 -1 3 C-0.67 2.01 -0.34 1.02 0 0 Z " fill="#E1DDCA" transform="translate(108,238)"/>
<path d="M0 0 C0.99 0.33 1.98 0.66 3 1 C3 2.32 3 3.64 3 5 C1.68 4.67 0.36 4.34 -1 4 C-0.67 2.68 -0.34 1.36 0 0 Z " fill="#E0DDD8" transform="translate(95,156)"/>
<path d="M0 0 C2 3 2 3 1.625 5.1875 C1.41875 5.785625 1.2125 6.38375 1 7 C-0.32 6.67 -1.64 6.34 -3 6 C-2.01 4.02 -1.02 2.04 0 0 Z " fill="#352F2C" transform="translate(94,150)"/>
<path d="M0 0 C0.6875 1.75 0.6875 1.75 1 4 C-0.4375 6.25 -0.4375 6.25 -2 8 C-2.99 7.67 -3.98 7.34 -5 7 C-4.360625 6.21625 -3.72125 5.4325 -3.0625 4.625 C-1.01857687 2.20460719 -1.01857687 2.20460719 0 0 Z " fill="#CDCEC3" transform="translate(25,144)"/>
<path d="M0 0 C0.33 0.66 0.66 1.32 1 2 C0.0625 4.125 0.0625 4.125 -1 6 C-1.66 6 -2.32 6 -3 6 C-3 5.34 -3 4.68 -3 4 C-3.66 3.67 -4.32 3.34 -5 3 C-3.35 2.01 -1.7 1.02 0 0 Z " fill="#1B1618" transform="translate(228,109)"/>
<path d="M0 0 C0 0.66 0 1.32 0 2 C0.66 2.33 1.32 2.66 2 3 C-0.3431213 2.74438677 -2.67843403 2.40729228 -5 2 C-5.33 1.34 -5.66 0.68 -6 0 C-2.25 -1.125 -2.25 -1.125 0 0 Z " fill="#383621" transform="translate(62,96)"/>
<path d="M0 0 C2.31 0.33 4.62 0.66 7 1 C6.67 2.65 6.34 4.3 6 6 C3.97945196 4.35830472 1.97956942 2.69088222 0 1 C0 0.67 0 0.34 0 0 Z " fill="#27211A" transform="translate(58,81)"/>
<path d="M0 0 C1.65 0.33 3.3 0.66 5 1 C4.34 2.32 3.68 3.64 3 5 C2.01 5 1.02 5 0 5 C-0.33 4.01 -0.66 3.02 -1 2 C-0.67 1.34 -0.34 0.68 0 0 Z " fill="#1D1918" transform="translate(180,73)"/>
<path d="M0 0 C3.63 0.33 7.26 0.66 11 1 C11 1.33 11 1.66 11 2 C7.7 2.33 4.4 2.66 1 3 C0.67 2.01 0.34 1.02 0 0 Z " fill="#181616" transform="translate(136,65)"/>
</svg>
