<?xml version="1.0" encoding="UTF-8"?>
<svg version="1.1" xmlns="http://www.w3.org/2000/svg" width="205" height="118">
<path d="M0 0 C0.85142578 -0.01224609 1.70285156 -0.02449219 2.58007812 -0.03710938 C18.53470267 -0.0735632 31.50308361 6.45633819 42.67578125 17.52734375 C50.1875 25.48298989 50.1875 25.48298989 50.1875 29.1875 C51.15236328 29.11789063 51.15236328 29.11789063 52.13671875 29.046875 C65.05890518 28.5307249 75.58498876 32.55447307 85.1875 41.1875 C93.85318664 50.00089721 97.65344845 59.95643608 97.8125 72.1875 C97.73637242 80.35903404 96.31052445 87.02156737 92.1875 94.1875 C91.45273437 95.50234375 91.45273437 95.50234375 90.703125 96.84375 C88.68287699 99.96784485 86.08675228 101.87993186 83.1875 104.1875 C82.57777344 104.84234375 81.96804687 105.4971875 81.33984375 106.171875 C78.92324154 108.43497253 76.71509028 109.55666742 73.6875 110.875 C72.7490625 111.29136719 71.810625 111.70773438 70.84375 112.13671875 C66.76729502 113.74931638 63.37163055 114.31365753 58.9835968 114.32794189 C57.40458336 114.33650711 57.40458336 114.33650711 55.79367065 114.34524536 C54.64399811 114.34636322 53.49432556 114.34748108 52.30981445 114.34863281 C50.48719841 114.35608017 50.48719841 114.35608017 48.62776184 114.36367798 C45.29690606 114.37577634 41.96611298 114.38324242 38.6352427 114.38768864 C36.55132736 114.39062423 34.46741746 114.39473002 32.38350487 114.39919281 C25.85506508 114.41286309 19.3266378 114.42253124 12.79818469 114.4263947 C5.27797819 114.43087019 -2.24204608 114.44839625 -9.7621972 114.4773953 C-15.58487938 114.49906401 -21.40751049 114.50910179 -27.23023254 114.51043582 C-30.70306114 114.51148042 -34.17571833 114.5173139 -37.64850426 114.53525543 C-41.52834221 114.55491005 -45.40795541 114.5504265 -49.2878418 114.54394531 C-50.42739319 114.5531601 -51.56694458 114.56237488 -52.74102783 114.5718689 C-63.25675386 114.516971 -71.68410203 112.02544063 -79.8125 105.1875 C-88.31748447 96.1385921 -91.11474316 87.23418822 -90.96484375 74.92578125 C-90.37884433 64.39281738 -85.86667381 56.45659775 -78.32421875 49.23828125 C-71.12240085 43.35810334 -63.98655739 41.01107582 -54.8125 41.1875 C-54.69648437 40.30320313 -54.58046875 39.41890625 -54.4609375 38.5078125 C-52.21137057 26.9889457 -43.07916244 17.04023582 -34.0078125 10.015625 C-23.07932408 2.77124458 -12.98280924 0.0096959 0 0 Z " fill="#FDFDFC" transform="translate(98.8125,1.8125)"/>
<path d="M0 0 C0.85142578 -0.01224609 1.70285156 -0.02449219 2.58007812 -0.03710938 C18.53470267 -0.0735632 31.50308361 6.45633819 42.67578125 17.52734375 C50.1875 25.48298989 50.1875 25.48298989 50.1875 29.1875 C51.15236328 29.11789063 51.15236328 29.11789063 52.13671875 29.046875 C65.05890518 28.5307249 75.58498876 32.55447307 85.1875 41.1875 C93.85318664 50.00089721 97.65344845 59.95643608 97.8125 72.1875 C97.73637242 80.35903404 96.31052445 87.02156737 92.1875 94.1875 C91.45273437 95.50234375 91.45273437 95.50234375 90.703125 96.84375 C88.68287699 99.96784485 86.08675228 101.87993186 83.1875 104.1875 C82.57777344 104.84234375 81.96804687 105.4971875 81.33984375 106.171875 C78.92324154 108.43497253 76.71509028 109.55666742 73.6875 110.875 C72.7490625 111.29136719 71.810625 111.70773438 70.84375 112.13671875 C66.76729502 113.74931638 63.37163055 114.31365753 58.9835968 114.32794189 C57.40458336 114.33650711 57.40458336 114.33650711 55.79367065 114.34524536 C54.64399811 114.34636322 53.49432556 114.34748108 52.30981445 114.34863281 C50.48719841 114.35608017 50.48719841 114.35608017 48.62776184 114.36367798 C45.29690606 114.37577634 41.96611298 114.38324242 38.6352427 114.38768864 C36.55132736 114.39062423 34.46741746 114.39473002 32.38350487 114.39919281 C25.85506508 114.41286309 19.3266378 114.42253124 12.79818469 114.4263947 C5.27797819 114.43087019 -2.24204608 114.44839625 -9.7621972 114.4773953 C-15.58487938 114.49906401 -21.40751049 114.50910179 -27.23023254 114.51043582 C-30.70306114 114.51148042 -34.17571833 114.5173139 -37.64850426 114.53525543 C-41.52834221 114.55491005 -45.40795541 114.5504265 -49.2878418 114.54394531 C-50.42739319 114.5531601 -51.56694458 114.56237488 -52.74102783 114.5718689 C-63.25675386 114.516971 -71.68410203 112.02544063 -79.8125 105.1875 C-88.31748447 96.1385921 -91.11474316 87.23418822 -90.96484375 74.92578125 C-90.37884433 64.39281738 -85.86667381 56.45659775 -78.32421875 49.23828125 C-71.12240085 43.35810334 -63.98655739 41.01107582 -54.8125 41.1875 C-54.69648437 40.30320313 -54.58046875 39.41890625 -54.4609375 38.5078125 C-52.21137057 26.9889457 -43.07916244 17.04023582 -34.0078125 10.015625 C-23.07932408 2.77124458 -12.98280924 0.0096959 0 0 Z M-38.96484375 22.890625 C-44.5962628 29.89120513 -48.37413642 37.58151089 -50.8125 46.1875 C-51.64652344 46.27386719 -52.48054688 46.36023437 -53.33984375 46.44921875 C-63.52441951 47.72083245 -71.1627794 50.48482951 -78.23828125 58.12109375 C-83.32006351 64.79172108 -85.7088536 71.75359029 -85.28515625 80.140625 C-83.87555603 89.22730408 -79.94629849 95.8366624 -73.484375 102.25 C-65.83236329 107.79882721 -58.88521841 108.77294592 -49.58251953 108.70507812 C-48.38943176 108.7120874 -47.19634399 108.71909668 -45.96710205 108.72631836 C-42.71884247 108.74083059 -39.47124306 108.73753614 -36.22299433 108.72480202 C-32.80619177 108.71460389 -29.3894302 108.72408688 -25.97262573 108.73034668 C-20.23476361 108.73760541 -14.49710803 108.7280844 -8.75927734 108.70898438 C-2.15116254 108.6872396 4.45645803 108.69425634 11.06456077 108.71629 C16.76257419 108.73451985 22.46043994 108.73696492 28.15847313 108.72653532 C31.55081839 108.72033909 34.94293243 108.71935619 38.3352623 108.73268127 C42.12341895 108.74290061 45.91064282 108.7272676 49.69873047 108.70507812 C50.80453461 108.71317505 51.91033875 108.72127197 53.0496521 108.72961426 C64.42611123 108.60687667 74.00850852 105.27083076 82.1875 97.1875 C90.11914824 87.69382038 92.5288764 77.34109633 91.49365234 65.15039062 C90.67462365 59.8992019 88.0859782 55.54857435 85.1875 51.1875 C84.73117188 50.50042969 84.27484375 49.81335937 83.8046875 49.10546875 C78.50802286 42.1592714 70.57713987 38.0897499 62.1875 36.1875 C59.68748078 36.16911751 57.18688139 36.19061387 54.6875 36.25 C47.87076032 35.87574763 47.87076032 35.87574763 45.046875 33.03125 C43.94822095 31.13260514 42.90436516 29.20145604 41.91015625 27.24609375 C37.01384352 18.55264053 28.23091098 12.89128607 19.1875 9.1875 C18.39085938 8.836875 17.59421875 8.48625 16.7734375 8.125 C-2.88126596 0.99942775 -25.0057017 8.1002404 -38.96484375 22.890625 Z " fill="#FE900A" transform="translate(98.8125,1.8125)"/>
<path d="M0 0 C2.475 0.495 2.475 0.495 5 1 C6.32 6.28 7.64 11.56 9 17 C9.33 17 9.66 17 10 17 C11.32 11.39 12.64 5.78 14 0 C15.65 0 17.3 0 19 0 C21.12536981 5.88563949 22.5157626 11.92811972 24 18 C25.65 12.06 27.3 6.12 29 0 C30.65 0 32.3 0 34 0 C32.87613072 5.82368627 31.3072912 11.37992276 29.4375 17 C29.21553955 17.6710376 28.9935791 18.3420752 28.76489258 19.03344727 C27.12932926 23.87067074 27.12932926 23.87067074 26 25 C24.35 25 22.7 25 21 25 C19.68 20.05 18.36 15.1 17 10 C16.54625 11.36125 16.0925 12.7225 15.625 14.125 C14.41666667 17.75 13.20833333 21.375 12 25 C10.35 25 8.7 25 7 25 C6.01038434 22.33681412 5.03323149 19.67006693 4.0625 17 C3.78470703 16.25621094 3.50691406 15.51242188 3.22070312 14.74609375 C1.43408764 9.79523157 0.47085001 5.24491149 0 0 Z " fill="#2E3E4D" transform="translate(87,46)"/>
<path d="M0 0 C2.84884811 0.62674658 5.25854709 1.5348158 7.875 2.8125 C26.53492495 11.30555554 46.72295141 12.44137582 66.3359375 6.97265625 C69.92647049 6.01951903 73.32173816 5.45146625 77 5 C77 5.66 77 6.32 77 7 C60.07806063 16.01679981 43.63827419 20.36544629 24.5 15.4375 C15.41822984 12.41738304 6.97073705 7.58347388 0 1 C0 0.67 0 0.34 0 0 Z " fill="#FE9F0E" transform="translate(60,79)"/>
<path d="M0 0 C0.94488281 -0.03738281 1.88976562 -0.07476562 2.86328125 -0.11328125 C6.73587982 0.4705545 8.15691477 1.29110731 10.6875 4.3125 C11.43725758 7.72554168 11.47803601 11.07754708 11.5 14.5625 C11.52513672 15.49835937 11.55027344 16.43421875 11.57617188 17.3984375 C11.6349757 19.70354732 11.67130267 22.00676174 11.6875 24.3125 C8.79515685 25.13888376 6.80007569 25.3125 3.6875 25.3125 C3.0275 25.6425 2.3675 25.9725 1.6875 26.3125 C-1.6875 26.6875 -1.6875 26.6875 -5.3125 26.3125 C-8.27385546 23.73080549 -9.18006104 22.12368865 -9.8125 18.25 C-9.3125 15.3125 -9.3125 15.3125 -8 12.9375 C-3.70156162 10.33844424 0.78882815 11.00844451 5.6875 11.3125 C5.3575 9.3325 5.0275 7.3525 4.6875 5.3125 C0.7275 5.3125 -3.2325 5.3125 -7.3125 5.3125 C-7.3125 3.9925 -7.3125 2.6725 -7.3125 1.3125 C-4.76895023 0.04072512 -2.84084848 0.07303941 0 0 Z " fill="#2C3B4B" transform="translate(73.3125,45.6875)"/>
<path d="M0 0 C0.99 0.33 1.98 0.66 3 1 C3 2.32 3 3.64 3 5 C-0.96 4.67 -4.92 4.34 -9 4 C-9 5.65 -9 7.3 -9 9 C-8.31292969 9.18175781 -7.62585938 9.36351562 -6.91796875 9.55078125 C-6.01691406 9.80214844 -5.11585938 10.05351563 -4.1875 10.3125 C-3.29417969 10.55613281 -2.40085938 10.79976562 -1.48046875 11.05078125 C1.09551521 12.03655149 2.33365182 12.82673684 4 15 C4.68944734 18.96432218 4.32427783 20.51881355 2.0625 23.875 C-1.97655539 26.67760986 -5.21002414 26.81403883 -10 26 C-12.27734375 24.97265625 -12.27734375 24.97265625 -14 24 C-14 23.01 -14 22.02 -14 21 C-9.71 21 -5.42 21 -1 21 C-1 19.35 -1 17.7 -1 16 C-2.216875 15.773125 -3.43375 15.54625 -4.6875 15.3125 C-8.97476472 14.23116503 -11.31147543 12.61270489 -14 9 C-14.71401435 5.74726796 -14.31873273 4.53605051 -12.625 1.6875 C-8.62333963 -0.88499595 -4.63555203 -0.4720679 0 0 Z " fill="#2C3B4B" transform="translate(137,46)"/>
<path d="M0 0 C0 0.66 0 1.32 0 2 C-1.134375 2.309375 -2.26875 2.61875 -3.4375 2.9375 C-6.78775099 3.62924531 -6.78775099 3.62924531 -8 5 C-8.04063832 6.66617115 -8.042721 8.33388095 -8 10 C-6.02 10.99 -4.04 11.98 -2 13 C-2.33 13.66 -2.66 14.32 -3 15 C-6.25 15.3125 -6.25 15.3125 -10 15 C-12.96135546 12.41830549 -13.86756104 10.81118865 -14.5 6.9375 C-14 4 -14 4 -12.625 1.625 C-8.5952124 -0.86963042 -4.61933486 -0.31735888 0 0 Z " fill="#253546" transform="translate(78,57)"/>
<path d="M0 0 C0.66 0.33 1.32 0.66 2 1 C2.31433405 6.23890086 1.80778856 9.52833673 -1 14 C-1.99 14.66 -2.98 15.32 -4 16 C-3.34 12.04 -2.68 8.08 -2 4 C-5.63 4 -9.26 4 -13 4 C-9.47943856 -0.89817244 -5.56514257 -0.65535463 0 0 Z " fill="#FEA216" transform="translate(142,77)"/>
<path d="M0 0 C2.01822917 0.06510417 4.03645833 0.13020833 6.0546875 0.1953125 C6.2421875 3.0703125 6.2421875 3.0703125 6.0546875 6.1953125 C2.61361484 8.48936094 1.08628941 8.45824306 -2.9453125 8.1953125 C-3.9453125 7.1953125 -3.9453125 7.1953125 -4.1328125 4.7578125 C-3.90410521 1.63214619 -3.25878946 0.3271877 0 0 Z " fill="#F6F6F7" transform="translate(72.9453125,59.8046875)"/>
<path d="M0 0 C0 0.33 0 0.66 0 1 C-2.64 1.33 -5.28 1.66 -8 2 C-6.35 2.33 -4.7 2.66 -3 3 C-3 3.33 -3 3.66 -3 4 C-6.3 4 -9.6 4 -13 4 C-9.41420832 -0.98892755 -5.61771415 -0.43213186 0 0 Z " fill="#FEBA52" transform="translate(142,77)"/>
</svg>
