<?xml version="1.0" encoding="UTF-8"?>
<svg version="1.1" xmlns="http://www.w3.org/2000/svg" width="121" height="136">
<path d="M0 0 C4.42384116 1.79308271 8.42217798 4.09329121 12.5 6.5625 C13.55058594 7.17158203 14.60117188 7.78066406 15.68359375 8.40820312 C21.7570797 11.95544924 27.69638634 15.69620897 33.61572266 19.4934082 C36.33443313 21.21132366 39.10062017 22.79807543 41.9375 24.3125 C42.81277344 24.78300781 43.68804687 25.25351562 44.58984375 25.73828125 C46.71497064 26.8507869 48.84962056 27.93728348 51 29 C51 29.66 51 30.32 51 31 C51.66 31 52.32 31 53 31 C55.37750568 34.56625851 55.26772667 36.15984288 55.30639648 40.39575195 C55.31472 41.0400415 55.32304352 41.68433105 55.33161926 42.34814453 C55.35571474 44.47825162 55.36449137 46.60805232 55.37109375 48.73828125 C55.38006179 50.22177725 55.38918367 51.70527233 55.39845276 53.18876648 C55.414945 56.29993893 55.42264303 59.41100376 55.42553711 62.5222168 C55.43091552 66.50041377 55.46857032 70.47759268 55.51428127 74.45550251 C55.54409319 77.52082467 55.55126157 80.58590315 55.55226326 83.65135765 C55.5564589 85.11734864 55.56886708 86.5833408 55.58978081 88.04918861 C55.75909027 100.94474332 55.75909027 100.94474332 52.78222656 104.76196289 C50.21050175 106.83067133 47.87691821 108.47987823 44.92578125 109.9453125 C40.94324357 111.99560907 37.03257555 114.1010374 33.16796875 116.3671875 C32.19110107 116.93928955 31.2142334 117.5113916 30.20776367 118.10083008 C28.71273315 118.97904419 28.71273315 118.97904419 27.1875 119.875 C25.08356061 121.10585732 22.97939487 122.33632783 20.875 123.56640625 C19.86953125 124.15437988 18.8640625 124.74235352 17.828125 125.34814453 C14.12066988 127.51360045 10.40912349 129.67148684 6.6875 131.8125 C5.63949219 132.41707031 4.59148437 133.02164063 3.51171875 133.64453125 C-0.933139 136.04323364 -5.02439133 136.85709135 -10 136 C-14.04029613 134.30846673 -17.73909335 132.11020593 -21.5 129.875 C-23.11986816 128.93950317 -23.11986816 128.93950317 -24.77246094 127.98510742 C-28.19113712 126.00591297 -31.59545511 124.00338424 -35 122 C-37.26466489 120.68454362 -39.53027584 119.37071448 -41.796875 118.05859375 C-47.54341131 114.72638895 -53.28182571 111.38068531 -59 108 C-59.88397461 107.50781982 -60.76794922 107.01563965 -61.67871094 106.50854492 C-64 105 -64 105 -66 102 C-66.27415466 99.09133911 -66.27415466 99.09133911 -66.30639648 95.49658203 C-66.31472 94.84093262 -66.32304352 94.1852832 -66.33161926 93.50976562 C-66.35571355 91.34238749 -66.36449055 89.17531036 -66.37109375 87.0078125 C-66.38006074 85.49950063 -66.3891826 83.99118968 -66.39845276 82.48287964 C-66.41494387 79.32043293 -66.42264303 76.1580921 -66.42553711 72.99560547 C-66.43092035 68.94781612 -66.46859575 64.90102503 -66.51428127 60.85351753 C-66.54405928 57.73762399 -66.55126081 54.62197058 -66.55226326 51.50594711 C-66.55646438 50.01401066 -66.56889461 48.52207342 -66.58978081 47.03027725 C-66.61671344 44.94017926 -66.61186764 42.85239133 -66.59936523 40.76220703 C-66.60443588 39.57434601 -66.60950653 38.38648499 -66.61473083 37.16262817 C-65.65106331 32.20481265 -62.5145278 30.07801581 -58.546875 27.25390625 C-49.90643165 22.0286102 -41.11380292 17.08919376 -32.28613281 12.18774414 C-31.26229492 11.61918701 -30.23845703 11.05062988 -29.18359375 10.46484375 C-28.15991699 9.90265137 -27.13624023 9.34045898 -26.08154297 8.76123047 C-23.99810732 7.57046001 -21.94959726 6.31676084 -19.93798828 5.00830078 C-13.25221203 0.72039042 -7.98306915 -1.8555917 0 0 Z " fill="#3C0492" transform="translate(66,0)"/>
<path d="M0 0 C0.84949219 0.4125 1.69898437 0.825 2.57421875 1.25 C9.27374449 4.86138294 14.57833396 9.79471505 19 16 C19 16.99 19 17.98 19 19 C16.44696285 20.5390224 13.88460065 22.05595193 11.3125 23.5625 C10.59126953 24.00013672 9.87003906 24.43777344 9.12695312 24.88867188 C3.74538717 28.00948866 3.74538717 28.00948866 0.23828125 27.96484375 C-2.2176042 26.90619854 -4.05359591 25.68961589 -6.125 24 C-11.59862639 19.56998331 -16.49280744 19.53661411 -23.40625 19.59375 C-30.34119413 20.37770021 -34.16266672 23.84897567 -38.5625 29 C-41.4839579 35.00373 -40.80397515 42.86527064 -39.5625 49.25 C-37.54029179 54.91218298 -32.66620316 58.41469001 -27.6875 61.375 C-20.67365184 63.00612748 -13.28079301 62.75552571 -7 59 C-4.46753159 56.82931279 -2.19758952 54.50662554 0 52 C6.72253472 55.17180135 12.91805372 58.72500877 19 63 C15.95005668 71.86973311 8.76322204 77.01517922 0.625 81 C-10.1162212 86.05469233 -22.090285 86.84312063 -33.73828125 84.12890625 C-45.4255974 79.50551919 -54.89623149 71.04816736 -60.609375 59.84375 C-64.97547127 49.149267 -66.0778566 37.22017381 -62.4375 26.125 C-56.46630621 12.4141404 -48.20765147 3.82836324 -34.4453125 -2.08984375 C-23.52610063 -6.15402325 -10.31996944 -5.20061452 0 0 Z " fill="#FDFCFD" transform="translate(80,27)"/>
<path d="M0 0 C4.42384116 1.79308271 8.42217798 4.09329121 12.5 6.5625 C13.55058594 7.17158203 14.60117188 7.78066406 15.68359375 8.40820312 C21.7570797 11.95544924 27.69638634 15.69620897 33.61572266 19.4934082 C36.33443313 21.21132366 39.10062017 22.79807543 41.9375 24.3125 C42.81277344 24.78300781 43.68804687 25.25351562 44.58984375 25.73828125 C46.71497064 26.8507869 48.84962056 27.93728348 51 29 C51 29.66 51 30.32 51 31 C51.66 31 52.32 31 53 31 C53.495 32.485 53.495 32.485 54 34 C50.87907566 35.84033976 47.75261783 37.67106256 44.625 39.5 C43.73554687 40.02464844 42.84609375 40.54929688 41.9296875 41.08984375 C41.07890625 41.58613281 40.228125 42.08242188 39.3515625 42.59375 C38.56604004 43.05458984 37.78051758 43.51542969 36.97119141 43.99023438 C35 45 35 45 33 45 C31.9044304 43.66755049 30.87325062 42.28183693 29.875 40.875 C23.3992079 32.37385729 13.70063997 25.88269788 3 24 C-12.83498393 22.9864281 -24.41116635 25.74914314 -36.6875 36.3125 C-46.47627587 47.68864493 -50.31694121 59.06933507 -49.26269531 73.95800781 C-48.73408622 78.06701006 -47.31210421 81.79973239 -45.6796875 85.58203125 C-45 88 -45 88 -45.7331543 90.00366211 C-47.1596738 92.25161932 -48.27942403 93.07532431 -50.58984375 94.359375 C-51.29173828 94.75253906 -51.99363281 95.14570312 -52.71679688 95.55078125 C-53.44962891 95.94652344 -54.18246094 96.34226562 -54.9375 96.75 C-55.66646484 97.16121094 -56.39542969 97.57242188 -57.14648438 97.99609375 C-62.59044072 101 -62.59044072 101 -66 101 C-66.11594308 92.35075167 -66.20473943 83.70177157 -66.25906086 75.05191517 C-66.28513507 71.03522572 -66.32049178 67.01906862 -66.37719727 63.00268555 C-66.43159709 59.12526419 -66.46143691 55.24835425 -66.47438622 51.37058067 C-66.48361202 49.89256426 -66.50162858 48.41457529 -66.52865028 46.93677711 C-66.56505088 44.86324626 -66.56994139 42.79181746 -66.56762695 40.71801758 C-66.57873001 39.53887283 -66.58983307 38.35972809 -66.60127258 37.14485168 C-65.65503409 32.19571582 -62.50338009 30.07008105 -58.546875 27.25390625 C-49.90643165 22.0286102 -41.11380292 17.08919376 -32.28613281 12.18774414 C-31.26229492 11.61918701 -30.23845703 11.05062988 -29.18359375 10.46484375 C-28.15991699 9.90265137 -27.13624023 9.34045898 -26.08154297 8.76123047 C-23.99810732 7.57046001 -21.94959726 6.31676084 -19.93798828 5.00830078 C-13.25221203 0.72039042 -7.98306915 -1.8555917 0 0 Z " fill="#A179DC" transform="translate(66,0)"/>
<path d="M0 0 C3.55716979 1.18572326 4.07266425 2.18855239 6.1875 5.1875 C9.66379414 9.75737834 13.07820691 13.04350623 18 16 C18.804375 16.48726562 19.60875 16.97453125 20.4375 17.4765625 C30.73092806 22.71100461 43.64502335 22.81376645 54.73828125 20.078125 C61.89285238 17.27811495 67.77123743 13.06514285 73.3125 7.8046875 C74.09625 7.06476563 74.88 6.32484375 75.6875 5.5625 C76.39261719 4.86253906 77.09773438 4.16257812 77.82421875 3.44140625 C80 2 80 2 82.3125 2.0234375 C85.89603697 3.32559483 89.04457582 5.11386138 92.3125 7.0625 C93.28026367 7.62807617 93.28026367 7.62807617 94.26757812 8.20507812 C95.84878152 9.13037493 97.4249146 10.06432681 99 11 C99 11.99 99 12.98 99 14 C95.44008554 17.34456992 91.32754792 19.62177137 87.0625 21.9375 C81.18482703 25.17884332 75.3859158 28.5302516 69.62329102 31.97216797 C55.44493101 40.43653685 55.44493101 40.43653685 49.125 43.8125 C48.30257812 44.25207031 47.48015625 44.69164062 46.6328125 45.14453125 C41.75841057 46.72835027 38.09808859 46.88495239 33.40283203 44.90454102 C30.3765096 43.31562968 27.4383064 41.62131293 24.5 39.875 C23.42008789 39.25133545 22.34017578 38.6276709 21.22753906 37.98510742 C17.80886288 36.00591297 14.40454489 34.00338424 11 32 C8.73533511 30.68454362 6.46972416 29.37071448 4.203125 28.05859375 C-1.54341131 24.72638895 -7.28182571 21.38068531 -13 18 C-13.8981543 17.49106201 -14.79630859 16.98212402 -15.72167969 16.45776367 C-18.21500444 14.86243126 -18.96518577 13.7281466 -20 11 C-19.05898438 10.54109375 -18.11796875 10.0821875 -17.1484375 9.609375 C-15.89051714 8.98980228 -14.63271069 8.36999823 -13.375 7.75 C-12.75753906 7.44964844 -12.14007812 7.14929688 -11.50390625 6.83984375 C-8.37012465 5.28944654 -5.60652238 3.72390831 -2.7265625 1.703125 C-1.82679687 1.14109375 -0.92703125 0.5790625 0 0 Z " fill="#2A026A" transform="translate(20,90)"/>
<path d="M0 0 C2.86796364 1.72444722 5.13157218 3.75730242 7.375 6.25 C8.365 6.91 9.355 7.57 10.375 8.25 C9.61993164 8.66773682 8.86486328 9.08547363 8.08691406 9.51586914 C5.22351809 11.10088523 2.36081395 12.68713788 -0.50146484 14.27416992 C-1.72873871 14.95433616 -2.9562684 15.63404105 -4.18408203 16.31323242 C-18.2377298 23.20590601 -18.2377298 23.20590601 -30.625 32.25 C-33.34152468 25.03149289 -34.4186748 16.86607485 -31.5625 9.515625 C-24.66533805 -1.65477859 -12.30405161 -5.78336508 0 0 Z " fill="#A179DB" transform="translate(71.625,47.75)"/>
<path d="M0 0 C2.67667506 1.41222225 5.24659168 2.95911423 7.8125 4.5625 C8.50537109 4.98724609 9.19824219 5.41199219 9.91210938 5.84960938 C11.61216951 6.89309456 13.30665476 7.94565296 15 9 C13.90531141 14.05050983 11.13984981 16.07977399 7 19 C1.43504196 21.72064615 -5.32511423 22.18235455 -11.24609375 20.27734375 C-15.55585121 18.26503734 -19.05645652 15.79812061 -22 12 C-21.79223365 9.4739177 -21.43063195 8.37138158 -19.49707031 6.70385742 C-17.42221818 5.51622895 -15.34781247 4.33427953 -13.25 3.1875 C-12.53328125 2.76791016 -11.8165625 2.34832031 -11.078125 1.91601562 C-4.34585119 -1.83994963 -4.34585119 -1.83994963 0 0 Z " fill="#2B036A" transform="translate(64,69)"/>
<path d="M0 0 C0.99 0 1.98 0 3 0 C3 1.98 3 3.96 3 6 C5.31 6 7.62 6 10 6 C10 4.02 10 2.04 10 0 C10.99 0 11.98 0 13 0 C13 1.98 13 3.96 13 6 C14.98 6 16.96 6 19 6 C19 6.99 19 7.98 19 9 C17.02 9 15.04 9 13 9 C13 11.31 13 13.62 13 16 C14.98 16 16.96 16 19 16 C19 16.99 19 17.98 19 19 C17.02 19 15.04 19 13 19 C13 20.98 13 22.96 13 25 C12.01 25 11.02 25 10 25 C10 23.02 10 21.04 10 19 C7.69 19 5.38 19 3 19 C3 20.98 3 22.96 3 25 C2.01 25 1.02 25 0 25 C0 23.02 0 21.04 0 19 C-1.98 19 -3.96 19 -6 19 C-6 18.01 -6 17.02 -6 16 C-4.02 16 -2.04 16 0 16 C0 13.69 0 11.38 0 9 C-1.98 9 -3.96 9 -6 9 C-6 8.01 -6 7.02 -6 6 C-4.02 6 -2.04 6 0 6 C0 4.02 0 2.04 0 0 Z " fill="#F5F3FA" transform="translate(92,55)"/>
<path d="M0 0 C2.31 0 4.62 0 7 0 C7 2.31 7 4.62 7 7 C4.69 7 2.38 7 0 7 C0 4.69 0 2.38 0 0 Z " fill="#5B2CA4" transform="translate(95,64)"/>
</svg>
