<?xml version="1.0" encoding="UTF-8"?>
<svg version="1.1" xmlns="http://www.w3.org/2000/svg" width="132" height="168">
<path d="M0 0 C9.24 0 18.48 0 28 0 C28 41.58 28 83.16 28 126 C7.68117184 131.80537947 -18.69376753 133.70661421 -38.375 124.8125 C-48.69645501 119.04210252 -54.22447549 111.88523572 -58.10546875 100.859375 C-61.43874718 86.4782436 -59.95147754 70.81287301 -52.25 58.1875 C-45.14498104 48.36481129 -35.00085454 42.00142292 -23 40 C-19.36945721 39.7568403 -15.76209013 39.76437694 -12.125 39.8125 C-10.701875 39.8134668 -10.701875 39.8134668 -9.25 39.81445312 C-2.28175731 39.85912135 -2.28175731 39.85912135 0 41 C0 27.47 0 13.94 0 0 Z M-24.375 69.0625 C-29.44136537 75.79413309 -30.65737722 83.152385 -29.57421875 91.38671875 C-28.41336956 96.66976711 -26.44803376 100.55196624 -22.625 104.375 C-17.41360396 107.60110231 -12.75974525 108.25803294 -6.6875 108.1875 C-5.45386719 108.18105469 -4.22023438 108.17460938 -2.94921875 108.16796875 C-0.1128111 108.33472963 -0.1128111 108.33472963 1 107 C1.09268999 105.64905018 1.11747326 104.29332909 1.11352539 102.93920898 C1.11341209 101.64798378 1.11341209 101.64798378 1.11329651 100.33067322 C1.10555458 98.92755638 1.10555458 98.92755638 1.09765625 97.49609375 C1.09553383 96.06657127 1.09553383 96.06657127 1.09336853 94.60816956 C1.08775152 91.55124835 1.07519616 88.49439923 1.0625 85.4375 C1.05748719 83.37044376 1.05292391 81.30338638 1.04882812 79.23632812 C1.03777656 74.15752412 1.02050055 69.0787743 1 64 C-7.97103811 62.08205392 -17.61921706 61.97227236 -24.375 69.0625 Z " fill="#2BA977" transform="translate(59,0)"/>
<path d="M0 0 C9.24 0 18.48 0 28 0 C28.04540406 10.31929506 28.08200365 20.63852244 28.10362434 30.95789528 C28.11400752 35.75093967 28.12806536 40.54391144 28.15087891 45.33691406 C28.17280413 49.97294186 28.18460959 54.60890035 28.18975449 59.24497604 C28.19341526 61.00296492 28.20056241 62.76095054 28.21146011 64.51890945 C28.3165789 82.19887215 27.89271564 99.65434518 16.03125 113.9609375 C12.43783655 117.56817177 8.34586419 120.37209888 4 123 C3.01580078 123.62068359 3.01580078 123.62068359 2.01171875 124.25390625 C-1.38078605 125.51209735 -4.24514021 124.31203235 -7.49536133 122.96850586 C-8.3489624 122.55479736 -9.20256348 122.14108887 -10.08203125 121.71484375 C-11.01337891 121.26689453 -11.94472656 120.81894531 -12.90429688 120.35742188 C-13.86400391 119.88884766 -14.82371094 119.42027344 -15.8125 118.9375 C-16.79154297 118.46505859 -17.77058594 117.99261719 -18.77929688 117.50585938 C-21.18870167 116.34229316 -23.59544007 115.17353704 -26 114 C-26 113.01 -26 112.02 -26 111 C-25.28714844 110.64808594 -24.57429688 110.29617187 -23.83984375 109.93359375 C-12.39545309 104.03426451 -7.07332498 98.35463033 -3 86 C-0.38837531 74.63791117 -0.8220789 62.58076601 -0.68359375 50.9765625 C-0.6629524 49.49441037 -0.64195448 48.01226317 -0.62062073 46.53012085 C-0.56613958 42.68013573 -0.516413 38.83010427 -0.46777344 34.9800415 C-0.41700858 31.03092458 -0.36161334 27.08187269 -0.30664062 23.1328125 C-0.19996762 15.42192918 -0.09876113 7.71098946 0 0 Z " fill="#2BA977" transform="translate(104,43)"/>
<path d="M0 0 C9.24 0 18.48 0 28 0 C28 9.24 28 18.48 28 28 C18.76 28 9.52 28 0 28 C0 18.76 0 9.52 0 0 Z " fill="#2AA977" transform="translate(101,0)"/>
</svg>
