<?xml version="1.0" encoding="UTF-8"?>
<svg version="1.1" xmlns="http://www.w3.org/2000/svg" width="121" height="163">
<path d="M0 0 C3 1 3 1 3.984375 2.75 C6.60556963 10.4531026 6.39791474 16.33496487 3.125 23.8125 C-1.63922348 32.62905149 -9.03641412 39.6072996 -16.875 45.6875 C-22.99680076 50.53939931 -26.29414327 55.08570359 -27.6875 62.8125 C-27.0513399 71.93685337 -20.14435181 80.7760166 -15 88 C-15.33 88.66 -15.66 89.32 -16 90 C-17.7074998 88.71937515 -19.37373596 87.38232443 -21 86 C-21 85.34 -21 84.68 -21 84 C-21.56589844 83.77828125 -22.13179687 83.5565625 -22.71484375 83.328125 C-25.70353348 81.59110875 -27.39437634 79.43539174 -29.5625 76.75 C-30.32691406 75.81671875 -31.09132813 74.8834375 -31.87890625 73.921875 C-36.03564056 68.19583953 -37.70248917 63.7686795 -37.46484375 56.734375 C-35.7217132 46.48066591 -23.4282482 38.87950163 -15.8125 32.875 C-5.5050535 24.68431885 -5.5050535 24.68431885 0 13 C0.29969124 8.64219464 0.24255209 4.35920012 0 0 Z " fill="#E76F00" transform="translate(76,0)"/>
<path d="M0 0 C-3.49086277 2.32724184 -6.70893324 3.13427859 -10.72265625 4.21875 C-13.16215534 4.86922513 -13.16215534 4.86922513 -15 7 C-5.40121204 11.21208448 5.59699252 11.36140678 15.9375 11.6875 C17.10700195 11.72584961 18.27650391 11.76419922 19.48144531 11.80371094 C34.57416705 12.21805312 49.39215762 11.47088618 64.375 9.625 C65.32020508 9.51124023 66.26541016 9.39748047 67.23925781 9.28027344 C72.88697509 8.52035454 77.7417189 7.20429114 83 5 C83 3.68 83 2.36 83 1 C84.32 1.66 85.64 2.32 87 3 C86.875 4.75 86.875 4.75 86 7 C64.09086803 23.83302516 21.90350755 19.25078653 -3.625 16.6875 C-4.82705078 16.56987305 -6.02910156 16.45224609 -7.26757812 16.33105469 C-13.90336578 15.59853267 -19.75702499 14.37605765 -26 12 C-26.33 10.35 -26.66 8.7 -27 7 C-18.02314121 0.89107272 -10.78891215 -0.3188841 0 0 Z " fill="#5382A0" transform="translate(27,138)"/>
<path d="M0 0 C-1.59328125 0.96099609 -1.59328125 0.96099609 -3.21875 1.94140625 C-18.28972655 10.16443981 -18.28972655 10.16443981 -27 24 C-26.39485433 28.66826659 -24.58489943 31.72713607 -21.9375 35.5 C-19.26304242 39.36092037 -17.90892112 42.17281927 -18 47 C-20.56295894 54.1193304 -25.81379618 58.11563946 -32 62 C-31.71125 61.319375 -31.4225 60.63875 -31.125 59.9375 C-30.75375 58.968125 -30.3825 57.99875 -30 57 C-29.54625 55.88625 -29.0925 54.7725 -28.625 53.625 C-27.93319555 49.61253421 -28.51587045 48.16092404 -30.7109375 44.80859375 C-31.13632813 44.21175781 -31.56171875 43.61492187 -32 43 C-35.91894321 37.4840308 -38.41331395 32.94124316 -38 26 C-36.54891545 19.0373399 -32.96192154 14.11865492 -27.2421875 10.02734375 C-7.98936754 -2.38260647 -7.98936754 -2.38260647 0 0 Z " fill="#E76F00" transform="translate(98,34)"/>
<path d="M0 0 C-1 2 -1 2 -3.6171875 2.96484375 C-5.78356678 3.61164044 -7.95023242 4.2574788 -10.1171875 4.90234375 C-12.86848007 5.94992263 -14.16978278 6.75382432 -16 9 C7.37139165 11.17408294 30.8048533 9.33896446 54 6 C49.41857298 11.34499819 43.25132676 12.61376772 36.625 13.625 C35.83843018 13.74979736 35.05186035 13.87459473 34.24145508 14.00317383 C26.50499325 15.17315355 18.81915655 15.73689484 11 16 C9.94941406 16.04125 8.89882813 16.0825 7.81640625 16.125 C1.04989556 16.26291614 -5.64099992 15.79316807 -12.375 15.1875 C-13.2196582 15.11748779 -14.06431641 15.04747559 -14.93457031 14.9753418 C-20.18084542 14.45393732 -24.26441064 13.32950151 -29 11 C-28.83984375 9.1640625 -28.83984375 9.1640625 -28 7 C-19.79480459 2.10662152 -9.54487899 -0.50236205 0 0 Z " fill="#5382A1" transform="translate(42,89)"/>
<path d="M0 0 C0 0.66 0 1.32 0 2 C3.30839535 2.99197681 6.3153005 3.12896758 9.76171875 3.1328125 C10.88126953 3.13410156 12.00082031 3.13539063 13.15429688 3.13671875 C14.32025391 3.13285156 15.48621094 3.12898437 16.6875 3.125 C17.83412109 3.12886719 18.98074219 3.13273438 20.16210938 3.13671875 C25.18290544 3.13097084 30.06972879 3.06306224 35.046875 2.37109375 C38.85920372 2.01321704 40.36326005 2.01795603 43.5625 3.9375 C44.22378906 4.31777344 44.88507813 4.69804687 45.56640625 5.08984375 C46.03949219 5.39019531 46.51257813 5.69054687 47 6 C47 6.66 47 7.32 47 8 C45.14856606 8.6536261 43.29369242 9.29751218 41.4375 9.9375 C40.40496094 10.29714844 39.37242188 10.65679687 38.30859375 11.02734375 C24.95396525 14.95332072 6.71161956 15.06040851 -5.78125 8.55078125 C-8 7 -8 7 -8.625 4.5 C-8 2 -8 2 -5.6875 0.125 C-3 -1 -3 -1 0 0 Z " fill="#5382A1" transform="translate(39,127)"/>
<path d="M0 0 C-0.99 1.485 -0.99 1.485 -2 3 C4.74105965 4.57410914 11.08331449 5.32105508 18 5.25 C18.89920166 5.2490332 19.79840332 5.24806641 20.72485352 5.24707031 C27.61030089 5.17690323 34.35623768 4.5609688 41.13867188 3.36035156 C44.96724863 2.78228329 47.30797548 2.83557578 50.50390625 4.953125 C51.32761719 5.62859375 52.15132812 6.3040625 53 7 C52.67 7.66 52.34 8.32 52 9 C49.15625 9.81640625 49.15625 9.81640625 45.5 10.5625 C43.72109375 10.93568359 43.72109375 10.93568359 41.90625 11.31640625 C27.43277345 13.84926465 4.47768983 17.2012216 -8.3359375 8.39453125 C-8.88507812 7.93433594 -9.43421875 7.47414063 -10 7 C-9.875 4.6875 -9.875 4.6875 -9 2 C-3.92647059 -1.30882353 -3.92647059 -1.30882353 0 0 Z " fill="#5382A1" transform="translate(36,109)"/>
<path d="M0 0 C0.495 1.485 0.495 1.485 1 3 C-1.99711879 8.31307422 -6.44125628 10.16805193 -12 12 C-22.9290388 14.81032426 -33.5054158 16.15341104 -44.75390625 16.203125 C-45.77242172 16.20882507 -46.79093719 16.21452515 -47.84031677 16.22039795 C-49.9893186 16.22980533 -52.13833458 16.23636488 -54.28735352 16.24023438 C-57.52842279 16.24989839 -60.76884586 16.28094621 -64.00976562 16.3125 C-86.74858881 16.42872507 -86.74858881 16.42872507 -97 13 C-97.33 12.34 -97.66 11.68 -98 11 C-96.67923462 11.10393066 -96.67923462 11.10393066 -95.33178711 11.20996094 C-85.40228591 11.93813732 -75.51779667 12.24098 -65.5625 12.25 C-64.78129791 12.25100708 -64.00009583 12.25201416 -63.19522095 12.25305176 C-29.96636411 12.41073246 -29.96636411 12.41073246 0 0 Z " fill="#5382A1" transform="translate(120,147)"/>
<path d="M0 0 C3.70414267 3.15941581 5.89199418 5.2397107 6.625 10.1875 C5.78374854 16.28657306 3.33631442 20.09461113 -1.3125 23.9375 C-6.59513516 27.64233487 -12.68948914 30.05146929 -18.875 31.8125 C-19.535 31.4825 -20.195 31.1525 -20.875 30.8125 C-20.07835938 30.24402344 -19.28171875 29.67554687 -18.4609375 29.08984375 C-8.37933544 22.54509848 -8.37933544 22.54509848 -2.3828125 12.7421875 C-2.17887469 9.49117883 -2.68669932 7.15486488 -4.25 4.3125 C-8.30511056 1.99529397 -12.31080864 2.4989296 -16.875 2.8125 C-16.545 1.8225 -16.215 0.8325 -15.875 -0.1875 C-10.69501432 -1.91416189 -5.07750122 -2.09722877 0 0 Z " fill="#5382A0" transform="translate(114.875,89.1875)"/>
</svg>
