<?xml version="1.0" encoding="UTF-8"?>
<svg version="1.1" xmlns="http://www.w3.org/2000/svg" width="120" height="136">
<path d="M0 0 C39.6 0 79.2 0 120 0 C120 9.10347461 119.79802518 17.60353038 118.8125 26.5625 C117.65767405 37.69395858 116.66184658 48.83358233 115.7578125 59.98828125 C115.67670636 60.9878482 115.67670636 60.9878482 115.59396172 62.00760841 C115.09675431 68.14254779 114.60334718 74.27778683 114.11709595 80.41360474 C112.98821652 94.64185896 111.85994643 108.84582061 110 123 C100.60852783 125.74914226 100.60852783 125.74914226 96.03857422 127.07446289 C90.71008098 128.61987397 85.3880047 130.17958651 80.08203125 131.80078125 C78.69987427 132.21529541 78.69987427 132.21529541 77.28979492 132.63818359 C75.56662956 133.15505427 73.8464567 133.68205661 72.13012695 134.22119141 C62.17799987 137.17094324 53.79320994 136.08517532 43.9609375 133.15625 C42.45063461 132.72342712 42.45063461 132.72342712 40.90982056 132.28186035 C37.7278261 131.36691441 34.5515029 130.43381183 31.375 129.5 C29.20477735 128.87248526 27.03420714 128.24617125 24.86328125 127.62109375 C19.57142391 126.09458553 14.28408753 124.55317733 9 123 C8.22784774 113.93761206 7.45713723 104.87510185 6.6875 95.8125 C6.63053452 95.14179474 6.57356903 94.47108948 6.51487732 93.78005981 C4.93997116 75.23370402 3.38200247 56.68622447 1.90112305 38.13208008 C1.8195118 37.11287224 1.8195118 37.11287224 1.73625183 36.07307434 C1.58420791 34.1698918 1.43367404 32.2665888 1.28320312 30.36328125 C1.03481319 27.41343669 0.73367631 24.4748288 0.421875 21.53125 C-0.12404913 14.37357807 0 7.17846088 0 0 Z " fill="#E9CA32" transform="translate(0,0)"/>
<path d="M0 0 C16.5 0 33 0 50 0 C49.42603318 10.33140284 48.8548117 20.49357452 47.75 30.75 C47.4862012 33.28886987 47.22406229 35.82785087 46.96484375 38.3671875 C46.89279221 39.07195221 46.82074066 39.77671692 46.74650574 40.50283813 C45.51982261 52.61887224 44.4296388 64.74849196 43.3125 76.875 C43.19813599 78.11503784 43.08377197 79.35507568 42.96594238 80.63269043 C42.30915587 87.75499191 41.65373546 94.87741783 41 102 C40.31355408 102.19928604 39.62710815 102.39857208 38.91986084 102.60389709 C35.77444237 103.51760303 32.62940661 104.43261965 29.484375 105.34765625 C27.86474854 105.81782166 27.86474854 105.81782166 26.21240234 106.29748535 C19.57288257 108.23043008 12.96450312 110.22470458 6.390625 112.37109375 C4 113 4 113 0 113 C0 75.71 0 38.42 0 0 Z " fill="#FEDE29" transform="translate(60,11)"/>
<path d="M0 0 C11.88 0 23.76 0 36 0 C35.41529465 4.67764277 34.77498426 9.35009445 34 14 C27.4 14 20.8 14 14 14 C14 21.92 14 29.84 14 38 C20.27 38 26.54 38 33 38 C33.07547261 49.01900172 33.05110384 59.99111576 32.5625 71 C32.52326416 71.92441895 32.48402832 72.84883789 32.44360352 73.80126953 C32.24313598 77.95606499 32.00537036 81.94472458 31 86 C20.7140603 88.66272026 10.43495332 90.99327821 0 93 C0 88.05 0 83.1 0 78 C2.37205861 77.01315119 4.74723487 76.0354245 7.125 75.0625 C7.79015625 74.78470703 8.4553125 74.50691406 9.140625 74.22070312 C9.79804687 73.95322266 10.45546875 73.68574219 11.1328125 73.41015625 C11.72980957 73.16402588 12.32680664 72.91789551 12.94189453 72.66430664 C15.55202293 71.82182036 18.2945904 71.4509016 21 71 C21.33 64.4 21.66 57.8 22 51 C17.00339842 51.98106192 17.00339842 51.98106192 12.00927734 52.97460938 C11.3745752 53.09642578 10.73987305 53.21824219 10.0859375 53.34375 C9.4470459 53.46943359 8.8081543 53.59511719 8.14990234 53.72460938 C5.45374726 54.06997196 2.71818461 54 0 54 C0 36.18 0 18.36 0 0 Z " fill="#FFFEFB" transform="translate(65,25)"/>
<path d="M0 0 C4.29 0 8.58 0 13 0 C13 30.69 13 61.38 13 93 C-7.69444444 88.40123457 -7.69444444 88.40123457 -14.625 86.25 C-17.05875 85.5075 -19.4925 84.765 -22 84 C-22 76.41 -22 68.82 -22 61 C-13 62 -13 62 -10 63 C-10 66.3 -10 69.6 -10 73 C-6.7 73.66 -3.4 74.32 0 75 C0 50.25 0 25.5 0 0 Z " fill="#FEFEFB" transform="translate(42,25)"/>
</svg>
