<?xml version="1.0" encoding="UTF-8"?>
<svg version="1.1" xmlns="http://www.w3.org/2000/svg" width="118" height="118">
<path d="M0 0 C1.36898437 0.61875 1.36898437 0.61875 2.765625 1.25 C17.02450199 8.2599507 27.14043747 20.10109367 33 34.75 C37.16784973 48.44032674 37.43833907 66.04284262 31 79 C30.5875 79.91265625 30.175 80.8253125 29.75 81.765625 C22.7400493 96.02450199 10.89890633 106.14043747 -3.75 112 C-17.44032674 116.16784973 -35.04284262 116.43833907 -48 110 C-48.91265625 109.5875 -49.8253125 109.175 -50.765625 108.75 C-65.02450199 101.7400493 -75.14043747 89.89890633 -81 75.25 C-85.16784973 61.55967326 -85.43833907 43.95715738 -79 31 C-78.38125 29.63101563 -78.38125 29.63101563 -77.75 28.234375 C-70.7400493 13.97549801 -58.89890633 3.85956253 -44.25 -2 C-30.55967326 -6.16784973 -12.95715738 -6.43833907 0 0 Z " fill="#13AA52" transform="translate(83,4)"/>
<path d="M0 0 C10.63216127 13.21900408 17.88215703 23.53955292 16.31787109 40.95947266 C15.03442499 49.19836863 9.9785021 55.32944272 4.4140625 61.17578125 C2.18429196 64.05230844 2.07456482 66.42088879 2 70 C1.34 70 0.68 70 0 70 C-0.02578125 69.37351562 -0.0515625 68.74703125 -0.078125 68.1015625 C-0.13484375 67.28429687 -0.1915625 66.46703125 -0.25 65.625 C-0.31960937 64.40683594 -0.31960937 64.40683594 -0.390625 63.1640625 C-0.77179131 60.8425465 -0.77179131 60.8425465 -2.859375 59.93359375 C-3.56578125 59.62550781 -4.2721875 59.31742188 -5 59 C-7.33720241 56.56346649 -9.15750353 53.82286224 -11 51 C-11.42023437 50.37480469 -11.84046875 49.74960938 -12.2734375 49.10546875 C-16.90653833 40.77574491 -16.29694015 29.55564267 -14.1875 20.51953125 C-11.70270024 13.85025966 -7.83672666 9.0216839 -2.890625 3.9609375 C-0.94435972 2.13776878 -0.94435972 2.13776878 0 0 Z " fill="#F3FAF6" transform="translate(59,24)"/>
</svg>
