<?xml version="1.0" encoding="UTF-8"?>
<svg version="1.1" xmlns="http://www.w3.org/2000/svg" width="138" height="143">
<path d="M0 0 C6.77228365 4.9582791 11.9880145 9.82877644 13.53125 18.38671875 C15.73444865 37.97823909 6.31025328 57.51180466 -2.46875 74.38671875 C-1.11330078 74.33451172 -1.11330078 74.33451172 0.26953125 74.28125 C1.44902344 74.25417969 2.62851563 74.22710937 3.84375 74.19921875 C5.01550781 74.16441406 6.18726563 74.12960938 7.39453125 74.09375 C10.53125 74.38671875 10.53125 74.38671875 12.41796875 75.66015625 C14.39146045 78.72079951 14.21012808 81.94663465 13.53125 85.38671875 C9.40388862 92.093681 3.40077966 94.81986308 -4.09375 96.63671875 C-7.58551034 97.38958901 -10.90082398 97.44805845 -14.46875 97.38671875 C-14.50613281 98.258125 -14.54351562 99.12953125 -14.58203125 100.02734375 C-15.85062968 123.01136238 -15.85062968 123.01136238 -24.46875 131.38671875 C-30.35033652 135.99810349 -37.18045832 137.68743296 -44.53125 137.38671875 C-48.95392718 136.77528872 -51.80424068 135.5185498 -55 132.390625 C-61.59952732 123.38648267 -61.64244961 112.05959452 -61.46875 101.38671875 C-62.45875 101.88171875 -62.45875 101.88171875 -63.46875 102.38671875 C-65.71530587 102.53648914 -67.96738768 102.60822049 -70.21875 102.63671875 C-72.03632812 102.67539063 -72.03632812 102.67539063 -73.890625 102.71484375 C-77.75772648 102.36021872 -80.09049431 101.22230277 -83.46875 99.38671875 C-86.00051909 99.5596787 -86.00051909 99.5596787 -88.46875 100.38671875 C-93.79676731 101.77663631 -96.6339295 101.02389357 -101.46875 98.38671875 C-116.54985924 86.24826497 -121.52304146 59.45034524 -124.46875 41.38671875 C-125.75085857 29.47864976 -125.91295168 17.28350633 -118.890625 7.09765625 C-113.49261937 0.41093757 -107.08637818 -3.4097849 -98.46875 -4.61328125 C-90.61412992 -5.2916348 -83.30800715 -4.27334477 -75.69555664 -2.41723633 C-70.64914358 -1.33298736 -67.56928551 -2.06323648 -62.79174805 -3.89038086 C-58.79846638 -5.13306158 -54.86001738 -4.89019377 -50.71875 -4.73828125 C-49.07824049 -4.69463702 -47.43760549 -4.65544077 -45.796875 -4.62109375 C-44.72808105 -4.58459717 -44.72808105 -4.58459717 -43.63769531 -4.54736328 C-8.58871462 -5.61256193 -8.58871462 -5.61256193 0 0 Z " fill="#EFF1F3" transform="translate(124.46875,5.61328125)"/>
<path d="M0 0 C8.71091151 4.78037827 15.14494288 11.83842266 19.4375 20.78125 C19.4375 21.77125 19.4375 22.76125 19.4375 23.78125 C18.84582031 23.81863281 18.25414062 23.85601562 17.64453125 23.89453125 C12.86952901 24.29179897 9.3329496 24.73793 5.4375 27.78125 C3.05573636 32.54477727 3.82654441 38.68572943 5.2734375 43.6484375 C8.20615039 50.91133049 11.99949227 57.77177117 15.765625 64.62890625 C17.4375 67.78125 17.4375 67.78125 18.4375 70.78125 C17.7969165 71.33055176 17.15633301 71.87985352 16.49633789 72.44580078 C14.07821359 75.18880766 13.82449623 76.55423766 13.49609375 80.1484375 C13.3892627 81.19290039 13.28243164 82.23736328 13.17236328 83.31347656 C13.02516846 84.96814941 13.02516846 84.96814941 12.875 86.65625 C12.63579962 88.91972822 12.39233462 91.18275997 12.14453125 93.4453125 C12.02674316 94.53618164 11.90895508 95.62705078 11.78759766 96.75097656 C11.34850493 100.55154765 10.77975919 104.27265156 10.0625 108.03125 C9.86914062 109.04703125 9.67578125 110.0628125 9.4765625 111.109375 C7.87413041 115.22991466 5.12728649 117.6803792 1.46484375 120.06640625 C-2.768432 121.55906417 -7.16245743 121.4210188 -11.5625 120.78125 C-15.47081271 117.98959806 -17.13211785 115.29026664 -18.5625 110.78125 C-18.74802109 108.0809072 -18.83963744 105.47611533 -18.8359375 102.77734375 C-18.85621558 101.21678956 -18.87706614 99.65624272 -18.8984375 98.09570312 C-18.92107537 95.65105945 -18.93752872 93.20670678 -18.94335938 90.76196289 C-18.95287809 88.39156434 -18.98662874 86.02245362 -19.0234375 83.65234375 C-19.01839203 82.92309189 -19.01334656 82.19384003 -19.00814819 81.44248962 C-19.07533025 77.97639047 -19.30522183 76.11354828 -21.45556641 73.33618164 C-23.55940743 71.78353234 -24.99401604 71.14817628 -27.5625 70.78125 C-27.12692084 69.30151655 -26.68889904 67.82250215 -26.25 66.34375 C-25.97929688 65.42335938 -25.70859375 64.50296875 -25.4296875 63.5546875 C-24.90470236 61.87568097 -24.33766117 60.20801226 -23.6953125 58.5703125 C-20.34989012 49.99965897 -19.81989669 38.37864534 -23.5625 29.78125 C-25.72629284 26.97029537 -26.82885347 25.90182144 -30.3671875 25.3203125 C-38.15167682 25.51119833 -38.15167682 25.51119833 -45.5625 27.78125 C-44.42956905 17.93996923 -42.02449654 7.83989537 -34.5625 0.78125 C-23.54454668 -6.77391799 -11.64585464 -5.53888208 0 0 Z " fill="#356892" transform="translate(89.5625,13.21875)"/>
<path d="M0 0 C1.19955322 0.00580078 1.19955322 0.00580078 2.42333984 0.01171875 C7.94562744 0.0927138 12.93273916 0.67451531 18.25 2.25 C18.25 5.85681758 17.30218777 7.06106642 15.375 10.0625 C10.16472795 18.52152992 9.10578428 26.52856296 9.046875 36.37890625 C9.03832489 37.5079966 9.03832489 37.5079966 9.02960205 38.65989685 C9.02021551 40.24061706 9.01364356 41.82135628 9.00976562 43.40209961 C9.00001245 45.80942738 8.96891122 48.21591706 8.9375 50.62304688 C8.93097279 52.16666165 8.92572121 53.71028246 8.921875 55.25390625 C8.9095282 55.96656143 8.8971814 56.67921661 8.88446045 57.41346741 C8.9053227 62.12438016 9.90078582 65.19793776 12.25 69.25 C12.93528045 70.90910004 13.60891863 72.57332564 14.25 74.25 C12.39422809 76.43608729 10.51843641 78.59694347 8.625 80.75 C8.10292969 81.37003906 7.58085938 81.99007812 7.04296875 82.62890625 C4.46826694 85.52147248 2.98723334 87.06335865 -0.8359375 88.03125 C-4.87155834 86.94931412 -6.60620402 84.64801505 -8.75 81.25 C-10.02585293 78.88843204 -11.14345443 76.6429347 -12.1875 74.1875 C-12.47971436 73.50993652 -12.77192871 72.83237305 -13.07299805 72.13427734 C-20.20667326 54.94483787 -29.16572139 29.53202333 -21.75 11.25 C-15.72453265 2.4216748 -10.39526354 -0.12020127 0 0 Z " fill="#346891" transform="translate(31.75,9.75)"/>
<path d="M0 0 C6.77228365 4.9582791 11.9880145 9.82877644 13.53125 18.38671875 C15.73444865 37.97823909 6.31025328 57.51180466 -2.46875 74.38671875 C-1.11330078 74.33451172 -1.11330078 74.33451172 0.26953125 74.28125 C1.44902344 74.25417969 2.62851563 74.22710937 3.84375 74.19921875 C5.01550781 74.16441406 6.18726563 74.12960938 7.39453125 74.09375 C10.53125 74.38671875 10.53125 74.38671875 12.41796875 75.66015625 C14.39146045 78.72079951 14.21012808 81.94663465 13.53125 85.38671875 C9.40388862 92.093681 3.40077966 94.81986308 -4.09375 96.63671875 C-7.58551034 97.38958901 -10.90082398 97.44805845 -14.46875 97.38671875 C-14.50613281 98.258125 -14.54351562 99.12953125 -14.58203125 100.02734375 C-15.85062968 123.01136238 -15.85062968 123.01136238 -24.46875 131.38671875 C-30.35033652 135.99810349 -37.18045832 137.68743296 -44.53125 137.38671875 C-48.95392718 136.77528872 -51.80424068 135.5185498 -55 132.390625 C-61.59952732 123.38648267 -61.64244961 112.05959452 -61.46875 101.38671875 C-62.45875 101.88171875 -62.45875 101.88171875 -63.46875 102.38671875 C-65.71530587 102.53648914 -67.96738768 102.60822049 -70.21875 102.63671875 C-72.03632812 102.67539063 -72.03632812 102.67539063 -73.890625 102.71484375 C-77.75772648 102.36021872 -80.09049431 101.22230277 -83.46875 99.38671875 C-86.00051909 99.5596787 -86.00051909 99.5596787 -88.46875 100.38671875 C-93.79676731 101.77663631 -96.6339295 101.02389357 -101.46875 98.38671875 C-116.54985924 86.24826497 -121.52304146 59.45034524 -124.46875 41.38671875 C-125.75085857 29.47864976 -125.91295168 17.28350633 -118.890625 7.09765625 C-113.49261937 0.41093757 -107.08637818 -3.4097849 -98.46875 -4.61328125 C-90.61412992 -5.2916348 -83.30800715 -4.27334477 -75.69555664 -2.41723633 C-70.64914358 -1.33298736 -67.56928551 -2.06323648 -62.79174805 -3.89038086 C-58.79846638 -5.13306158 -54.86001738 -4.89019377 -50.71875 -4.73828125 C-49.07824049 -4.69463702 -47.43760549 -4.65544077 -45.796875 -4.62109375 C-44.72808105 -4.58459717 -44.72808105 -4.58459717 -43.63769531 -4.54736328 C-8.58871462 -5.61256193 -8.58871462 -5.61256193 0 0 Z M-38.46875 -0.61328125 C-39.95924313 -0.57620431 -41.45151614 -0.59993011 -42.94140625 -0.65625 C-44.29202148 -0.6881543 -44.29202148 -0.6881543 -45.66992188 -0.72070312 C-47.55052069 -0.77333422 -49.43082672 -0.83807923 -51.31054688 -0.91601562 C-57.20626283 -1.0288323 -61.34744855 -0.24100967 -66.5793457 2.53051758 C-70.43243923 4.27658283 -73.75037316 2.62739787 -77.53515625 1.359375 C-86.41639518 -1.1528665 -98.91348032 -1.46345603 -107.34375 2.44921875 C-113.67903453 6.4381016 -117.94984126 11.52075572 -120 18.76953125 C-122.9384733 35.17600719 -118.22962046 51.86176569 -113.15625 67.32421875 C-112.78959229 68.44916748 -112.42293457 69.57411621 -112.04516602 70.7331543 C-107.46648098 85.00380257 -107.46648098 85.00380257 -97.46875 95.38671875 C-94.56523876 96.55120756 -94.56523876 96.55120756 -91.46875 96.38671875 C-86.63853057 93.66435157 -83.47468228 90.40629487 -80.09375 86.13671875 C-79.64386719 85.58242187 -79.19398437 85.028125 -78.73046875 84.45703125 C-77.63584101 83.10621404 -76.55122207 81.74729629 -75.46875 80.38671875 C-74.54835938 80.61681641 -74.54835938 80.61681641 -73.609375 80.8515625 C-72.90296875 81.02816406 -72.1965625 81.20476562 -71.46875 81.38671875 C-70.13541667 81.72005208 -68.80208333 82.05338542 -67.46875 82.38671875 C-71.75384338 85.52215293 -75.28177334 86.99022503 -80.46875 88.38671875 C-82.74402322 90.20282566 -82.74402322 90.20282566 -82.53125 92.82421875 C-81.63945935 95.69911982 -81.63945935 95.69911982 -78.40625 97.19921875 C-73.64060244 98.89150992 -69.02977985 99.48155683 -64.32202148 97.46899414 C-63.62665283 97.10281982 -62.93128418 96.73664551 -62.21484375 96.359375 C-61.50900146 95.99207275 -60.80315918 95.62477051 -60.07592773 95.24633789 C-59.54555908 94.96266357 -59.01519043 94.67898926 -58.46875 94.38671875 C-58.439021 95.27025024 -58.439021 95.27025024 -58.40869141 96.17163086 C-58.31231723 98.88954226 -58.20310288 101.60679978 -58.09375 104.32421875 C-58.0628125 105.25041016 -58.031875 106.17660156 -58 107.13085938 C-57.74306669 118.61871666 -57.74306669 118.61871666 -52.46875 128.38671875 C-51.953125 128.94359375 -51.4375 129.50046875 -50.90625 130.07421875 C-47.48399435 133.19888695 -43.77141778 132.65353683 -39.359375 132.6015625 C-33.74906508 132.18458001 -29.91508499 130.58151722 -25.59375 127.01171875 C-21.34977605 121.7691627 -20.77567283 116.00665029 -19.84375 109.51171875 C-19.7096875 108.63902344 -19.575625 107.76632813 -19.4375 106.8671875 C-18.71776842 101.98329462 -18.32082253 97.32211694 -18.46875 92.38671875 C-17.2003125 92.43892578 -17.2003125 92.43892578 -15.90625 92.4921875 C-7.32613422 92.69694026 -1.03580344 92.30175487 5.96875 86.94921875 C8.56359618 84.65256986 8.56359618 84.65256986 9.53125 82.19921875 C9.53125 81.60109375 9.53125 81.00296875 9.53125 80.38671875 C7.77937689 78.19849509 7.77937689 78.19849509 5.65185547 78.25146484 C4.53641357 78.33001709 4.53641357 78.33001709 3.3984375 78.41015625 C2.59277344 78.46171875 1.78710938 78.51328125 0.95703125 78.56640625 C0.11527344 78.63085938 -0.72648437 78.6953125 -1.59375 78.76171875 C-2.44324219 78.8184375 -3.29273437 78.87515625 -4.16796875 78.93359375 C-6.2688845 79.07522852 -8.36892334 79.22976201 -10.46875 79.38671875 C-9.59863281 77.824375 -9.59863281 77.824375 -8.7109375 76.23046875 C1.19604624 58.16116744 10.77708093 37.50822392 8.53125 16.38671875 C4.33180617 7.88872916 -2.78077478 2.76692776 -11.46875 -0.61328125 C-16.42263399 -2.04142799 -21.54508166 -1.76017062 -26.65625 -1.73828125 C-27.57083984 -1.74214844 -28.48542969 -1.74601563 -29.42773438 -1.75 C-30.73774414 -1.74806641 -30.73774414 -1.74806641 -32.07421875 -1.74609375 C-32.86981201 -1.74496582 -33.66540527 -1.74383789 -34.48510742 -1.74267578 C-36.54430521 -1.73718895 -36.54430521 -1.73718895 -38.46875 -0.61328125 Z " fill="#060606" transform="translate(124.46875,5.61328125)"/>
<path d="M0 0 C14.14182082 -0.55458121 25.07604197 -0.09141619 36 10 C39.88195055 14.16751932 39.43348315 17.86089558 39.26953125 23.33203125 C38.03644704 40.11269901 31.5697542 55.63248498 23 70 C21.88190916 66.64572749 22.17946115 66.24690059 23 63 C23.26940606 58.0995379 23.31317907 53.20112407 23.35009766 48.29394531 C23.36659016 46.69190882 23.39379124 45.08994387 23.43212891 43.48828125 C23.66088603 33.8605901 23.62768711 26.24664349 18 18 C17.53287598 17.26322021 17.06575195 16.52644043 16.58447266 15.76733398 C12.56527913 9.59042755 6.54689137 5.27344568 0 2 C0 1.34 0 0.68 0 0 Z " fill="#376A93" transform="translate(90,8)"/>
<path d="M0 0 C0.86625 -0.03738281 1.7325 -0.07476562 2.625 -0.11328125 C5 0.3125 5 0.3125 6.75 1.95703125 C10.72989839 9.45665228 10.03985605 19.95733304 7.8359375 27.90234375 C7.34365604 29.46072071 6.83585717 31.01428262 6.3125 32.5625 C6.06878662 33.31378174 5.82507324 34.06506348 5.57397461 34.83911133 C4.80078125 36.953125 4.80078125 36.953125 3 40.3125 C0.484375 41.39453125 0.484375 41.39453125 -2 41.3125 C-6.54395899 38.99415358 -10.12243446 36.12261225 -12 31.3125 C-12.58977521 26.74202407 -12.55816547 22.22734279 -12.5 17.625 C-12.51546875 16.38943359 -12.5309375 15.15386719 -12.546875 13.88085938 C-12.54171875 12.69943359 -12.5365625 11.51800781 -12.53125 10.30078125 C-12.52673828 9.22352783 -12.52222656 8.14627441 -12.51757812 7.03637695 C-12 4.3125 -12 4.3125 -10.15429688 2.50073242 C-6.72775627 0.61077627 -3.85795753 0.10907916 0 0 Z " fill="#386B93" transform="translate(56,41.6875)"/>
<path d="M0 0 C3.3 0 6.6 0 10 0 C9.67 10.89 9.34 21.78 9 33 C8.01 33.495 8.01 33.495 7 34 C5.70326398 31.46080994 4.41252163 28.91885762 3.125 26.375 C2.76019531 25.66214844 2.39539063 24.94929688 2.01953125 24.21484375 C-0.73743074 18.75104635 -3.27982012 13.5543578 -3.3125 7.3125 C-3.32925781 6.56613281 -3.34601563 5.81976563 -3.36328125 5.05078125 C-3 3 -3 3 0 0 Z " fill="#396C94" transform="translate(100,41)"/>
<path d="M0 0 C2.0625 0.4375 2.0625 0.4375 4 1 C4.33 2.32 4.66 3.64 5 5 C1.97211747 8.69952193 -0.50414097 10.82258416 -5.359375 11.3984375 C-8.59136797 11.37726724 -11.77899683 11.26155514 -15 11 C-15 10.34 -15 9.68 -15 9 C-14.40832031 8.84144531 -13.81664062 8.68289062 -13.20703125 8.51953125 C-7.88515536 6.94814538 -4.67292188 5.36159473 -1 1 C-0.67 0.67 -0.34 0.34 0 0 Z " fill="#3C6E96" transform="translate(62,88)"/>
<path d="M0 0 C1.18613892 0.07069702 1.18613892 0.07069702 2.39624023 0.14282227 C3.67724609 0.21533203 3.67724609 0.21533203 4.98413086 0.28930664 C5.88196289 0.34538086 6.77979492 0.40145508 7.70483398 0.45922852 C8.6065332 0.51143555 9.50823242 0.56364258 10.43725586 0.61743164 C12.67259948 0.74753101 14.90754288 0.88250788 17.14233398 1.02172852 C13.6439139 4.73371494 10.47067909 5.92230882 5.30639648 6.14282227 C2.58191374 6.14632417 -0.13469251 6.10894119 -2.85766602 6.02172852 C-2.90038702 4.35560946 -2.89830434 2.68789967 -2.85766602 1.02172852 C-1.85766602 0.02172852 -1.85766602 0.02172852 0 0 Z " fill="#417198" transform="translate(109.857666015625,87.978271484375)"/>
<path d="M0 0 C4.455 0.99 4.455 0.99 9 2 C5.35852358 6.34627831 2.42949585 7.67817009 -2.97265625 9.2421875 C-5.58769383 10.21967746 -6.72762243 11.54007003 -8 14 C-8.77734375 12.328125 -8.77734375 12.328125 -9 10 C-7.12890625 7.421875 -7.12890625 7.421875 -4.5625 4.75 C-3.29599609 3.41195312 -3.29599609 3.41195312 -2.00390625 2.046875 C-1.34261719 1.37140625 -0.68132813 0.6959375 0 0 Z " fill="#181818" transform="translate(49,85)"/>
<path d="M0 0 C2.31 0 4.62 0 7 0 C7 1.32 7 2.64 7 4 C5.35 4 3.7 4 2 4 C1.34 2.68 0.68 1.36 0 0 Z " fill="#EEF3F6" transform="translate(54,44)"/>
<path d="M0 0 C1.98 0 3.96 0 6 0 C5.34 1.32 4.68 2.64 4 4 C2.68 3.67 1.36 3.34 0 3 C0 2.01 0 1.02 0 0 Z " fill="#EEF2F6" transform="translate(100,43)"/>
</svg>
