<?xml version="1.0" encoding="UTF-8"?>
<svg version="1.1" xmlns="http://www.w3.org/2000/svg" width="150" height="150">
<path d="M0 0 C2.56364483 -0.10845031 5.12266279 -0.18749744 7.6875 -0.25 C8.40873047 -0.28351562 9.12996094 -0.31703125 9.87304688 -0.3515625 C13.65409765 -0.42062279 15.5647825 -0.26278397 18.87890625 1.73828125 C20.95196785 3.94878339 22.11022825 5.65085465 23.25 8.4375 C23.56453125 9.17871094 23.8790625 9.91992188 24.203125 10.68359375 C27.99853764 21.71633736 27.91510527 38.39575713 23 49 C21.11149005 51.96935526 19.21150057 54.39424971 16 56 C14.45772144 56.08991092 12.91159105 56.11756961 11.36669922 56.11352539 C10.40585419 56.11344986 9.44500916 56.11337433 8.45504761 56.11329651 C7.41542877 56.10813522 6.37580994 56.10297394 5.3046875 56.09765625 C4.24210724 56.0962413 3.17952698 56.09482635 2.08474731 56.09336853 C-1.31853009 56.08775834 -4.72174238 56.07520409 -8.125 56.0625 C-10.42838447 56.05748631 -12.73176997 56.05292318 -15.03515625 56.04882812 C-20.69012649 56.0377856 -26.34505859 56.02103752 -32 56 C-32 57.32 -32 58.64 -32 60 C-22.76 60 -13.52 60 -4 60 C-3.9175 62.536875 -3.835 65.07375 -3.75 67.6875 C-3.71358398 68.47729248 -3.67716797 69.26708496 -3.63964844 70.08081055 C-3.58168018 73.77815667 -3.77880917 75.63366821 -5.73828125 78.87890625 C-7.94878339 80.95196785 -9.65085465 82.11022825 -12.4375 83.25 C-13.17871094 83.56453125 -13.91992188 83.8790625 -14.68359375 84.203125 C-25.71633736 87.99853764 -42.39575713 87.91510527 -53 83 C-55.96935526 81.11149005 -58.39424971 79.21150057 -60 76 C-60.13562708 73.22609889 -60.21271963 70.4785554 -60.23828125 67.703125 C-60.25038887 66.46354034 -60.25038887 66.46354034 -60.26274109 65.19891357 C-60.27658371 63.44708352 -60.28730507 61.69522648 -60.29516602 59.94335938 C-60.31234417 57.27421304 -60.35622289 54.60631669 -60.40039062 51.9375 C-60.41052082 50.2343841 -60.4190359 48.53125767 -60.42578125 46.828125 C-60.44328934 46.03416321 -60.46079742 45.24020142 -60.47883606 44.42218018 C-60.45845694 39.17075055 -59.55584221 36.11535927 -56 32 C-52.36820323 29.11592609 -47.789795 29.72109121 -43.359375 29.7265625 C-41.63150404 29.70626503 -39.90363951 29.68541409 -38.17578125 29.6640625 C-35.46592784 29.6415253 -32.75632935 29.62501372 -30.04638672 29.61914062 C-27.42108614 29.60955749 -24.79691869 29.57570484 -22.171875 29.5390625 C-21.37263611 29.54410797 -20.57339722 29.54915344 -19.74993896 29.55435181 C-14.10775114 29.45682245 -9.70288957 28.20026939 -5 25 C-0.93039377 19.74889518 -0.78464165 14.19203848 -0.4375 7.75 C-0.37272461 6.63238281 -0.37272461 6.63238281 -0.30664062 5.4921875 C-0.20103275 3.661651 -0.10005799 1.83084824 0 0 Z " fill="#FFC331" transform="translate(107,47)"/>
<path d="M0 0 C2.16206104 1.70742204 3.80731072 3.27868395 5.046875 5.7578125 C5.17032464 8.54347237 5.23529152 11.30312663 5.25 14.08984375 C5.25570007 14.91860519 5.26140015 15.74736664 5.26727295 16.60124207 C5.27672748 18.35727663 5.28325873 20.11332897 5.28710938 21.86938477 C5.29679906 24.54930846 5.3278109 27.22846003 5.359375 29.90820312 C5.36590673 31.61457878 5.37115654 33.32095992 5.375 35.02734375 C5.3873468 35.82646683 5.3996936 36.6255899 5.41241455 37.44892883 C5.39419225 42.02685467 5.10275022 45.10533385 2.046875 48.7578125 C-2.25752482 52.35454563 -6.34642471 52.16993968 -11.69140625 52.12890625 C-13.41601756 52.14629313 -15.1406269 52.16387747 -16.86523438 52.18164062 C-19.56408433 52.19168993 -22.26280207 52.19531429 -24.96166992 52.19360352 C-27.58030799 52.19719627 -30.19794755 52.22462429 -32.81640625 52.25390625 C-33.61250809 52.24572372 -34.40860992 52.2375412 -35.22883606 52.22911072 C-40.86790281 52.30317645 -45.25429667 53.5591599 -49.953125 56.7578125 C-54.02273123 62.00891732 -54.16848335 67.56577402 -54.515625 74.0078125 C-54.55880859 74.75289063 -54.60199219 75.49796875 -54.64648438 76.265625 C-54.75209225 78.0961615 -54.85306701 79.92696426 -54.953125 81.7578125 C-57.51676983 81.86626281 -60.07578779 81.94530994 -62.640625 82.0078125 C-63.36185547 82.04132813 -64.08308594 82.07484375 -64.82617188 82.109375 C-68.60722265 82.17843529 -70.5179075 82.02059647 -73.83203125 80.01953125 C-75.90509285 77.80902911 -77.06335325 76.10695785 -78.203125 73.3203125 C-78.51765625 72.57910156 -78.8321875 71.83789062 -79.15625 71.07421875 C-82.95166264 60.04147514 -82.86823027 43.36205537 -77.953125 32.7578125 C-76.06461505 29.78845724 -74.16462557 27.36356279 -70.953125 25.7578125 C-69.41084644 25.66790158 -67.86471605 25.64024289 -66.31982422 25.64428711 C-65.35897919 25.64436264 -64.39813416 25.64443817 -63.40817261 25.64451599 C-62.36855377 25.64967728 -61.32893494 25.65483856 -60.2578125 25.66015625 C-59.19523224 25.6615712 -58.13265198 25.66298615 -57.03787231 25.66444397 C-53.63459491 25.67005416 -50.23138262 25.68260841 -46.828125 25.6953125 C-44.52474053 25.70032619 -42.22135503 25.70488932 -39.91796875 25.70898438 C-34.26299851 25.7200269 -28.60806641 25.73677498 -22.953125 25.7578125 C-22.953125 24.4378125 -22.953125 23.1178125 -22.953125 21.7578125 C-32.193125 21.7578125 -41.433125 21.7578125 -50.953125 21.7578125 C-51.035625 19.2209375 -51.118125 16.6840625 -51.203125 14.0703125 C-51.23954102 13.28052002 -51.27595703 12.49072754 -51.31347656 11.67700195 C-51.37144482 7.97965583 -51.17431583 6.12414429 -49.21484375 2.87890625 C-47.00434161 0.80584465 -45.30227035 -0.35241575 -42.515625 -1.4921875 C-41.77441406 -1.80671875 -41.03320312 -2.12125 -40.26953125 -2.4453125 C-28.885463 -6.36158556 -10.33925755 -6.5757678 0 0 Z " fill="#387EB8" transform="translate(97.953125,21.2421875)"/>
<path d="M0 0 C1.32278481 5.41139241 1.32278481 5.41139241 -0.0625 7.9375 C-2.91093248 9.49954362 -4.93504903 8.74921024 -8 8 C-9.32278481 2.58860759 -9.32278481 2.58860759 -7.9375 0.0625 C-5.08906752 -1.49954362 -3.06495097 -0.74921024 0 0 Z " fill="#FFFBF3" transform="translate(94,116)"/>
<path d="M0 0 C1.32278481 5.41139241 1.32278481 5.41139241 -0.0625 7.9375 C-2.91093248 9.49954362 -4.93504903 8.74921024 -8 8 C-9.32278481 2.58860759 -9.32278481 2.58860759 -7.9375 0.0625 C-5.08906752 -1.49954362 -3.06495097 -0.74921024 0 0 Z " fill="#F3F7FA" transform="translate(64,26)"/>
</svg>
