<?xml version="1.0" encoding="UTF-8"?>
<svg version="1.1" xmlns="http://www.w3.org/2000/svg" width="166" height="149">
<path d="M0 0 C0.84151611 0.00064453 1.68303223 0.00128906 2.55004883 0.00195312 C9.48521599 0.1672825 14.9569896 1.77630806 20.875 5.5 C20.875 6.16 20.875 6.82 20.875 7.5 C21.6175 7.768125 22.36 8.03625 23.125 8.3125 C25.875 9.5 25.875 9.5 27.875 11.25 C29.81309928 12.7774995 29.81309928 12.7774995 32.125 12.0625 C34.50281419 10.71146921 36.47751116 9.29952999 38.625 7.625 C46.18124686 1.94737805 52.0557827 0.12333521 61.5 -0.0625 C62.71780151 -0.10286377 62.71780151 -0.10286377 63.96020508 -0.14404297 C69.92809241 -0.10626767 73.54501861 1.37960654 77.875 5.5 C79.58203125 7.52734375 79.58203125 7.52734375 80.6875 9.4375 C81.06519531 10.06527344 81.44289062 10.69304688 81.83203125 11.33984375 C84.91320109 17.7214427 85.12505289 23.1605159 85 30.125 C84.99097656 31.06601562 84.98195312 32.00703125 84.97265625 32.9765625 C84.95529886 34.72221996 84.9338141 36.46784513 84.90673828 38.21337891 C84.87765463 40.30874415 84.875 42.40443293 84.875 44.5 C85.9371875 44.99628906 86.999375 45.49257813 88.09375 46.00390625 C104.03491572 53.60910795 104.03491572 53.60910795 108.875 59.5 C108.875 60.16 108.875 60.82 108.875 61.5 C109.535 61.5 110.195 61.5 110.875 61.5 C113.47616565 66.01419224 114.2841999 69.30161529 114.25 74.5 C114.25773438 75.675625 114.26546875 76.85125 114.2734375 78.0625 C113.50432043 84.69801983 109.96672586 89.96932092 104.8515625 94.15625 C98.31771208 98.97734351 91.32024944 102.3141801 83.875 105.5 C84.03508545 106.07492188 84.1951709 106.64984375 84.36010742 107.2421875 C86.93784811 118.54562319 85.76711976 132.55824714 79.671875 142.453125 C76.86940159 146.10698274 73.52313976 149.02944518 68.90063477 149.85083008 C55.10274053 151.02437409 45.95182728 148.33445808 35.0625 139.5625 C34.340625 138.881875 33.61875 138.20125 32.875 137.5 C28.61543138 139.50040489 24.82532498 142.13439239 20.921875 144.74609375 C14.3167248 148.54828918 8.48878958 150.06300399 0.875 150 C0.08335449 149.99500488 -0.70829102 149.99000977 -1.52392578 149.98486328 C-7.46884353 149.80642961 -11.88257199 148.95514028 -16.125 144.5 C-22.29851693 137.32537222 -23.38648191 128.88321901 -23.4375 119.75 C-23.44297852 119.02901123 -23.44845703 118.30802246 -23.45410156 117.56518555 C-23.395333 113.182368 -22.73253262 109.57326992 -21.125 105.5 C-22.341875 105.355625 -23.55875 105.21125 -24.8125 105.0625 C-33.01976514 103.27774552 -41.63091744 96.75234578 -47.125 90.5 C-47.125 89.84 -47.125 89.18 -47.125 88.5 C-47.785 88.5 -48.445 88.5 -49.125 88.5 C-53.07815774 81.63731816 -53.09912206 75.24386109 -52.125 67.5 C-47.4861717 54.94787638 -33.47905382 48.73529859 -22.125 43.5 C-22.28508545 42.92056641 -22.4451709 42.34113281 -22.61010742 41.74414062 C-25.14164499 30.71052598 -23.86263401 17.20634623 -17.921875 7.54296875 C-12.91123926 1.025971 -7.75718798 -0.05485881 0 0 Z " fill="#59C3DF" transform="translate(52.125,-0.5)"/>
<path d="M0 0 C0.84151611 0.00064453 1.68303223 0.00128906 2.55004883 0.00195312 C9.48521599 0.1672825 14.9569896 1.77630806 20.875 5.5 C20.875 6.16 20.875 6.82 20.875 7.5 C21.6175 7.768125 22.36 8.03625 23.125 8.3125 C25.875 9.5 25.875 9.5 27.875 11.25 C29.81309928 12.7774995 29.81309928 12.7774995 32.125 12.0625 C34.50281419 10.71146921 36.47751116 9.29952999 38.625 7.625 C46.18124686 1.94737805 52.0557827 0.12333521 61.5 -0.0625 C62.71780151 -0.10286377 62.71780151 -0.10286377 63.96020508 -0.14404297 C69.92809241 -0.10626767 73.54501861 1.37960654 77.875 5.5 C79.58203125 7.52734375 79.58203125 7.52734375 80.6875 9.4375 C81.06519531 10.06527344 81.44289062 10.69304688 81.83203125 11.33984375 C84.91320109 17.7214427 85.12505289 23.1605159 85 30.125 C84.99097656 31.06601562 84.98195312 32.00703125 84.97265625 32.9765625 C84.95529886 34.72221996 84.9338141 36.46784513 84.90673828 38.21337891 C84.87765463 40.30874415 84.875 42.40443293 84.875 44.5 C85.9371875 44.99628906 86.999375 45.49257813 88.09375 46.00390625 C104.03491572 53.60910795 104.03491572 53.60910795 108.875 59.5 C108.875 60.16 108.875 60.82 108.875 61.5 C109.535 61.5 110.195 61.5 110.875 61.5 C113.47616565 66.01419224 114.2841999 69.30161529 114.25 74.5 C114.25773438 75.675625 114.26546875 76.85125 114.2734375 78.0625 C113.50432043 84.69801983 109.96672586 89.96932092 104.8515625 94.15625 C98.31771208 98.97734351 91.32024944 102.3141801 83.875 105.5 C84.03508545 106.07492188 84.1951709 106.64984375 84.36010742 107.2421875 C86.93784811 118.54562319 85.76711976 132.55824714 79.671875 142.453125 C76.86940159 146.10698274 73.52313976 149.02944518 68.90063477 149.85083008 C55.10274053 151.02437409 45.95182728 148.33445808 35.0625 139.5625 C34.340625 138.881875 33.61875 138.20125 32.875 137.5 C28.61543138 139.50040489 24.82532498 142.13439239 20.921875 144.74609375 C14.3167248 148.54828918 8.48878958 150.06300399 0.875 150 C0.08335449 149.99500488 -0.70829102 149.99000977 -1.52392578 149.98486328 C-7.46884353 149.80642961 -11.88257199 148.95514028 -16.125 144.5 C-22.29851693 137.32537222 -23.38648191 128.88321901 -23.4375 119.75 C-23.44297852 119.02901123 -23.44845703 118.30802246 -23.45410156 117.56518555 C-23.395333 113.182368 -22.73253262 109.57326992 -21.125 105.5 C-22.341875 105.355625 -23.55875 105.21125 -24.8125 105.0625 C-33.01976514 103.27774552 -41.63091744 96.75234578 -47.125 90.5 C-47.125 89.84 -47.125 89.18 -47.125 88.5 C-47.785 88.5 -48.445 88.5 -49.125 88.5 C-53.07815774 81.63731816 -53.09912206 75.24386109 -52.125 67.5 C-47.4861717 54.94787638 -33.47905382 48.73529859 -22.125 43.5 C-22.28508545 42.92056641 -22.4451709 42.34113281 -22.61010742 41.74414062 C-25.14164499 30.71052598 -23.86263401 17.20634623 -17.921875 7.54296875 C-12.91123926 1.025971 -7.75718798 -0.05485881 0 0 Z M-11.125 15.5 C-16.86617625 25.50075862 -14.68147501 39.72628388 -12.125 50.5 C-13.383125 50.70625 -14.64125 50.9125 -15.9375 51.125 C-25.80919235 53.33252805 -34.51086536 59.1416501 -41.0625 66.75 C-42.71060685 71.01568831 -42.75751462 74.99242457 -42.125 79.5 C-37.63273687 89.04605916 -27.57708551 94.74437136 -18.125 98.5 C-16.13572889 98.89231565 -14.13628093 99.24336772 -12.125 99.5 C-12.44855469 100.634375 -12.77210937 101.76875 -13.10546875 102.9375 C-14.24065919 107.49833588 -14.45748093 111.81646967 -14.4375 116.5 C-14.45361328 117.25539063 -14.46972656 118.01078125 -14.48632812 118.7890625 C-14.4929035 126.44279887 -12.48689097 132.80299084 -7.125 138.5 C-2.57538264 141.53307824 1.80070026 141.09959747 7.078125 140.0703125 C16.33991027 137.37173478 24.18914483 131.13629379 31.875 125.5 C32.56722656 126.15355469 32.56722656 126.15355469 33.2734375 126.8203125 C41.6392186 134.45863437 50.76654208 141.06345746 62.4375 140.8203125 C66.94165863 140.22841986 69.61920857 137.84549082 72.625 134.625 C76.27639162 128.41763424 76.15013567 122.42529168 76.0625 115.4375 C76.06185547 114.45716797 76.06121094 113.47683594 76.06054688 112.46679688 C76.03318032 107.98780362 75.85883364 103.88529738 74.875 99.5 C75.70902344 99.20867187 76.54304688 98.91734375 77.40234375 98.6171875 C88.2991899 94.64788959 98.1661175 89.97598849 104.0078125 79.4609375 C105.30411783 76.52965248 105.30487112 74.69332834 104.875 71.5 C100.07478741 60.3367149 89.8050765 56.25689318 79.2890625 51.8203125 C76.17418385 50.37976843 76.17418385 50.37976843 73.875 50.5 C74.019375 49.96375 74.16375 49.4275 74.3125 48.875 C76.73163687 38.66086655 78.20227364 25.03855714 72.875 15.5 C70.2416612 12.33999344 68.76862319 10.7978744 64.875 9.5 C53.24604132 9.12007663 44.94293512 12.56268762 36.5 20.4375 C35.62214844 21.34822266 35.62214844 21.34822266 34.7265625 22.27734375 C32.875 23.5 32.875 23.5 30.33984375 23.359375 C27.79907229 22.47352758 26.67407699 21.70386222 24.8125 19.8125 C17.58692498 13.22353952 8.01342336 8.95202502 -1.80859375 9.09765625 C-6.04463603 9.83342751 -8.50295291 12.21711178 -11.125 15.5 Z " fill="#FCFDFE" transform="translate(52.125,-0.5)"/>
<path d="M0 0 C1.24402588 0.04261963 2.48805176 0.08523926 3.76977539 0.12915039 C5.03635986 0.15178955 6.30294434 0.17442871 7.60791016 0.19775391 C17.82170596 0.79163374 17.82170596 0.79163374 21.26977539 4.25024414 C23.32166395 7.65269216 24.59738744 10.86083251 25.83227539 14.62915039 C26.83980084 16.29610248 27.87748354 17.94557471 28.95727539 19.56665039 C30.7010567 22.29063175 30.93541147 23.15901062 30.23071289 26.37133789 C28.52044767 30.35558703 26.49715421 34.06442432 24.33227539 37.81665039 C23.92879883 38.52756836 23.52532227 39.23848633 23.10961914 39.97094727 C21.42515656 42.92570589 19.72047225 45.7968551 17.83227539 48.62915039 C9.43962324 50.34788698 -4.46896488 51.76271134 -12.18969727 47.51733398 C-15.54331008 44.22762124 -16.76175156 39.99481585 -18.16772461 35.62915039 C-19.28907583 33.77277476 -20.41379177 31.91842512 -21.54272461 30.06665039 C-22.99740775 26.70330582 -23.3284835 25.23318999 -22.37866211 21.66430664 C-20.83608663 18.4595442 -19.11951679 15.60598451 -17.16772461 12.62915039 C-16.73580811 11.71456055 -16.3038916 10.7999707 -15.85888672 9.85766602 C-11.89043694 2.17381979 -8.63647276 0.23225978 0 0 Z " fill="#FAFDFE" transform="translate(79.167724609375,49.370849609375)"/>
<path d="M0 0 C1.27617188 0.00580078 1.27617188 0.00580078 2.578125 0.01171875 C4.33561512 5.32620082 4.91543738 9.9914342 4.890625 15.57421875 C4.90673828 16.30318359 4.92285156 17.03214844 4.93945312 17.78320312 C4.94453227 23.42613121 3.81684087 27.69580578 -0.234375 31.88671875 C-3.16623222 33.39453103 -5.14047955 33.24213151 -8.421875 33.01171875 C-16.71380679 30.05750823 -23.236499 25.16585548 -29.421875 19.01171875 C-26.57195131 12.85709631 -22.71917114 6.37448574 -17.421875 2.01171875 C-11.62643068 -0.09167168 -6.08959735 0.02085479 0 0 Z " fill="#FAFDFE" transform="translate(117.421875,100.98828125)"/>
<path d="M0 0 C1.3320283 2.42758415 2.34205846 4.62154554 3.3125 7.1875 C3.72725586 8.1784668 3.72725586 8.1784668 4.15039062 9.18945312 C7.08414959 16.67534188 4.8551104 21.8889816 1.9375 28.875 C1.65583984 29.56335938 1.37417969 30.25171875 1.08398438 30.9609375 C0.39484734 32.64289909 -0.30180798 34.32177697 -1 36 C-11.06472306 33.94977864 -19.37740725 30.04027315 -26 22 C-27.45147903 19.09704195 -27.37239025 17.22738221 -27 14 C-22.82750277 7.32400444 -8.2137629 -4.2121861 0 0 Z " fill="#FBFDFE" transform="translate(43,57)"/>
<path d="M0 0 C16.62156814 -0.53029928 16.62156814 -0.53029928 22.22314453 3.66503906 C26.45425955 7.96124815 29.86754677 12.86131 33 18 C29.85481131 21.26313326 26.72077827 24.10039636 23 26.6875 C22.175 27.26886719 21.35 27.85023438 20.5 28.44921875 C14.86031927 31.94758321 9.57830662 33.08897643 3 32 C-0.51509264 28.99931116 -1.31865687 26.4413478 -2 22 C-2.11655216 19.73129864 -2.17497707 17.45915875 -2.1875 15.1875 C-2.20167969 14.02605469 -2.21585938 12.86460938 -2.23046875 11.66796875 C-1.97004085 7.52319245 -1.11165261 3.99404042 0 0 Z " fill="#FBFDFE" transform="translate(46,101)"/>
<path d="M0 0 C4.59646481 4.29669537 5.79688085 7.66034326 6.16796875 13.76171875 C6.21255971 20.44144496 5.54697668 26.50951208 4 33 C1.06202558 32.69152766 -1.87532282 32.37839777 -4.8125 32.0625 C-5.64587891 31.97548828 -6.47925781 31.88847656 -7.33789062 31.79882812 C-8.14033203 31.71181641 -8.94277344 31.62480469 -9.76953125 31.53515625 C-10.50792236 31.456604 -11.24631348 31.37805176 -12.00708008 31.29711914 C-15.39121257 30.79258781 -16.7529831 30.30578302 -18.9375 27.6015625 C-19.618125 26.61929688 -20.29875 25.63703125 -21 24.625 C-24.18400249 20.04248051 -24.18400249 20.04248051 -28 16 C-23.91995933 6.94619547 -10.01494819 -2.45264037 0 0 Z " fill="#FBFDFE" transform="translate(116,15)"/>
<path d="M0 0 C10.44899897 1.21367683 18.18162771 6.62161602 26.08984375 13.25 C25.16692254 19.60094934 19.85334384 26.09983947 15.08984375 30.25 C11.05669384 31.93222056 7.42518956 32.16874854 3.08984375 32.25 C1.33811508 32.44326002 -0.41222209 32.64999121 -2.16015625 32.875 C-3.39765625 32.99875 -4.63515625 33.1225 -5.91015625 33.25 C-7.92019202 24.29457277 -9.79522054 14.45636803 -6.59765625 5.625 C-2.86761442 0.3753115 -2.86761442 0.3753115 0 0 Z " fill="#FBFDFE" transform="translate(51.91015625,14.75)"/>
<path d="M0 0 C8.66319453 2.14230841 17.90094793 5.2957755 24.1875 11.9375 C26.47697046 15.80591561 26.93023558 17.58138097 26 22 C20.41881198 30.63575714 9.50031267 34.47054175 0 37 C-1.20866585 34.11255688 -2.38802937 31.21400173 -3.5625 28.3125 C-3.90474609 27.49587891 -4.24699219 26.67925781 -4.59960938 25.83789062 C-7.61048238 18.32591455 -7.61048238 18.32591455 -6 14 C-5.6184375 12.91203125 -5.236875 11.8240625 -4.84375 10.703125 C-4.4003125 9.56359375 -3.956875 8.4240625 -3.5 7.25 C-3.0565625 6.10015625 -2.613125 4.9503125 -2.15625 3.765625 C-1 1 -1 1 0 0 Z " fill="#FBFDFE" transform="translate(124,56)"/>
<path d="M0 0 C3.3737101 2.05056357 6.22043124 4.44086248 8 8 C8.55334456 13.4163919 8.50285843 17.58899309 5 22 C2.60638331 24.7925528 0.66288924 25.77828143 -3.05078125 26.2734375 C-7.22372499 26.46082357 -10.09495374 26.43391645 -13.4375 23.75 C-17.39450796 19.50345487 -18.48319031 16.998213 -18.31640625 11.02734375 C-17.63254344 6.6455561 -15.07151738 3.91844347 -11.8125 1.125 C-7.77643403 -0.48942639 -4.27444209 -0.92637226 0 0 Z " fill="#56C2DE" transform="translate(88,61)"/>
<path d="M0 0 C2.3979567 2.86440855 3.48740082 5.08794276 4.1875 8.75 C4.34605469 9.54921875 4.50460938 10.3484375 4.66796875 11.171875 C4.77753906 11.77515625 4.88710937 12.3784375 5 13 C3.58461283 13.33872513 2.16762037 13.67074624 0.75 14 C-0.03890625 14.185625 -0.8278125 14.37125 -1.640625 14.5625 C-4 15 -4 15 -8 15 C-6.62712658 11.30123909 -4.93644547 8.0485524 -2.875 4.6875 C-2.33617188 3.80449219 -1.79734375 2.92148438 -1.2421875 2.01171875 C-0.83226563 1.34785156 -0.42234375 0.68398437 0 0 Z " fill="#EFF9FC" transform="translate(113,82)"/>
<path d="M0 0 C5.61 0 11.22 0 17 0 C10.97321429 8.16964286 10.97321429 8.16964286 8 11 C6.66072279 9.54712339 5.32873153 8.08752741 4 6.625 C3.2575 5.81289062 2.515 5.00078125 1.75 4.1640625 C0 2 0 2 0 0 Z " fill="#EFF9FC" transform="translate(75,104)"/>
<path d="M0 0 C0.66 0 1.32 0 2 0 C3.7265625 2.5546875 3.7265625 2.5546875 5.625 5.875 C6.25664063 6.96554688 6.88828125 8.05609375 7.5390625 9.1796875 C9 12 9 12 9 14 C7.20793453 13.85915204 5.41635083 13.71216299 3.625 13.5625 C2.62726562 13.48128906 1.62953125 13.40007812 0.6015625 13.31640625 C-2 13 -2 13 -4 12 C-3.52309796 10.37433394 -3.04340334 8.74948689 -2.5625 7.125 C-2.29566406 6.22007813 -2.02882812 5.31515625 -1.75390625 4.3828125 C-1 2 -1 2 0 0 Z " fill="#EFF9FB" transform="translate(52,83)"/>
<path d="M0 0 C1.41702513 0.14230808 2.8336096 0.28900746 4.25 0.4375 C5.43335937 0.55931641 5.43335937 0.55931641 6.640625 0.68359375 C8.82364639 0.97634993 10.8773182 1.42064419 13 2 C12.54803755 3.60597325 12.08817673 5.20972508 11.625 6.8125 C11.36976562 7.70582031 11.11453125 8.59914063 10.8515625 9.51953125 C10 12 10 12 8 15 C6.66121428 12.8782637 5.32884524 10.75294812 4 8.625 C3.6184375 8.02171875 3.236875 7.4184375 2.84375 6.796875 C0 2.2265625 0 2.2265625 0 0 Z " fill="#F1FAFC" transform="translate(105,52)"/>
<path d="M0 0 C-1.76429199 4.97209562 -4.3939166 9.43438061 -7 14 C-7.66 14 -8.32 14 -9 14 C-12.62870159 5.738041 -12.62870159 5.738041 -11 1 C-7.27569643 0.30710631 -3.78916254 -0.11144596 0 0 Z " fill="#F2FAFC" transform="translate(61,52)"/>
<path d="M0 0 C0.66 0 1.32 0 2 0 C3.7265625 1.93359375 3.7265625 1.93359375 5.625 4.4375 C6.25664063 5.26121094 6.88828125 6.08492187 7.5390625 6.93359375 C9 9 9 9 9 10 C3.72 10 -1.56 10 -7 10 C-1.57142857 1.85714286 -1.57142857 1.85714286 0 0 Z " fill="#F6FCFD" transform="translate(82,34)"/>
</svg>
