<?xml version="1.0" encoding="UTF-8"?>
<svg version="1.1" xmlns="http://www.w3.org/2000/svg" width="129" height="129">
<path d="M0 0 C2.20649806 0.1074041 4.41598183 0.15558036 6.625 0.17578125 C7.98569199 0.19901253 9.34636906 0.22313112 10.70703125 0.24804688 C12.84173072 0.28288618 14.97589321 0.31234665 17.11083984 0.32592773 C36.00219998 0.4694791 36.00219998 0.4694791 42.9296875 6.74926758 C47.21449695 11.35583744 49.24549068 15.92137146 49.28100586 22.26074219 C49.28733536 23.29620178 49.29366486 24.33166138 49.30018616 25.39849854 C49.29264816 26.51996277 49.28511017 27.641427 49.27734375 28.796875 C49.27274643 29.98166443 49.26814911 31.16645386 49.26341248 32.387146 C49.10986053 46.36849684 47.9479503 60.26377355 46.74047852 74.184021 C46.38181092 78.34744331 46.03886876 82.51218709 45.69342709 86.67672348 C45.42460707 89.91407272 45.15301143 93.15112831 44.87562561 96.38775635 C44.72558327 98.14729645 44.72558327 98.14729645 44.57250977 99.94238281 C44.47455109 101.08437134 44.37659241 102.22635986 44.27566528 103.4029541 C44.07658123 106.00072216 43.90802355 108.58879595 43.77389526 111.18981934 C43.73605643 111.88131451 43.6982176 112.57280968 43.65923214 113.28525925 C43.55585212 115.23101866 43.46370948 117.17736553 43.37217712 119.12371826 C43.24935867 120.07289124 43.12654022 121.02206421 43 122 C40.08546424 123.45726788 37.35132321 123.35399119 34.10131836 123.57250977 C33.39015869 123.62142365 32.67899902 123.67033752 31.94628906 123.72073364 C29.57775981 123.88224199 27.20885642 124.03716121 24.83984375 124.19140625 C23.17622448 124.30193612 21.5126148 124.41261052 19.84901428 124.52342224 C16.34102468 124.75591047 12.83282299 124.98484471 9.32446289 125.21166992 C5.77392652 125.44163817 2.22384632 125.67725369 -1.32592773 125.91870117 C-34.99364227 128.20688433 -34.99364227 128.20688433 -50.49609375 128.33984375 C-51.46797134 128.35576065 -52.43984894 128.37167755 -53.44117737 128.38807678 C-60.0815967 128.36503209 -65.96322926 127.52887877 -71.2421875 123.1328125 C-71.78101562 122.47023438 -72.31984375 121.80765625 -72.875 121.125 C-73.42929688 120.46757813 -73.98359375 119.81015625 -74.5546875 119.1328125 C-81.30733904 109.16808888 -78.90927852 95.48209655 -78.22851562 84.14453125 C-78.17244141 83.03722656 -78.11636719 81.92992188 -78.05859375 80.7890625 C-77.99986084 79.79600098 -77.94112793 78.80293945 -77.88061523 77.77978516 C-78.01020001 74.76250033 -78.81720348 72.75342823 -80 70 C-79.97446519 63.1481586 -76.56880563 58.0411583 -73.1875 52.3125 C-72.65318359 51.37599609 -72.11886719 50.43949219 -71.56835938 49.47460938 C-69.02829099 45.09744356 -66.65835218 41.52528687 -63 38 C-61.72588164 36.12680014 -61.72588164 36.12680014 -60.75 34.25 C-60.1725 33.1775 -59.595 32.105 -59 31 C-58.34 31 -57.68 31 -57 31 C-57 30.34 -57 29.68 -57 29 C-56.34 29 -55.68 29 -55 29 C-55 28.34 -55 27.68 -55 27 C-53.35546875 25.30859375 -53.35546875 25.30859375 -51.1875 23.4375 C-50.47980469 22.81746094 -49.77210937 22.19742187 -49.04296875 21.55859375 C-47 20 -47 20 -44 19 C-44 18.34 -44 17.68 -44 17 C-43.34 17 -42.68 17 -42 17 C-42 16.34 -42 15.68 -42 15 C-36.22532476 9.00709575 -29.710222 6.48608014 -22 3.625 C-20.85015625 3.17511719 -19.7003125 2.72523437 -18.515625 2.26171875 C-5.41083716 -2.70541858 -5.41083716 -2.70541858 0 0 Z " fill="#8D0D06" transform="translate(80,1)"/>
<path d="M0 0 C-0.54702554 5.37768186 -2.45830956 9.36300804 -4.9375 14.0625 C-5.65676574 15.44827675 -6.37425892 16.83497518 -7.08984375 18.22265625 C-7.40816162 18.82859619 -7.72647949 19.43453613 -8.05444336 20.05883789 C-8.36647705 20.69942139 -8.67851074 21.34000488 -9 22 C-9.39243896 22.69416016 -9.78487793 23.38832031 -10.18920898 24.10351562 C-11.43758962 28.563253 -10.56509026 32.59222454 -9.8828125 37.12109375 C-9.67880325 38.58736961 -9.67880325 38.58736961 -9.47067261 40.08326721 C-9.03448778 43.20324142 -8.58058814 46.32030531 -8.125 49.4375 C-7.67969933 52.55147556 -7.23816015 55.66592739 -6.80075073 58.78102112 C-6.52782895 60.71727113 -6.24983422 62.65281475 -5.96609497 64.58750916 C-5.32010298 69.10069011 -4.83241937 73.42561696 -5 78 C-10.8148596 73.90127375 -16.01098236 69.30262313 -21.234375 64.48046875 C-24.99768224 61.10518613 -28.94931237 58.02051275 -33 55 C-36.50846571 56.54665542 -39.14212685 58.65623095 -42.0625 61.125 C-47.53779197 65.75223923 -53.13816931 69.73685041 -59 74 C-42.17 75.65 -25.34 77.3 -8 79 C-8 79.66 -8 80.32 -8 81 C-17.21591604 81.66236052 -26.43246845 82.31485042 -35.64990139 82.95575714 C-39.93287559 83.25385089 -44.21558615 83.55496831 -48.49780273 83.86376953 C-81.184913 86.21641142 -81.184913 86.21641142 -96.41015625 86.34375 C-97.38722031 86.35942017 -98.36428436 86.37509033 -99.37095642 86.39123535 C-106.03817818 86.36593916 -111.94048948 85.54781538 -117.2421875 81.1328125 C-117.78101562 80.47023438 -118.31984375 79.80765625 -118.875 79.125 C-119.42929688 78.46757813 -119.98359375 77.81015625 -120.5546875 77.1328125 C-126.49927207 68.36053365 -125.12498877 56.89204007 -124.5625 46.8125 C-124.51029297 45.76513672 -124.45808594 44.71777344 -124.40429688 43.63867188 C-124.27638246 41.09201218 -124.14152987 38.54593297 -124 36 C-121.1796875 36.16015625 -121.1796875 36.16015625 -118 37 C-116.3203125 39.43359375 -116.3203125 39.43359375 -115.125 42.4375 C-114.71507813 43.42621094 -114.30515625 44.41492188 -113.8828125 45.43359375 C-113 48 -113 48 -113 50 C-110.91631462 49.68985608 -108.83306332 49.3767948 -106.75 49.0625 C-105.58984375 48.88847656 -104.4296875 48.71445313 -103.234375 48.53515625 C-100.17119476 48.08278113 -100.17119476 48.08278113 -97.90625 47.4375 C-95.48338521 46.88143267 -93.23244646 46.90483623 -90.75 46.9375 C-89.85796875 46.94652344 -88.9659375 46.95554688 -88.046875 46.96484375 C-87.37140625 46.97644531 -86.6959375 46.98804688 -86 47 C-85.814375 45.081875 -85.814375 45.081875 -85.625 43.125 C-84.11561708 36.26808902 -79.04103058 32.51235529 -74 28 C-73.32324219 27.30132812 -72.64648438 26.60265625 -71.94921875 25.8828125 C-65.26565645 19.2130878 -57.90335143 18.9334245 -48.8125 18.875 C-46.4303125 18.936875 -46.4303125 18.936875 -44 19 C-44.99 11.08 -44.99 11.08 -46 3 C-39.40693612 2.49003926 -32.81375342 1.9842485 -26.21875 1.5 C-24.55585938 1.37625 -24.55585938 1.37625 -22.859375 1.25 C-20.5887126 1.08102047 -18.31787239 0.9144161 -16.046875 0.75 C-14.94859375 0.6675 -13.8503125 0.585 -12.71875 0.5 C-11.73841797 0.4278125 -10.75808594 0.355625 -9.74804688 0.28125 C-6.98629135 0.05031429 -6.98629135 0.05031429 -4.26757812 -0.59375 C-2 -1 -2 -1 0 0 Z " fill="#950705" transform="translate(126,43)"/>
<path d="M0 0 C2.96139561 2.96139561 2.73589361 5.78974277 3.0234375 9.86328125 C2.92142026 23.51658915 -4.60585995 33.90622002 -13 44 C-13.64453125 44.79148438 -14.2890625 45.58296875 -14.953125 46.3984375 C-24.98415445 58.17560911 -41.44671065 72.53137732 -57.5234375 74.2734375 C-65.24407115 74.54841897 -65.24407115 74.54841897 -69.1875 71.6875 C-71 69 -71 69 -71 66 C-71.99 65.67 -72.98 65.34 -74 65 C-75.24954478 52.44901687 -69.31988539 41.84731752 -62 32 C-51.91837083 19.92402985 -40.82771001 9.67420223 -27 2 C-26.21882813 1.54367187 -25.43765625 1.08734375 -24.6328125 0.6171875 C-17.16796052 -3.29297306 -7.62066879 -3.757043 0 0 Z " fill="#AB1203" transform="translate(81,9)"/>
<path d="M0 0 C-0.54702554 5.37768186 -2.45830956 9.36300804 -4.9375 14.0625 C-5.65676574 15.44827675 -6.37425892 16.83497518 -7.08984375 18.22265625 C-7.40816162 18.82859619 -7.72647949 19.43453613 -8.05444336 20.05883789 C-8.36647705 20.69942139 -8.67851074 21.34000488 -9 22 C-9.39243896 22.69416016 -9.78487793 23.38832031 -10.18920898 24.10351562 C-11.43758962 28.563253 -10.56509026 32.59222454 -9.8828125 37.12109375 C-9.74680634 38.09861099 -9.61080017 39.07612823 -9.47067261 40.08326721 C-9.03448778 43.20324142 -8.58058814 46.32030531 -8.125 49.4375 C-7.67969933 52.55147556 -7.23816015 55.66592739 -6.80075073 58.78102112 C-6.52782895 60.71727113 -6.24983422 62.65281475 -5.96609497 64.58750916 C-5.32010298 69.10069011 -4.83241937 73.42561696 -5 78 C-10.82242225 73.89594306 -16.0306764 69.29860315 -21.24609375 64.453125 C-24.37703175 61.66414761 -27.66332171 59.22409493 -31.125 56.86328125 C-35.59493701 52.42128134 -36.80694889 45.46216871 -38.2265625 39.50390625 C-38.41971039 38.71153061 -38.61285828 37.91915497 -38.81185913 37.10276794 C-39.21639675 35.43698441 -39.61793427 33.77046969 -40.01660156 32.10327148 C-40.62286949 29.57139737 -41.24038046 27.04246107 -41.859375 24.51367188 C-42.25327693 22.88557929 -42.64652777 21.25732901 -43.0390625 19.62890625 C-43.31249985 18.509786 -43.31249985 18.509786 -43.59146118 17.36805725 C-44.7262736 12.5900497 -45.46744917 7.88286413 -46 3 C-39.40703091 2.48908566 -32.81373657 1.98424727 -26.21875 1.5 C-25.11015625 1.4175 -24.0015625 1.335 -22.859375 1.25 C-20.5887126 1.08102047 -18.31787239 0.9144161 -16.046875 0.75 C-14.94859375 0.6675 -13.8503125 0.585 -12.71875 0.5 C-11.73841797 0.4278125 -10.75808594 0.355625 -9.74804688 0.28125 C-6.98629135 0.05031429 -6.98629135 0.05031429 -4.26757812 -0.59375 C-2 -1 -2 -1 0 0 Z " fill="#8D0600" transform="translate(126,43)"/>
<path d="M0 0 C1.53668865 0.22467831 3.07968054 0.40796805 4.625 0.5625 C5.44226563 0.64628906 6.25953125 0.73007812 7.1015625 0.81640625 C7.72804688 0.87699219 8.35453125 0.93757812 9 1 C9.53154742 2.60064843 10.04988353 4.20568874 10.5625 5.8125 C10.85253906 6.70582031 11.14257812 7.59914063 11.44140625 8.51953125 C12 11 12 11 11 14 C12.65 15.32 14.3 16.64 16 18 C15.505 19.485 15.505 19.485 15 21 C13.74445313 21.35835937 12.48890625 21.71671875 11.1953125 22.0859375 C8.49383696 23.01619103 7.2842641 23.58444181 5.65527344 25.96582031 C4.55844827 28.48655774 3.69032531 30.99995729 2.875 33.625 C2.40320313 34.92244141 2.40320313 34.92244141 1.921875 36.24609375 C0.11527143 41.67404233 -0.13885989 45.34495018 1.45361328 50.82958984 C2.31596628 54.25511181 2.12784878 57.48415853 2 61 C0.68644531 61.10957031 -0.62710938 61.21914063 -1.98046875 61.33203125 C-3.71620624 61.49153145 -5.4518802 61.65172413 -7.1875 61.8125 C-8.05181641 61.88275391 -8.91613281 61.95300781 -9.80664062 62.02539062 C-18.63339236 62.87086493 -23.22584104 66.78826712 -29.625 72.625 C-30.29273438 73.20378906 -30.96046875 73.78257813 -31.6484375 74.37890625 C-36.42440576 78.74414124 -38.53845278 82.70617857 -40 89 C-40.96421875 89.13277344 -41.9284375 89.26554687 -42.921875 89.40234375 C-44.81679687 89.66724609 -44.81679687 89.66724609 -46.75 89.9375 C-48.62945312 90.19853516 -48.62945312 90.19853516 -50.546875 90.46484375 C-53.80348878 90.90987159 -53.80348878 90.90987159 -56.15625 91.5625 C-58.3995391 92.09480589 -60.44773676 92.09635681 -62.75 92.0625 C-63.54921875 92.05347656 -64.3484375 92.04445313 -65.171875 92.03515625 C-65.77515625 92.02355469 -66.3784375 92.01195313 -67 92 C-67.83790789 90.21046815 -68.67019396 88.41830305 -69.5 86.625 C-69.9640625 85.62726563 -70.428125 84.62953125 -70.90625 83.6015625 C-72 81 -72 81 -72 79 C-73.65 79 -75.3 79 -77 79 C-77.54041988 77.65353014 -78.05629956 76.29720432 -78.5625 74.9375 C-78.85253906 74.18339844 -79.14257812 73.42929688 -79.44140625 72.65234375 C-81.10361918 64.75973829 -77.04522991 58.84832341 -73.1875 52.3125 C-72.65318359 51.37599609 -72.11886719 50.43949219 -71.56835938 49.47460938 C-69.02829099 45.09744356 -66.65835218 41.52528687 -63 38 C-61.72588164 36.12680014 -61.72588164 36.12680014 -60.75 34.25 C-60.1725 33.1775 -59.595 32.105 -59 31 C-58.34 31 -57.68 31 -57 31 C-57 30.34 -57 29.68 -57 29 C-56.34 29 -55.68 29 -55 29 C-55 28.34 -55 27.68 -55 27 C-53.35546875 25.30859375 -53.35546875 25.30859375 -51.1875 23.4375 C-50.47980469 22.81746094 -49.77210937 22.19742187 -49.04296875 21.55859375 C-47 20 -47 20 -44 19 C-44 18.34 -44 17.68 -44 17 C-43.34 17 -42.68 17 -42 17 C-42 16.34 -42 15.68 -42 15 C-36.22532476 9.00709575 -29.710222 6.48608014 -22 3.625 C-20.85015625 3.17511719 -19.7003125 2.72523437 -18.515625 2.26171875 C-5.41083716 -2.70541858 -5.41083716 -2.70541858 0 0 Z M-60.05859375 38.4921875 C-66.11762565 46.7238344 -73.19735097 57.80397535 -73.0625 68.1875 C-73.05347656 69.08855469 -73.04445313 69.98960938 -73.03515625 70.91796875 C-73.02355469 71.60503906 -73.01195313 72.29210937 -73 73 C-72.01 73.33 -71.02 73.66 -70 74 C-69.855625 74.598125 -69.71125 75.19625 -69.5625 75.8125 C-68.71918919 79.09204205 -67.84777216 80.10148522 -65 82 C-53.5302414 84.13345339 -43.17940674 78.30710449 -33.91796875 72.1328125 C-17.74741256 60.31336982 -0.52228523 44.29011791 3.66796875 23.93359375 C4.2434871 18.84871985 4.90534296 12.54996498 1.6953125 8.25390625 C-18.0048067 -6.31691924 -48.77697572 24.83436529 -60.05859375 38.4921875 Z " fill="#F9EAE8" transform="translate(80,1)"/>
<path d="M0 0 C2.8203125 0.16015625 2.8203125 0.16015625 6 1 C7.6796875 3.43359375 7.6796875 3.43359375 8.875 6.4375 C9.28492188 7.42621094 9.69484375 8.41492188 10.1171875 9.43359375 C11 12 11 12 11 14 C13.08368538 13.68985608 15.16693668 13.3767948 17.25 13.0625 C18.41015625 12.88847656 19.5703125 12.71445313 20.765625 12.53515625 C23.79441036 12.09559351 23.79441036 12.09559351 25.87402344 11.47045898 C28.38594712 10.91459347 30.6797936 10.90368149 33.25 10.9375 C34.14203125 10.94652344 35.0340625 10.95554687 35.953125 10.96484375 C36.62859375 10.97644531 37.3040625 10.98804687 38 11 C34.95343069 23.91421856 31.39990973 36.48066922 27 49 C28.65 49 30.3 49 32 49 C32 49.33 32 49.66 32 50 C12.98607378 50.66845834 12.98607378 50.66845834 7.0390625 45.1953125 C-0.74176812 36.77931203 -1.24906327 27.99747067 -0.87890625 16.89453125 C-0.78110586 14.86680311 -0.67561293 12.83943162 -0.5625 10.8125 C-0.51029297 9.76513672 -0.45808594 8.71777344 -0.40429688 7.63867188 C-0.27638246 5.09201218 -0.14152987 2.54593297 0 0 Z " fill="#9B0F0C" transform="translate(2,79)"/>
<path d="M0 0 C2.17131543 3.25697314 2.81314091 5.70474357 3.7265625 9.49609375 C4.0359375 10.77677734 4.3453125 12.05746094 4.6640625 13.37695312 C4.82165039 14.043479 4.97923828 14.71000488 5.14160156 15.39672852 C5.6228917 17.42859934 6.11539334 19.45751003 6.609375 21.48632812 C9 31.47572545 9 31.47572545 9 36 C2.74812176 34.6835276 -3.31435882 33.08532105 -9.41015625 31.1796875 C-10.68952309 30.78440353 -10.68952309 30.78440353 -11.99473572 30.38113403 C-14.6850357 29.54908695 -17.37377918 28.71213425 -20.0625 27.875 C-21.90028942 27.30566279 -23.73817917 26.73664935 -25.57617188 26.16796875 C-30.05194888 24.78238282 -34.52633808 23.39239907 -39 22 C-38.05503515 20.89103953 -37.10913169 19.78287884 -36.1628418 18.67504883 C-35.63619431 18.05785477 -35.10954681 17.44066071 -34.56694031 16.80476379 C-28.61023827 9.94397904 -23.14721857 4.06562011 -13.79296875 3.09375 C-9.18706555 2.93914626 -4.60701456 2.83960104 0 3 C0 2.01 0 1.02 0 0 Z " fill="#B11008" transform="translate(82,59)"/>
<path d="M0 0 C4.29445018 1.40839495 6.87046479 3.45854776 10.125 6.5625 C14.8634575 10.99234697 19.72633971 15.1230276 24.78515625 19.1875 C27 21 27 21 29 23 C29.33 21.35 29.66 19.7 30 18 C30.66 18 31.32 18 32 18 C32 20.64 32 23.28 32 26 C30.35 26.33 28.7 26.66 27 27 C27 26.34 27 25.68 27 25 C26.06172363 25.03480469 26.06172363 25.03480469 25.10449219 25.0703125 C14.7398534 25.27219764 4.54003682 24.08700141 -5.75 23 C-7.62233843 22.80673472 -9.49473399 22.61402206 -11.3671875 22.421875 C-15.91214177 21.95428246 -20.45625845 21.47922772 -25 21 C-21.41218086 17.35181438 -17.71903982 14.12208564 -13.625 11.0625 C-8.94401367 7.51752124 -4.40245369 3.89054047 0 0 Z " fill="#C61A1F" transform="translate(91,97)"/>
<path d="M0 0 C9.71470227 7.09813489 19.34696455 14.62471631 28 23 C28 23.33 28 23.66 28 24 C18.99156961 25.18805164 10.01477383 26.15786018 0.9375 26.625 C0.16559326 26.66488037 -0.60631348 26.70476074 -1.40161133 26.74584961 C-6.27250431 26.97383541 -11.12395997 27.03320799 -16 27 C-16.33 27.66 -16.66 28.32 -17 29 C-15.93803043 23.40052407 -14.47375593 18.03993935 -12.6875 12.625 C-12.29949219 11.44164062 -11.91148438 10.25828125 -11.51171875 9.0390625 C-9.78697217 5.57174251 -8.47993845 4.577792 -5 3 C-3.66666667 2.66666667 -2.33333333 2.33333333 -1 2 C-0.67 1.34 -0.34 0.68 0 0 Z " fill="#B4160B" transform="translate(96,19)"/>
<path d="M0 0 C0.66 0.33 1.32 0.66 2 1 C2.46829224 2.78825378 2.46829224 2.78825378 2.77783203 5.14916992 C2.89780548 6.03066208 3.01777893 6.91215424 3.14138794 7.82035828 C3.26230804 8.78069473 3.38322815 9.74103119 3.5078125 10.73046875 C3.63815887 11.71364578 3.76850525 12.69682281 3.90280151 13.70979309 C4.17763163 15.79660663 4.44801778 17.88400942 4.71435547 19.97192383 C5.12120748 23.15780243 5.54179 26.3416273 5.96484375 29.52539062 C6.22998393 31.55197658 6.49433221 33.57866632 6.7578125 35.60546875 C6.94526535 37.0307917 6.94526535 37.0307917 7.13650513 38.48490906 C7.7114102 43.02295109 8.15148865 47.41389543 8 52 C2.18212227 47.89914635 -3.01944427 43.3018152 -8.23828125 38.46875 C-11.45724446 35.59126096 -14.82540313 33.00366712 -18.3203125 30.47265625 C-20 29 -20 29 -21 26 C-19.85546875 24.17578125 -19.85546875 24.17578125 -18.1875 22.3125 C-17.64480469 21.68988281 -17.10210937 21.06726563 -16.54296875 20.42578125 C-15 19 -15 19 -13 19 C-12.77441406 18.47664063 -12.54882812 17.95328125 -12.31640625 17.4140625 C-10.52962193 14.13740757 -8.24205029 11.29561818 -5.9375 8.375 C-2.67807651 4.37877222 -2.67807651 4.37877222 0 0 Z " fill="#891103" transform="translate(113,69)"/>
<path d="M0 0 C0.99 0.99 0.99 0.99 2 2 C1.01 2 0.02 2 -1 2 C-0.01 4.475 -0.01 4.475 1 7 C0.32195312 6.96519531 -0.35609375 6.93039063 -1.0546875 6.89453125 C-19.40711322 6.36073493 -33.98698309 16.72337196 -47.0234375 28.73828125 C-56.1844713 37.61067974 -69.56109909 52.85191692 -70.09765625 66.48046875 C-70.08605469 67.37378906 -70.07445313 68.26710938 -70.0625 69.1875 C-70.05347656 70.08855469 -70.04445313 70.98960938 -70.03515625 71.91796875 C-70.02355469 72.60503906 -70.01195313 73.29210937 -70 74 C-69.34 74.33 -68.68 74.66 -68 75 C-67.319375 76.175625 -67.319375 76.175625 -66.625 77.375 C-64.89212059 80.17426674 -63.88322979 81.44149741 -61 83 C-58.32039695 83.52974878 -55.73137832 83.77238514 -53 84 C-55.62451617 86.62451617 -57.4877828 86.5832868 -61.125 87.125 C-62.22070312 87.29257813 -63.31640625 87.46015625 -64.4453125 87.6328125 C-65.28835937 87.75398438 -66.13140625 87.87515625 -67 88 C-70 82.25 -70 82.25 -70 80 C-71.65 80 -73.3 80 -75 80 C-75.54041988 78.65353014 -76.05629956 77.29720432 -76.5625 75.9375 C-76.85253906 75.18339844 -77.14257812 74.42929688 -77.44140625 73.65234375 C-79.10361918 65.75973829 -75.04522991 59.84832341 -71.1875 53.3125 C-70.65318359 52.37599609 -70.11886719 51.43949219 -69.56835938 50.47460938 C-67.02829099 46.09744356 -64.65835218 42.52528687 -61 39 C-59.72588164 37.12680014 -59.72588164 37.12680014 -58.75 35.25 C-58.1725 34.1775 -57.595 33.105 -57 32 C-56.34 32 -55.68 32 -55 32 C-55 31.34 -55 30.68 -55 30 C-54.34 30 -53.68 30 -53 30 C-53 29.34 -53 28.68 -53 28 C-51.35546875 26.30859375 -51.35546875 26.30859375 -49.1875 24.4375 C-48.47980469 23.81746094 -47.77210937 23.19742187 -47.04296875 22.55859375 C-45 21 -45 21 -42 20 C-42 19.34 -42 18.68 -42 18 C-41.34 18 -40.68 18 -40 18 C-40 17.34 -40 16.68 -40 16 C-34.22532476 10.00709575 -27.710222 7.48608014 -20 4.625 C-18.85015625 4.17511719 -17.7003125 3.72523437 -16.515625 3.26171875 C-5.69731185 -0.83877091 -5.69731185 -0.83877091 0 0 Z " fill="#FCF8F8" transform="translate(78,0)"/>
<path d="M0 0 C0.66 0 1.32 0 2 0 C1.36813159 8.48464618 0.73370396 16.96909554 0.09605503 25.45330906 C-0.19998652 29.39334133 -0.49516331 33.33343433 -0.78833008 37.27368164 C-1.07155677 41.07989382 -1.35709909 44.88592597 -1.64421272 48.69184685 C-1.75306867 50.14015531 -1.86110581 51.58852557 -1.96829033 53.03695869 C-2.11915539 55.07372084 -2.27299409 57.11023901 -2.42749023 59.14672852 C-2.51409409 60.30366714 -2.60069794 61.46060577 -2.68992615 62.65260315 C-3.01146745 66.1237967 -3.47914244 69.55355386 -4 73 C-4.99 73 -5.98 73 -7 73 C-8.07249012 66.73375449 -9.06378273 60.45825273 -10.00292969 54.1706543 C-10.33061887 52.03922605 -10.6759385 49.91042319 -11.04003906 47.78491211 C-13.57019569 32.92198924 -13.60106067 24.58230323 -5 12 C-3.08989931 8.10829285 -1.56498185 4.04036181 0 0 Z " fill="#AA0A0C" transform="translate(127,42)"/>
<path d="M0 0 C-2.95491931 12.64339368 -6.41916458 24.8474057 -11 37 C-13.83123846 34.5604026 -14.95243407 32.14141314 -16.3125 28.6875 C-17.70948638 25.19715712 -19.10944428 21.71559491 -20.62109375 18.2734375 C-20.89203857 17.65509033 -21.1629834 17.03674316 -21.44213867 16.3996582 C-22.21502657 14.64203311 -22.99027023 12.8854445 -23.765625 11.12890625 C-24.8484578 8.38413071 -25.54393429 5.90470421 -26 3 C-23.54365019 2.48800649 -21.08568313 1.99036953 -18.625 1.5 C-17.94566406 1.35691406 -17.26632813 1.21382813 -16.56640625 1.06640625 C-11.00735583 -0.02462234 -5.65498567 -0.1582634 0 0 Z " fill="#C3201D" transform="translate(40,90)"/>
<path d="M0 0 C1.9550122 0.19337603 3.91009012 0.38608878 5.86523438 0.578125 C10.59844709 1.04445693 15.33068545 1.51969703 20.0625 2 C20.0625 2.66 20.0625 3.32 20.0625 4 C12.50927505 4.58187634 4.95508614 5.14981709 -2.59985352 5.70898438 C-5.15900261 5.89993935 -7.71793318 6.09385069 -10.27661133 6.29101562 C-26.53249415 7.54122282 -42.63254459 8.28687318 -58.9375 8 C-55.85168556 4.91418556 -51.70347094 4.20156429 -47.61132812 2.94335938 C-44.69998454 2.01898619 -42.1557967 1.14650002 -39.60888672 -0.56274414 C-29.56526095 -5.96640206 -10.9236295 -1.11090917 0 0 Z " fill="#911208" transform="translate(97.9375,120)"/>
<path d="M0 0 C0.5775 0.226875 1.155 0.45375 1.75 0.6875 C1.06292969 1.30496094 0.37585937 1.92242187 -0.33203125 2.55859375 C-6.11883586 7.99769336 -9.49099074 11.89760184 -11.25 19.6875 C-12.69632813 19.88666016 -12.69632813 19.88666016 -14.171875 20.08984375 C-15.43515625 20.26644531 -16.6984375 20.44304687 -18 20.625 C-19.25296875 20.79902344 -20.5059375 20.97304687 -21.796875 21.15234375 C-25.05348878 21.59737159 -25.05348878 21.59737159 -27.40625 22.25 C-29.6495391 22.78230589 -31.69773676 22.78385681 -34 22.75 C-34.79921875 22.74097656 -35.5984375 22.73195313 -36.421875 22.72265625 C-37.02515625 22.71105469 -37.6284375 22.69945313 -38.25 22.6875 C-38.91 21.0375 -39.57 19.3875 -40.25 17.6875 C-36.26939223 16.51673301 -32.33378283 15.43000597 -28.25 14.6875 C-31.22 14.1925 -31.22 14.1925 -34.25 13.6875 C-34.25 13.3575 -34.25 13.0275 -34.25 12.6875 C-33.569375 12.6359375 -32.88875 12.584375 -32.1875 12.53125 C-22.22707933 11.36566886 -11.86640606 7.28543806 -4.03125 0.87109375 C-2.25 -0.3125 -2.25 -0.3125 0 0 Z " fill="#F8E8E7" transform="translate(51.25,70.3125)"/>
<path d="M0 0 C2.56616632 3.84924948 2.55097676 6.4349304 3 11 C2.13310547 11.02392822 1.26621094 11.04785645 0.37304688 11.07250977 C-2.87895067 11.17831701 -6.12796851 11.31425911 -9.37792969 11.4699707 C-10.77785252 11.53101198 -12.17833738 11.58042225 -13.57910156 11.61743164 C-23.44690053 11.77749995 -23.44690053 11.77749995 -31.78125 16.58984375 C-32.34908203 17.22656006 -32.91691406 17.86327637 -33.50195312 18.51928711 C-35 20 -35 20 -38 20 C-36.10671066 18.06139257 -34.19914193 16.14085711 -32.26953125 14.23828125 C-30.85090564 12.83918921 -29.44924464 11.42243302 -28.07421875 9.98046875 C-21.26633235 3.28534237 -14.03125599 2.9342465 -4.8125 2.875 C-3.20809983 2.90641483 -1.60373599 2.94416393 0 3 C0 2.01 0 1.02 0 0 Z " fill="#C63026" transform="translate(82,59)"/>
<path d="M0 0 C-0.99 3.3 -1.98 6.6 -3 10 C-3.83789062 9.80535156 -4.67578125 9.61070313 -5.5390625 9.41015625 C-9.52560335 8.93771066 -12.47794797 9.51838396 -16.375 10.4375 C-18.24285156 10.86869141 -18.24285156 10.86869141 -20.1484375 11.30859375 C-21.08945312 11.53675781 -22.03046875 11.76492187 -23 12 C-23.99 9.03 -24.98 6.06 -26 3 C-17.23692735 1.17345384 -9.0014373 -0.42194237 0 0 Z " fill="#E0564F" transform="translate(40,90)"/>
<path d="M0 0 C0.26683594 0.58136719 0.53367187 1.16273437 0.80859375 1.76171875 C5.25525225 10.11560504 13.29287895 15.8619193 21 21 C16.37317796 22.54227401 11.82649732 22.64118432 7 22 C3.8125 19.6875 3.8125 19.6875 2 17 C2 16.01 2 15.02 2 14 C1.01 13.67 0.02 13.34 -1 13 C-1.02708567 11.39592672 -1.04643483 9.7917215 -1.0625 8.1875 C-1.07410156 7.29417969 -1.08570313 6.40085937 -1.09765625 5.48046875 C-1 3 -1 3 0 0 Z " fill="#C5322B" transform="translate(8,61)"/>
<path d="M0 0 C1.31611677 0.95336021 2.62778961 1.91285774 3.9375 2.875 C4.66839844 3.40867187 5.39929688 3.94234375 6.15234375 4.4921875 C8 6 8 6 9 8 C6.62592408 8.64939736 4.2508361 9.29460053 1.875 9.9375 C1.20984375 10.11990234 0.5446875 10.30230469 -0.140625 10.49023438 C-4.07445227 11.55082506 -7.96973565 12.40362132 -12 13 C-10.6543943 6.51662708 -10.6543943 6.51662708 -7.625 4.125 C-5.39627301 3.16983129 -3.33705557 2.58426389 -1 2 C-0.67 1.34 -0.34 0.68 0 0 Z " fill="#D34538" transform="translate(96,19)"/>
<path d="M0 0 C2.82369239 4.23553859 2 6.12706254 2 12 C-8.395 12.99 -8.395 12.99 -19 14 C-11.79727685 5.35673222 -11.79727685 5.35673222 -7.421875 4.48828125 C-6.09929687 4.40126953 -6.09929687 4.40126953 -4.75 4.3125 C-3.41195312 4.21388672 -3.41195312 4.21388672 -2.046875 4.11328125 C-1.37140625 4.07589844 -0.6959375 4.03851563 0 4 C0 2.68 0 1.36 0 0 Z " fill="#E06C63" transform="translate(80,50)"/>
<path d="M0 0 C-0.33 1.65 -0.66 3.3 -1 5 C-2.44632813 5.19916016 -2.44632813 5.19916016 -3.921875 5.40234375 C-5.18515625 5.57894531 -6.4484375 5.75554687 -7.75 5.9375 C-9.62945313 6.19853516 -9.62945313 6.19853516 -11.546875 6.46484375 C-14.80348878 6.90987159 -14.80348878 6.90987159 -17.15625 7.5625 C-19.3995391 8.09480589 -21.44773676 8.09635681 -23.75 8.0625 C-24.54921875 8.05347656 -25.3484375 8.04445313 -26.171875 8.03515625 C-26.77515625 8.02355469 -27.3784375 8.01195313 -28 8 C-28.66 6.35 -29.32 4.7 -30 3 C-29.42556152 2.94465088 -28.85112305 2.88930176 -28.25927734 2.83227539 C-25.63097381 2.5778124 -23.00298982 2.32018189 -20.375 2.0625 C-19.47136719 1.97548828 -18.56773438 1.88847656 -17.63671875 1.79882812 C-13.93291993 1.43385525 -10.27401692 1.04566949 -6.6015625 0.43359375 C-4 0 -4 0 0 0 Z " fill="#EC9894" transform="translate(41,85)"/>
<path d="M0 0 C3.96 0 7.92 0 12 0 C12.99 3.3 13.98 6.6 15 10 C14.01 10.66 13.02 11.32 12 12 C11.4225 11.525625 10.845 11.05125 10.25 10.5625 C8.00294078 9.00204221 6.62716486 8.5572774 4 8 C2.88625 7.505 2.88625 7.505 1.75 7 C-1.84166274 5.69394082 -5.19962955 5.38647835 -9 5 C-9 4.67 -9 4.34 -9 4 C-5.7 4 -2.4 4 1 4 C0.67 2.68 0.34 1.36 0 0 Z " fill="#EFB6B0" transform="translate(77,2)"/>
<path d="M0 0 C6 1 6 1 7.48828125 2.42578125 C8.53014228 4.81070483 9 6.37037048 9 9 C7.20425019 13.37714017 4.91416549 17.27185652 2 21 C1.34 21 0.68 21 0 21 C0 14.07 0 7.14 0 0 Z " fill="#CE3529" transform="translate(2,79)"/>
<path d="M0 0 C7.26 0 14.52 0 22 0 C19.73001796 1.51332136 17.63178917 2.74263257 15.20703125 3.9453125 C14.49482422 4.29980469 13.78261719 4.65429688 13.04882812 5.01953125 C12.31083984 5.38433594 11.57285156 5.74914062 10.8125 6.125 C9.68811523 6.68380859 9.68811523 6.68380859 8.54101562 7.25390625 C6.6949084 8.17108054 4.84757257 9.08578112 3 10 C2.49596232 8.70990357 1.99690074 7.41786211 1.5 6.125 C1.2215625 5.40570312 0.943125 4.68640625 0.65625 3.9453125 C0 2 0 2 0 0 Z " fill="#C21310" transform="translate(89,2)"/>
<path d="M0 0 C5.40489519 1.52012677 8.98492628 5.27385218 13 9 C12.67 9.99 12.34 10.98 12 12 C10.2578125 12.84375 10.2578125 12.84375 8.125 13.5 C4.96650771 14.47901606 3.20024993 15.50915103 1 18 C1.01160156 17.03578125 1.02320312 16.0715625 1.03515625 15.078125 C1.04417969 13.81484375 1.05320312 12.5515625 1.0625 11.25 C1.07990234 9.37054687 1.07990234 9.37054687 1.09765625 7.453125 C1.02021027 4.71463499 0.82780815 2.58119707 0 0 Z " fill="#FBF0EF" transform="translate(83,10)"/>
<path d="M0 0 C-0.33 1.32 -0.66 2.64 -1 4 C-9.04927976 5.29901921 -16.83759432 6.33853295 -25 6 C-25.33 5.01 -25.66 4.02 -26 3 C-8.85106383 -0.57446809 -8.85106383 -0.57446809 0 0 Z " fill="#E46F68" transform="translate(40,90)"/>
<path d="M0 0 C0.33 0 0.66 0 1 0 C1 2.31 1 4.62 1 7 C-11.87 7.99 -11.87 7.99 -25 9 C-21.31622975 4.08830633 -19.79903021 4.17602062 -14.07421875 3.3046875 C-9.37266176 2.83871362 -4.7179134 2.83573996 0 3 C0 2.01 0 1.02 0 0 Z " fill="#D54F45" transform="translate(82,59)"/>
<path d="M0 0 C1.125 3.75 1.125 3.75 0 6 C0.66 6 1.32 6 2 6 C3.2890625 7.4609375 3.2890625 7.4609375 4.625 9.375 C5.07101563 10.00148438 5.51703125 10.62796875 5.9765625 11.2734375 C7 13 7 13 7 15 C7.70125 15.2475 8.4025 15.495 9.125 15.75 C14.20506338 17.95872321 18.24020144 20.95098617 22 25 C17.82390074 25.52358948 16.25533851 25.17315711 12.7109375 22.76953125 C11.5857996 21.79890172 10.47399334 20.8126353 9.375 19.8125 C8.81554688 19.32974609 8.25609375 18.84699219 7.6796875 18.34960938 C-0.84212953 10.86287154 -0.84212953 10.86287154 -1.3125 5.3125 C-1 2 -1 2 0 0 Z " fill="#A81E17" transform="translate(10,56)"/>
<path d="M0 0 C0.69415907 2.34278687 1.00194754 3.98101153 0.75 6.4375 C1.12395934 10.2705832 3.17267521 11.47999312 6 14 C6.48082031 14.53238281 6.96164063 15.06476563 7.45703125 15.61328125 C10.10356127 18.53912842 11.44969076 19.85732723 15.375 20.875 C16.674375 20.936875 16.674375 20.936875 18 21 C18 21.33 18 21.66 18 22 C8.07783281 22.78195713 8.07783281 22.78195713 3.8125 19.6875 C2 17 2 17 2 14 C1.01 13.67 0.02 13.34 -1 13 C-1.02708567 11.39592672 -1.04643483 9.7917215 -1.0625 8.1875 C-1.07410156 7.29417969 -1.08570313 6.40085937 -1.09765625 5.48046875 C-1 3 -1 3 0 0 Z " fill="#D76D68" transform="translate(8,61)"/>
<path d="M0 0 C0.33 0 0.66 0 1 0 C1 2.64 1 5.28 1 8 C-0.44632813 8.18175781 -0.44632813 8.18175781 -1.921875 8.3671875 C-3.81679687 8.61855469 -3.81679687 8.61855469 -5.75 8.875 C-7.00296875 9.03742187 -8.2559375 9.19984375 -9.546875 9.3671875 C-12.48616408 9.9058355 -14.47107147 10.48008841 -17 12 C-9.75 4.75 -9.75 4.75 -4.875 4.375 C-3.96492188 4.30023438 -3.05484375 4.22546875 -2.1171875 4.1484375 C-1.06917969 4.07496094 -1.06917969 4.07496094 0 4 C0 2.68 0 1.36 0 0 Z " fill="#EB9B95" transform="translate(80,50)"/>
<path d="M0 0 C1.98 0 3.96 0 6 0 C6.99 3.3 7.98 6.6 9 10 C8.01 10.66 7.02 11.32 6 12 C5.566875 11.236875 5.13375 10.47375 4.6875 9.6875 C3.18425665 7.03472375 3.18425665 7.03472375 1.3125 5.4375 C0 4 0 4 0 0 Z " fill="#E0837F" transform="translate(83,2)"/>
<path d="M0 0 C1.7074998 1.28062485 3.37373596 2.61767557 5 4 C5 4.66 5 5.32 5 6 C-2.92 7.485 -2.92 7.485 -11 9 C-8 4 -8 4 -4.375 2.8125 C-3.26125 2.544375 -2.1475 2.27625 -1 2 C-0.67 1.34 -0.34 0.68 0 0 Z " fill="#E1675D" transform="translate(96,19)"/>
<path d="M0 0 C0 0.66 0 1.32 0 2 C-6.38340227 3.85178887 -12.37214759 4.40559523 -19 4.625 C-19.96550781 4.66367188 -20.93101563 4.70234375 -21.92578125 4.7421875 C-24.2836744 4.83556941 -26.64157756 4.92134329 -29 5 C-29.33 4.34 -29.66 3.68 -30 3 C-29.42556152 2.94465088 -28.85112305 2.88930176 -28.25927734 2.83227539 C-25.63097381 2.5778124 -23.00298982 2.32018189 -20.375 2.0625 C-19.47136719 1.97548828 -18.56773438 1.88847656 -17.63671875 1.79882812 C-13.93291993 1.43385525 -10.27401692 1.04566949 -6.6015625 0.43359375 C-4 0 -4 0 0 0 Z " fill="#F3BDBB" transform="translate(41,85)"/>
<path d="M0 0 C2.48477918 2.48477918 2.28237019 4.01122743 2.328125 7.41015625 C2.32296875 8.12042969 2.3178125 8.83070312 2.3125 9.5625 C2.31121094 10.28179687 2.30992188 11.00109375 2.30859375 11.7421875 C2.20783357 17.33437745 1.21680658 21.82745131 -1 27 C-1.99 26.67 -2.98 26.34 -4 26 C-3.566875 24.44152344 -3.566875 24.44152344 -3.125 22.8515625 C-1.05023177 15.14422384 0.69735005 8.05826727 0 0 Z " fill="#EDB0A9" transform="translate(83,12)"/>
<path d="M0 0 C1.125 3.75 1.125 3.75 0 6 C0.66 6 1.32 6 2 6 C5.16631659 9.52151236 7.50328459 13.50985376 9 18 C4.50875002 15.99846468 1.57807866 13.18202988 -1 9 C-1.40701607 5.45314564 -1.60127074 3.20254147 0 0 Z " fill="#B32D26" transform="translate(10,56)"/>
<path d="M0 0 C-0.99 1.485 -0.99 1.485 -2 3 C-2.67417969 2.80535156 -3.34835938 2.61070313 -4.04296875 2.41015625 C-7.7823145 1.89148874 -10.64494756 2.58059522 -14.3125 3.4375 C-16.19388672 3.86869141 -16.19388672 3.86869141 -18.11328125 4.30859375 C-19.06589844 4.53675781 -20.01851562 4.76492187 -21 5 C-21.33 4.01 -21.66 3.02 -22 2 C-14.57359158 0.39118425 -7.59498961 -0.26442904 0 0 Z " fill="#DD453E" transform="translate(38,97)"/>
<path d="M0 0 C3.78449552 1.26149851 4.13176857 2.58844695 6 6 C6.99 7.485 6.99 7.485 8 9 C6 8 4 7 2 6 C1.67 6.66 1.34 7.32 1 8 C1 7.34 1 6.68 1 6 C-0.65 6 -2.3 6 -4 6 C-4 4.68 -4 3.36 -4 2 C-2.68 2 -1.36 2 0 2 C0 1.34 0 0.68 0 0 Z " fill="#EFB7B4" transform="translate(7,74)"/>
<path d="M0 0 C10.11764706 6.35294118 10.11764706 6.35294118 12 12 C12.99 12.33 13.98 12.66 15 13 C14.01 13.33 13.02 13.66 12 14 C10.66070495 12.71451591 9.32871357 11.42141845 8 10.125 C7.2575 9.40570313 6.515 8.68640625 5.75 7.9453125 C4 6 4 6 4 4 C2.68 3.34 1.36 2.68 0 2 C0 1.34 0 0.68 0 0 Z " fill="#CE4740" transform="translate(8,68)"/>
<path d="M0 0 C1.98 0.66 3.96 1.32 6 2 C6 2.66 6 3.32 6 4 C7.98 4.66 9.96 5.32 12 6 C12 6.66 12 7.32 12 8 C14.475 8.99 14.475 8.99 17 10 C16.01 10.33 15.02 10.66 14 11 C12.3045427 9.70347383 10.64552129 8.35934368 9 7 C6.04764768 5.24347442 3.03311123 3.61237285 0 2 C0 1.34 0 0.68 0 0 Z " fill="#9C1711" transform="translate(17,69)"/>
<path d="M0 0 C1.65 0 3.3 0 5 0 C5.33 2.97 5.66 5.94 6 9 C5.01 9.33 4.02 9.66 3 10 C2.49596232 8.70990357 1.99690074 7.41786211 1.5 6.125 C1.2215625 5.40570312 0.943125 4.68640625 0.65625 3.9453125 C0 2 0 2 0 0 Z " fill="#CE3833" transform="translate(89,2)"/>
<path d="M0 0 C3.62613199 0.56959153 5.25517741 1.92374534 7.75 4.5625 C8.36359375 5.20316406 8.9771875 5.84382813 9.609375 6.50390625 C10.06828125 6.99761719 10.5271875 7.49132812 11 8 C9.171875 8.640625 9.171875 8.640625 7 9 C4.25 6.75 4.25 6.75 2 4 C2 3.01 2 2.02 2 1 C1.34 0.67 0.68 0.34 0 0 Z " fill="#DE827D" transform="translate(8,74)"/>
<path d="M0 0 C1.32 1.32 2.64 2.64 4 4 C2.25364835 4.53293835 0.50272348 5.05090663 -1.25 5.5625 C-2.22453125 5.85253906 -3.1990625 6.14257812 -4.203125 6.44140625 C-6.96243932 6.99249836 -8.3912824 6.93789609 -11 6 C-10.28972656 5.73445313 -9.57945313 5.46890625 -8.84765625 5.1953125 C-7.92855469 4.84210937 -7.00945312 4.48890625 -6.0625 4.125 C-4.68771484 3.60292969 -4.68771484 3.60292969 -3.28515625 3.0703125 C-0.85058944 2.2180914 -0.85058944 2.2180914 0 0 Z " fill="#CB3629" transform="translate(101,23)"/>
<path d="M0 0 C0.66 0.33 1.32 0.66 2 1 C0.60667426 4.36720387 -0.9789286 5.9859524 -4 8 C-4.99 7.34 -5.98 6.68 -7 6 C-4.69 4.02 -2.38 2.04 0 0 Z " fill="#F0D4D1" transform="translate(57,63)"/>
<path d="M0 0 C1.32 1.32 2.64 2.64 4 4 C0.0186217 5.3271261 -3.85045227 5.06915913 -8 5 C-5 3 -5 3 -2.875 2.5 C-2.25625 2.335 -1.6375 2.17 -1 2 C-0.67 1.34 -0.34 0.68 0 0 Z " fill="#E8948D" transform="translate(96,19)"/>
<path d="M0 0 C0.66 0 1.32 0 2 0 C2 2.64 2 5.28 2 8 C0.35 8.33 -1.3 8.66 -3 9 C-3 8.34 -3 7.68 -3 7 C-2.34 6.67 -1.68 6.34 -1 6 C-0.34227572 2.97065509 -0.34227572 2.97065509 0 0 Z " fill="#CC3935" transform="translate(121,115)"/>
<path d="M0 0 C0.66 0 1.32 0 2 0 C2.99 3.3 3.98 6.6 5 10 C4.01 10.495 4.01 10.495 3 11 C2.49632243 9.54293274 1.99717444 8.08429904 1.5 6.625 C1.2215625 5.81289062 0.943125 5.00078125 0.65625 4.1640625 C0 2 0 2 0 0 Z " fill="#D75E5A" transform="translate(87,2)"/>
<path d="M0 0 C2.9719385 1.12451727 5.33440687 2.22293791 8 4 C8 4.66 8 5.32 8 6 C9.65 6 11.3 6 13 6 C13 6.33 13 6.66 13 7 C9.83773737 7.46277014 7.75107761 7.49921925 5.04296875 5.69921875 C3.27789416 4.19297384 1.58608787 2.69401693 0 1 C0 0.67 0 0.34 0 0 Z " fill="#B32922" transform="translate(19,74)"/>
<path d="M0 0 C0.66 0 1.32 0 2 0 C2.33 1.98 2.66 3.96 3 6 C3.99 6.33 4.98 6.66 6 7 C5.67 7.99 5.34 8.98 5 10 C1.32769295 6.92000054 0.43197635 4.7517398 0 0 Z " fill="#E9A8A6" transform="translate(81,2)"/>
<path d="M0 0 C-0.33 0.66 -0.66 1.32 -1 2 C-3.97 2 -6.94 2 -10 2 C-10 1.67 -10 1.34 -10 1 C-3.71428571 -1.42857143 -3.71428571 -1.42857143 0 0 Z " fill="#E46E68" transform="translate(40,91)"/>
</svg>
