<?xml version="1.0" encoding="UTF-8"?>
<svg version="1.1" xmlns="http://www.w3.org/2000/svg" width="133" height="82">
<path d="M0 0 C5.99544746 3.23964529 12.9935949 7.50422221 15.2265625 14.203125 C17.02588829 15.27029204 17.02588829 15.27029204 19.2265625 16.203125 C20.309375 16.9765625 20.309375 16.9765625 21.4140625 17.765625 C25.88952157 20.05308186 30.41219502 20.77623256 35.375 19.765625 C41.1122715 17.83121928 44.97785559 14.45183191 49.2265625 10.203125 C48.93735768 18.01165507 46.02769216 23.99217004 40.77734375 29.80859375 C31.2598571 38.28306816 20.40189106 38.88022875 8.2265625 38.203125 C-3.51683229 36.32799566 -11.2091299 29.14906253 -19 20.69140625 C-23.65214411 16.51758118 -28.52121503 14.63895456 -34.79296875 14.91796875 C-40.95149304 15.80469907 -44.67469751 18.75306444 -48.7734375 23.203125 C-49.4334375 23.533125 -50.0934375 23.863125 -50.7734375 24.203125 C-51.22611979 16.88476132 -48.07064623 11.01441466 -43.3203125 5.5234375 C-31.90049801 -4.57870609 -13.70026103 -6.02302497 0 0 Z " fill="#38BDF8" transform="translate(50.7734375,42.796875)"/>
<path d="M0 0 C0.93175049 0.00974854 1.86350098 0.01949707 2.82348633 0.02954102 C15.43840225 0.35612287 21.71200865 4.73008011 30.625 13.4375 C35.7445545 18.42308485 40.31709764 22.46956591 47.625 23.4375 C54.99061947 23.2567486 59.61626407 20.67390575 64.625 15.4375 C65.285 14.7775 65.945 14.1175 66.625 13.4375 C66.33550678 22.55653642 63.00119131 28.40815161 56.5 34.75 C48.27845873 41.22266078 37.75285653 42.60010602 27.625 41.4375 C16.00181609 39.17706492 9.04084252 33.9796059 0.9375 25.6875 C-4.02620398 20.67253574 -7.60960462 18.33963765 -14.75 17.9375 C-20.49834407 18.093705 -23.95391339 19.90663219 -28.375 23.4375 C-29.365 24.200625 -30.355 24.96375 -31.375 25.75 C-32.035 26.306875 -32.695 26.86375 -33.375 27.4375 C-32.75889651 17.78521198 -27.99419094 11.49281755 -20.94921875 5.1640625 C-14.28770999 0.69610063 -7.90109037 -0.09174909 0 0 Z " fill="#38BDF8" transform="translate(66.375,-0.4375)"/>
</svg>
