<?xml version="1.0" encoding="UTF-8"?>
<svg version="1.1" xmlns="http://www.w3.org/2000/svg" width="146" height="146">
<path d="M0 0 C48.18 0 96.36 0 146 0 C146 48.18 146 96.36 146 146 C97.82 146 49.64 146 0 146 C0 97.82 0 49.64 0 0 Z " fill="#3178C6" transform="translate(0,0)"/>
<path d="M0 0 C0.66878174 -0.00547852 1.33756348 -0.01095703 2.02661133 -0.01660156 C6.67333766 0.04982114 10.50270354 0.88724492 14.875 2.3125 C14.875 6.6025 14.875 10.8925 14.875 15.3125 C13.43125 14.8175 11.9875 14.3225 10.5 13.8125 C4.66948215 12.06500104 -1.51210524 10.98441499 -7.3671875 13.13671875 C-9.48795234 14.26756133 -9.48795234 14.26756133 -9.875 17.4375 C-9.9575 18.38625 -10.04 19.335 -10.125 20.3125 C-6.10386689 23.84764821 -1.99159092 25.91541812 2.8125 28.125 C9.5897928 31.36189314 14.38568234 34.33386469 17.875 41.3125 C18.40279267 47.5242137 18.61903643 53.070849 14.875 58.3125 C9.01280592 64.17469408 2.46283535 66.66406803 -5.77392578 66.72851562 C-6.90677002 66.70821289 -6.90677002 66.70821289 -8.0625 66.6875 C-8.84866699 66.68169922 -9.63483398 66.67589844 -10.44482422 66.66992188 C-16.17126861 66.54174447 -20.85158894 65.65623825 -26.125 63.3125 C-26.125 58.6925 -26.125 54.0725 -26.125 49.3125 C-21.125 51.3125 -21.125 51.3125 -19.203125 52.1640625 C-13.07420923 54.75706533 -7.6216624 55.04097133 -1.125 53.6875 C1.18047676 52.41077023 1.18047676 52.41077023 1.75 49.375 C2.05803651 46.27051915 2.05803651 46.27051915 0.875 43.3125 C-1.34401727 42.2493987 -1.34401727 42.2493987 -4.125 41.3125 C-6.47458828 40.23288594 -8.80235327 39.1340273 -11.125 38 C-11.72828125 37.71705078 -12.3315625 37.43410156 -12.953125 37.14257812 C-18.7031313 34.32382504 -23.59988714 30.29303046 -26.125 24.3125 C-27.08070995 17.47101533 -26.22633529 12.85484499 -22.125 7.3125 C-15.99499475 1.00735174 -8.45637906 0.05058458 0 0 Z " fill="#FAFBFD" transform="translate(116.125,67.6875)"/>
<path d="M0 0 C16.83 0 33.66 0 51 0 C51 3.96 51 7.92 51 12 C44.73 12 38.46 12 32 12 C32 29.16 32 46.32 32 64 C27.38 64 22.76 64 18 64 C18 46.84 18 29.68 18 12 C12.06 12 6.12 12 0 12 C0 8.04 0 4.08 0 0 Z " fill="#FCFDFE" transform="translate(34,69)"/>
<path d="M0 0 C0.33 0 0.66 0 1 0 C1 2.64 1 5.28 1 8 C-1.64 8 -4.28 8 -7 8 C-6.21625 7.236875 -5.4325 6.47375 -4.625 5.6875 C-1.92742283 3.09108195 -1.92742283 3.09108195 0 0 Z " fill="#000000" transform="translate(145,138)"/>
<path d="M0 0 C2.66666667 2.66666667 5.33333333 5.33333333 8 8 C5.36 8 2.72 8 0 8 C0 5.36 0 2.72 0 0 Z " fill="#000000" transform="translate(0,138)"/>
<path d="M0 0 C2.64 0 5.28 0 8 0 C8 2.64 8 5.28 8 8 C5.33333333 5.33333333 2.66666667 2.66666667 0 0 Z " fill="#000000" transform="translate(138,0)"/>
<path d="M0 0 C2.64 0 5.28 0 8 0 C5.33333333 2.66666667 2.66666667 5.33333333 0 8 C0 5.36 0 2.72 0 0 Z " fill="#000000" transform="translate(0,0)"/>
</svg>
