<?xml version="1.0" encoding="UTF-8"?>
<svg version="1.1" xmlns="http://www.w3.org/2000/svg" width="798" height="312">
<path d="M0 0 C12.6739281 10.16197839 23.60742404 22.0480136 28 38 C28.66 38 29.32 38 30 38 C30.24363281 37.40316406 30.48726562 36.80632813 30.73828125 36.19140625 C34.39139142 29.8465307 43.5668564 26.31796161 50.3125 24.3125 C62.53717913 22.89102568 73.13845542 25.40909678 83 33 C90.2818718 40.26794853 93.45399117 49.2402995 96 59 C97.0725 58.67 98.145 58.34 99.25 58 C109.23248736 55.57467737 118.7249022 56.60518782 128 61 C132.44277193 63.88321482 136.30744534 67.21541905 140 71 C140.87140625 70.66226563 141.7428125 70.32453125 142.640625 69.9765625 C163.05234785 62.33321174 181.76160027 62.17335616 202 71 C219.40068168 80.3353209 231.18773776 94.87729221 237.25 113.625 C242.51343816 131.74990397 239.95893162 149.52113478 231.328125 166.23828125 C222.8296114 181.3363043 210.06824918 192.80757499 193.4375 198.25 C192.65882568 198.50595947 191.88015137 198.76191895 191.07788086 199.02563477 C180.16116511 202.41189486 169.29518025 202.52637571 158 201 C158.08701172 202.4540625 158.08701172 202.4540625 158.17578125 203.9375 C158.89196034 221.38283175 153.53018525 237.16968618 141.6875 250.25 C128.31396964 264.41826424 112.37120373 272.75982182 92.77026367 273.45092773 C71.79573262 273.79171512 55.68091117 267.04442979 40 253 C38.32058914 251.34617573 36.65032068 249.68285389 35 248 C34.37996094 248.28875 33.75992188 248.5775 33.12109375 248.875 C22.98206072 253.12542433 12.76037807 253.88683575 2.4375 249.75 C-1.63530545 247.82077637 -5.39593268 245.70305049 -9 243 C-9.32871094 243.56847656 -9.65742187 244.13695312 -9.99609375 244.72265625 C-15.38610891 253.47230145 -22.1275023 259.15657767 -31.98046875 262.33984375 C-41.66919653 264.4580779 -51.22131661 263.71179708 -60 259 C-65.95971277 255.0380976 -70.19019405 251.09221817 -74 245 C-75.16015625 245.54269531 -76.3203125 246.08539063 -77.515625 246.64453125 C-79.0935035 247.36772556 -80.67164282 248.090351 -82.25 248.8125 C-83.00796875 249.16892578 -83.7659375 249.52535156 -84.546875 249.89257812 C-95.08581153 254.6790118 -105.20397264 256.54722355 -116.75 256.4375 C-117.88598633 256.42920166 -119.02197266 256.42090332 -120.19238281 256.41235352 C-138.72059938 256.04205274 -154.89796214 250.27399591 -169 238 C-169.1959375 239.12535156 -169.391875 240.25070312 -169.59375 241.41015625 C-172.81037121 258.46890223 -179.01782716 272.8039803 -193.68261719 283.19189453 C-208.47692888 292.97896434 -224.46556417 295.40280355 -241.89453125 292.30859375 C-257.1939819 287.97102708 -270.06595269 277.7631433 -278 264 C-283.76188749 252.84400507 -286.07736168 241.4360976 -284 229 C-284.96873047 229.48339844 -284.96873047 229.48339844 -285.95703125 229.9765625 C-289.93134101 231.31323664 -293.52029165 231.38364297 -297.6875 231.375 C-298.48824951 231.37338867 -299.28899902 231.37177734 -300.11401367 231.37011719 C-307.66538777 231.21402434 -313.95695259 229.89460608 -319.5625 224.5625 C-321.78611383 222.75134163 -321.78611383 222.75134163 -323.83984375 223.3125 C-325.36158438 223.84084394 -326.87140145 224.40416976 -328.37109375 224.9921875 C-344.04297653 231.00013068 -360.94052526 230.72946998 -376.49609375 224.62890625 C-385.59828083 220.47160941 -392.00184612 215.07115996 -399 208 C-399.94612319 207.05419569 -400.89271715 206.108862 -401.83984375 205.1640625 C-402.55269531 204.44992188 -403.26554688 203.73578125 -404 203 C-404.70962891 203.58007812 -404.70962891 203.58007812 -405.43359375 204.171875 C-415.05363932 211.74789529 -424.21570432 214.81414645 -436.62890625 213.78125 C-439.89474956 214.08254691 -440.92766498 215.42656737 -443.1875 217.75 C-450.88127782 224.9232417 -459.54881362 227.30543493 -470 227 C-479.72532891 225.81398428 -488.73534835 221.79773311 -495.3125 214.3984375 C-497 212 -497 212 -497 210 C-498.216875 210.474375 -499.43375 210.94875 -500.6875 211.4375 C-511.30073956 214.94739025 -521.87493855 214.89295399 -532.0625 210.3125 C-541.60173506 205.1351418 -547.19346493 197.63362836 -551.375 187.75 C-553.39436358 175.63381853 -552.3298109 164.78757537 -545.125 154.625 C-538.022156 145.9240161 -528.99838162 141.13338394 -517.953125 139.7421875 C-510.16978833 139.31609243 -502.30936996 141.91851702 -495.35546875 145.27734375 C-493.02671532 146.26859564 -493.02671532 146.26859564 -490.97265625 145.13671875 C-490.34230469 144.65847656 -489.71195313 144.18023437 -489.0625 143.6875 C-485.70353622 141.34196173 -483.16413007 140.31230975 -479 140 C-478.79375 138.88625 -478.5875 137.7725 -478.375 136.625 C-476.22994115 128.16476788 -471.30229354 120.80150808 -464 116 C-456.75996949 111.88202283 -451.3651381 109.85727725 -443 109.875 C-441.783125 109.87242188 -440.56625 109.86984375 -439.3125 109.8671875 C-436.65249989 109.97383845 -434.51771029 110.20692126 -432 111 C-431.87044922 109.38544922 -431.87044922 109.38544922 -431.73828125 107.73828125 C-430.11522639 90.00905763 -424.07472171 74.51537532 -411 62 C-404.62109455 56.72493177 -397.69999794 52.98170133 -390 50 C-389.18402344 49.67902344 -388.36804688 49.35804687 -387.52734375 49.02734375 C-372.72953961 44.10998998 -355.76679226 46.22579181 -341.875 52.6875 C-325.21203034 61.50907217 -314.64592315 75.19362698 -309 93 C-308.28927357 95.32601377 -307.62680409 97.64948465 -307 100 C-305.824375 99.505 -304.64875 99.01 -303.4375 98.5 C-293.47877477 95.20136861 -282.6525304 96.18441151 -273 100 C-272.78085937 99.18917969 -272.56171875 98.37835938 -272.3359375 97.54296875 C-267.36495168 80.18493289 -257.87764746 66.13669359 -242 57 C-222.54895554 46.37396645 -200.21456836 43.39451503 -178.81640625 49.60546875 C-168.12976608 53.31737827 -158.61127686 58.67546566 -150 66 C-149.01 66.66 -148.02 67.32 -147 68 C-146.61328125 67.11828125 -146.61328125 67.11828125 -146.21875 66.21875 C-142.6381242 59.70017482 -136.1034445 56.21926209 -129.39453125 53.62890625 C-126.83503928 52.95667426 -124.63474825 52.88300407 -122 53 C-121.938125 51.96875 -121.87625 50.9375 -121.8125 49.875 C-119.45840346 31.4018813 -108.19757296 14.62913104 -94.3125 2.6875 C-66.69727556 -18.04583518 -28.56907181 -20.1686295 0 0 Z " fill="#E6F4FD" transform="translate(554,17)"/>
<path d="M0 0 C1.47155156 1.93489724 2.91195303 3.86696952 4.25390625 5.89453125 C10.45312455 14.98054972 19.81700333 20.30538531 30 24 C31.07435303 24.39348633 31.07435303 24.39348633 32.17041016 24.79492188 C45.07683512 29.32092472 57.50123717 30.57166107 71.0625 30.5625 C71.80008545 30.56512848 72.5376709 30.56775696 73.29760742 30.57046509 C94.12390751 30.56205897 118.99672204 25.84779928 134.5625 11 C137.69905495 7.60482847 139.9367708 4.1264584 142 0 C142.33 0 142.66 0 143 0 C143.81229196 9.49479052 142.17915895 15.89693608 136.109375 23.30859375 C123.00242187 36.53011815 101.38455206 43.38213612 83.09423828 44.11669922 C80.72562123 44.12044637 78.36675402 44.08941427 76 44 C76.80431443 57.55844328 78.9854056 69.5536186 89.125 79.5625 C98.89422705 87.23596382 109.80530575 89.42293597 122 88 C132.51383919 85.63867351 140.74922689 79.7043476 147 71 C148.83601109 67.75057506 148.83601109 67.75057506 150 65 C150.66 65 151.32 65 152 65 C153.2265625 66.87109375 153.2265625 66.87109375 154.625 69.4375 C163.0303359 83.77720558 174.75477778 90.94773031 190.24609375 96.07421875 C205.29755646 99.78618198 220.94741288 96.69487418 234.2890625 89.13671875 C239.0144304 85.88884191 242.66329568 82.34666995 246.3125 77.9375 C249.64717158 74.03136253 249.64717158 74.03136253 252.8125 73.75 C253.864375 74.1625 254.91625 74.575 256 75 C269.97891073 80.17640115 287.3739037 80.16548936 301 74 C316.85856552 66.37682903 326.56629274 54.18417043 333 38 C335.95514876 40.75134539 338.1524809 43.39733775 340 47 C340 47.99 340 48.98 340 50 C340.66 50 341.32 50 342 50 C341.09935603 63.2094449 332.98204222 76.60018838 324 86 C315.88853988 93.06936281 307.7062092 98.8895573 297.4375 102.25 C296.65882568 102.50595947 295.88015137 102.76191895 295.07788086 103.02563477 C284.16116511 106.41189486 273.29518025 106.52637571 262 105 C262.05800781 105.969375 262.11601563 106.93875 262.17578125 107.9375 C262.89196034 125.38283175 257.53018525 141.16968618 245.6875 154.25 C232.31396964 168.41826424 216.37120373 176.75982182 196.77026367 177.45092773 C175.79573262 177.79171512 159.68091117 171.04442979 144 157 C142.32058914 155.34617573 140.65032068 153.68285389 139 152 C138.37996094 152.28875 137.75992188 152.5775 137.12109375 152.875 C126.98206072 157.12542433 116.76037807 157.88683575 106.4375 153.75 C102.36469455 151.82077637 98.60406732 149.70305049 95 147 C94.67128906 147.56847656 94.34257813 148.13695312 94.00390625 148.72265625 C88.61389109 157.47230145 81.8724977 163.15657767 72.01953125 166.33984375 C62.33080347 168.4580779 52.77868339 167.71179708 44 163 C38.04028723 159.0380976 33.80980595 155.09221817 30 149 C28.83984375 149.54269531 27.6796875 150.08539063 26.484375 150.64453125 C24.9064965 151.36772556 23.32835718 152.090351 21.75 152.8125 C20.99203125 153.16892578 20.2340625 153.52535156 19.453125 153.89257812 C8.91418847 158.6790118 -1.20397264 160.54722355 -12.75 160.4375 C-13.88598633 160.42920166 -15.02197266 160.42090332 -16.19238281 160.41235352 C-34.72059938 160.04205274 -50.89796214 154.27399591 -65 142 C-65.1959375 143.12535156 -65.391875 144.25070312 -65.59375 145.41015625 C-68.81037121 162.46890223 -75.01782716 176.8039803 -89.68261719 187.19189453 C-104.47692888 196.97896434 -120.46556417 199.40280355 -137.89453125 196.30859375 C-153.1939819 191.97102708 -166.06595269 181.7631433 -174 168 C-179.76188749 156.84400507 -182.07736168 145.4360976 -180 133 C-180.96873047 133.48339844 -180.96873047 133.48339844 -181.95703125 133.9765625 C-185.93134101 135.31323664 -189.52029165 135.38364297 -193.6875 135.375 C-194.48824951 135.37338867 -195.28899902 135.37177734 -196.11401367 135.37011719 C-203.66538777 135.21402434 -209.95695259 133.89460608 -215.5625 128.5625 C-217.78611383 126.75134163 -217.78611383 126.75134163 -219.83984375 127.3125 C-221.36158438 127.84084394 -222.87140145 128.40416976 -224.37109375 128.9921875 C-240.04297653 135.00013068 -256.94052526 134.72946998 -272.49609375 128.62890625 C-281.59828083 124.47160941 -288.00184612 119.07115996 -295 112 C-295.94612319 111.05419569 -296.89271715 110.108862 -297.83984375 109.1640625 C-298.55269531 108.44992188 -299.26554688 107.73578125 -300 107 C-300.70962891 107.58007812 -300.70962891 107.58007812 -301.43359375 108.171875 C-311.05363932 115.74789529 -320.21570432 118.81414645 -332.62890625 117.78125 C-335.89474956 118.08254691 -336.92766498 119.42656737 -339.1875 121.75 C-346.88127782 128.9232417 -355.54881362 131.30543493 -366 131 C-375.72532891 129.81398428 -384.73534835 125.79773311 -391.3125 118.3984375 C-393 116 -393 116 -393 114 C-394.216875 114.474375 -395.43375 114.94875 -396.6875 115.4375 C-407.30073956 118.94739025 -417.87493855 118.89295399 -428.0625 114.3125 C-437.60173506 109.1351418 -443.19346493 101.63362836 -447.375 91.75 C-449.39436358 79.63381853 -448.3298109 68.78757537 -441.125 58.625 C-435.66796837 51.94013625 -428.71057479 46.5169927 -420 45.25 C-419.01 45.1675 -418.02 45.085 -417 45 C-417.66 45.66 -418.32 46.32 -419 47 C-417.60699235 48.10772939 -416.21045065 49.21101523 -414.8125 50.3125 C-414.03519531 50.92738281 -413.25789063 51.54226562 -412.45703125 52.17578125 C-399.70333743 61.64473994 -383.87885171 63.49297043 -368.42578125 61.55078125 C-365.60534263 61.08015185 -362.80095291 60.57455444 -360 60 C-359.31164062 61.64548828 -359.31164062 61.64548828 -358.609375 63.32421875 C-357.98999576 64.77882152 -357.37018098 66.23323888 -356.75 67.6875 C-356.44964844 68.40873047 -356.14929688 69.12996094 -355.83984375 69.87304688 C-353.12050611 76.20852499 -349.98004224 80.62856926 -344.25 84.625 C-343.45078125 85.19476563 -342.6515625 85.76453125 -341.828125 86.3515625 C-332.49563222 91.7912199 -322.59988596 92.5626636 -312 91 C-302.8068378 88.45995082 -294.5248687 82.83593963 -289.58203125 74.65234375 C-286.76706016 69.31132822 -284.71717013 63.77974336 -283 58 C-283.73863281 58.03480469 -284.47726562 58.06960937 -285.23828125 58.10546875 C-299.1513806 58.47672045 -312.53655149 54.44551121 -323 45 C-327.11023401 40.25742229 -327.73057018 36.06217098 -328 30 C-327.34 30 -326.68 30 -326 30 C-325.566875 31.010625 -325.13375 32.02125 -324.6875 33.0625 C-320.77969507 39.87008951 -313.03496301 43.59582165 -305.75 45.8125 C-304.169265 46.21858537 -302.58565202 46.61355965 -301 47 C-300.02417969 47.34546875 -299.04835938 47.6909375 -298.04296875 48.046875 C-280.72579036 52.99430765 -259.81807592 49.61652223 -244.3125 41.0625 C-239.80995967 38.12902676 -236.43166305 34.86332609 -234 30 C-233.34 30 -232.68 30 -232 30 C-232.02843388 36.14171708 -233.10157062 40.41082922 -237.09375 45.15625 C-246.22468016 53.9878054 -260.5238098 58.34335841 -273 59 C-272.47775803 68.40035542 -268.84115445 76.06217503 -261.890625 82.46875 C-254.23767948 88.6670034 -247.09485591 91.39563911 -237.25 91.375 C-236.45303711 91.37338867 -235.65607422 91.37177734 -234.83496094 91.37011719 C-228.55320975 91.23962052 -223.50087396 90.1605419 -218 87 C-216.948125 86.401875 -215.89625 85.80375 -214.8125 85.1875 C-211.7575895 82.8114585 -209.26052213 80.19566487 -206.7109375 77.29296875 C-205 76 -205 76 -203.1328125 76.17578125 C-202.42898437 76.44777344 -201.72515625 76.71976562 -201 77 C-199.68515625 77.4640625 -199.68515625 77.4640625 -198.34375 77.9375 C-196.44791667 78.64583333 -194.55208333 79.35416667 -192.65625 80.0625 C-190.44349836 80.84347117 -188.28567157 81.48248946 -186 82 C-185.98582031 83.01578125 -185.97164063 84.0315625 -185.95703125 85.078125 C-185.58495527 98.22587866 -182.82184283 108.15525524 -173.38671875 117.87109375 C-165.12386938 125.24139311 -155.416102 127.53605271 -144.5 127.24609375 C-134.32946361 126.24493157 -124.6780488 121.65837019 -118.125 113.75 C-113.42110588 107.17561622 -111.02241097 99.75257537 -109 92 C-109.63164062 92.03480469 -110.26328125 92.06960937 -110.9140625 92.10546875 C-118.9646798 92.34907533 -126.21989374 90.99006026 -134 89 C-135.09699219 88.7215625 -136.19398438 88.443125 -137.32421875 88.15625 C-150.77439639 84.39214721 -164.19192251 77.80471696 -172.0625 65.8125 C-174.95798394 60.16035669 -174.43017181 54.18491473 -174 48 C-172.29744665 50.22714962 -170.75784258 52.40359569 -169.3125 54.8125 C-158.96106256 69.08069756 -140.8847045 74.64749362 -124.27734375 77.6796875 C-97.67278317 81.63112783 -68.38205099 79.69326327 -45.375 64.5625 C-39.69298198 60.24765696 -33.98774381 55.06753356 -32 48 C-30 50 -30 50 -29.625 53 C-29.8949 60.63658226 -33.59263544 67.61005758 -38.78125 73.0625 C-54.19328576 86.52089742 -76.75782298 93.15792114 -97 92 C-95.201176 102.79294398 -90.90716683 113.21531488 -82 120 C-72.1209519 126.56263586 -61.96695056 128.61203606 -50.21875 126.5 C-38.11413476 123.21232672 -30.23805689 115.68335844 -24 105 C-21.06699928 98.66060196 -20.85696636 92.4765544 -20.9375 85.625 C-20.94426758 84.52091797 -20.94426758 84.52091797 -20.95117188 83.39453125 C-20.96284858 81.59631842 -20.98077989 79.79814803 -21 78 C-15.42234327 75.05966587 -10.14673271 72.46987086 -4 71 C-3.69449219 71.49628906 -3.38898438 71.99257812 -3.07421875 72.50390625 C1.84620898 79.80831587 8.81212137 85.19490156 17.4375 87.4375 C31.77922372 89.77638326 42.57130606 86.99733992 54.25 78.6875 C64.21911938 68.94495151 65.49085071 57.325666 66 44 C64.33517578 44.05220703 64.33517578 44.05220703 62.63671875 44.10546875 C43.11780034 44.08401467 21.70948454 36.87994666 7 24 C5.26953125 21.81640625 5.26953125 21.81640625 3.8125 19.5625 C3.32394531 18.82128906 2.83539063 18.08007812 2.33203125 17.31640625 C0.00281831 13.26589812 -1.27423018 9.94919885 -1.1875 5.25 C-1.18105469 4.47140625 -1.17460937 3.6928125 -1.16796875 2.890625 C-1 1 -1 1 0 0 Z " fill="#B3D7FC" transform="translate(450,113)"/>
<path d="M0 0 C12.6739281 10.16197839 23.60742404 22.0480136 28 38 C28.66 38 29.32 38 30 38 C30.24363281 37.40316406 30.48726562 36.80632813 30.73828125 36.19140625 C34.39139142 29.8465307 43.5668564 26.31796161 50.3125 24.3125 C62.53717913 22.89102568 73.13845542 25.40909678 83 33 C90.2818718 40.26794853 93.45399117 49.2402995 96 59 C97.0725 58.67 98.145 58.34 99.25 58 C109.23248736 55.57467737 118.7249022 56.60518782 128 61 C132.44277193 63.88321482 136.30744534 67.21541905 140 71 C140.87140625 70.66226563 141.7428125 70.32453125 142.640625 69.9765625 C163.05234785 62.33321174 181.76160027 62.17335616 202 71 C219.40068168 80.3353209 231.18773776 94.87729221 237.25 113.625 C240.42679701 124.56445424 240.42548434 134.77431084 239 146 C238.01 146 237.02 146 236 146 C234.99491199 144.21118264 233.99607264 142.41885304 233 140.625 C232.1646875 139.12839844 232.1646875 139.12839844 231.3125 137.6015625 C230 135 230 135 230 133 C229.01 132.67 228.02 132.34 227 132 C225.5625 130.3984375 225.5625 130.3984375 224 128.375 C214.89821387 117.70854624 199.56791649 110.92663207 185.64404297 109.8112793 C183.25924532 109.73365879 180.88585053 109.72664747 178.5 109.75 C177.31470703 109.73839844 177.31470703 109.73839844 176.10546875 109.7265625 C167.94881547 109.75326186 160.76391775 111.49508461 153.1875 114.5 C152.10855469 114.9228125 151.02960937 115.345625 149.91796875 115.78125 C147.55122375 116.76977 145.27116984 117.81217267 143 119 C142.70867188 118.2265625 142.41734375 117.453125 142.1171875 116.65625 C137.30533391 104.42990503 130.31122651 94.33453245 117.98046875 88.77734375 C106.30702264 84.19545859 94.80054865 85.42794203 83 89 C82.52691406 88.01 82.05382812 87.02 81.56640625 86 C77.50968833 77.79410631 73.66051638 71.37068811 66 66 C65.3915625 65.57332031 64.783125 65.14664063 64.15625 64.70703125 C57.517952 60.52792092 50.27701383 59.62971591 42.625 59.6875 C41.51463379 59.69160889 41.51463379 59.69160889 40.38183594 59.69580078 C34.53949424 59.80692534 29.42733402 60.77601726 24 63 C23.08734375 63.36351563 22.1746875 63.72703125 21.234375 64.1015625 C20.49703125 64.39804688 19.7596875 64.69453125 19 65 C18.86464844 64.28457031 18.72929688 63.56914063 18.58984375 62.83203125 C15.73938595 49.63799605 9.57828798 39.42379947 0 30 C-0.57492187 29.42636719 -1.14984375 28.85273437 -1.7421875 28.26171875 C-14.77447705 16.19593871 -31.24680341 12.66954664 -48.40234375 12.85546875 C-62.43874708 13.41936335 -75.81116817 19.49910025 -86 29 C-86.64453125 29.56589844 -87.2890625 30.13179687 -87.953125 30.71484375 C-92.76497373 35.16057356 -95.87768374 40.28180453 -99 46 C-99.3815625 46.64710937 -99.763125 47.29421875 -100.15625 47.9609375 C-103.47018378 53.91095496 -104.66628353 60.3718333 -106 67 C-107.03898437 67.09796875 -108.07796875 67.1959375 -109.1484375 67.296875 C-122.62379303 68.68697112 -133.90628224 71.55640973 -143.01171875 82.39453125 C-146.65301518 87.36409933 -149.15240186 92.13115885 -151 98 C-153.23507049 96.91664818 -155.36810809 95.77763737 -157.49609375 94.4921875 C-168.26864625 88.56942955 -180.39449263 88.08878861 -192.32421875 90.73828125 C-196.29819111 92.21711017 -199.44680679 94.2651043 -202.8125 96.8125 C-206 99 -206 99 -208.4375 99.0625 C-210.66463799 98.13905254 -212.73882519 97.11113891 -214.875 96 C-218.61656817 94.06977044 -221.75625838 93.29780643 -226 93 C-227.03253906 92.92265625 -227.03253906 92.92265625 -228.0859375 92.84375 C-237.89886778 92.43057399 -246.542783 95.63577028 -254 102 C-263.09095847 111.53226713 -264.47476336 120.10453485 -265 133 C-268.93381694 131.45136205 -272.77832584 129.75983646 -276.62109375 128 C-287.54924476 123.40622881 -298.33205185 123.78104417 -309.4140625 127.83203125 C-312.08373077 129.03781798 -314.52315952 130.43967992 -317 132 C-317.10957031 131.0821875 -317.21914063 130.164375 -317.33203125 129.21875 C-318.91331371 116.76432607 -318.91331371 116.76432607 -325 106 C-325 105.34 -325 104.68 -325 104 C-325.99 103.67 -326.98 103.34 -328 103 C-328.721875 102.236875 -329.44375 101.47375 -330.1875 100.6875 C-336.80139974 94.36755136 -344.11647869 93.12524603 -353 92 C-352.98839844 91.29875 -352.97679687 90.5975 -352.96484375 89.875 C-352.85198644 78.00886002 -353.58080798 67.60137276 -362.33984375 58.59375 C-367.20234581 54.57787773 -372.24822888 51.55634272 -378 49 C-378 48.67 -378 48.34 -378 48 C-358.07209514 47.16301769 -343.86452746 48.92529758 -328 62 C-316.68156133 72.67264187 -310.95085199 85.18430504 -307 100 C-305.824375 99.505 -304.64875 99.01 -303.4375 98.5 C-293.47877477 95.20136861 -282.6525304 96.18441151 -273 100 C-272.78085937 99.18917969 -272.56171875 98.37835938 -272.3359375 97.54296875 C-267.36495168 80.18493289 -257.87764746 66.13669359 -242 57 C-222.54895554 46.37396645 -200.21456836 43.39451503 -178.81640625 49.60546875 C-168.12976608 53.31737827 -158.61127686 58.67546566 -150 66 C-149.01 66.66 -148.02 67.32 -147 68 C-146.61328125 67.11828125 -146.61328125 67.11828125 -146.21875 66.21875 C-142.6381242 59.70017482 -136.1034445 56.21926209 -129.39453125 53.62890625 C-126.83503928 52.95667426 -124.63474825 52.88300407 -122 53 C-121.938125 51.96875 -121.87625 50.9375 -121.8125 49.875 C-119.45840346 31.4018813 -108.19757296 14.62913104 -94.3125 2.6875 C-66.69727556 -18.04583518 -28.56907181 -20.1686295 0 0 Z " fill="#FAFCFD" transform="translate(554,17)"/>
<path d="M0 0 C0.66 0.33 1.32 0.66 2 1 C-2.95 5.95 -7.9 10.9 -13 16 C-13.66 15.67 -14.32 15.34 -15 15 C-10.28109462 9.59947495 -5.69641143 4.38185495 0 0 Z " fill="#CEE9F7" transform="translate(307,77)"/>
<path d="M0 0 C0.66 0.33 1.32 0.66 2 1 C-1.63 4.63 -5.26 8.26 -9 12 C-9.66 11.67 -10.32 11.34 -11 11 C-9.92173635 9.72486237 -8.83714481 8.45507431 -7.75 7.1875 C-7.14671875 6.47980469 -6.5434375 5.77210937 -5.921875 5.04296875 C-4.07629602 3.08110329 -2.20054668 1.54330375 0 0 Z " fill="#BCE1F8" transform="translate(147,76)"/>
<path d="M0 0 C0.66 0.33 1.32 0.66 2 1 C0.75965588 2.32162881 -0.49268626 3.63200453 -1.75 4.9375 C-2.44609375 5.66839844 -3.1421875 6.39929687 -3.859375 7.15234375 C-6.00599725 9.00517646 -7.23532932 9.60771565 -10 10 C-9.67 8.68 -9.34 7.36 -9 6 C-9 6.66 -9 7.32 -9 8 C-8.34 8 -7.68 8 -7 8 C-6.773125 7.4225 -6.54625 6.845 -6.3125 6.25 C-4.66961977 3.4336339 -2.60466773 1.91922886 0 0 Z " fill="#BFE0F4" transform="translate(591,47)"/>
<path d="M0 0 C0.66 0.33 1.32 0.66 2 1 C-0.64 3.97 -3.28 6.94 -6 10 C-6.66 9.67 -7.32 9.34 -8 9 C-6.85459775 7.68712379 -5.70866567 6.37470979 -4.5625 5.0625 C-3.92441406 4.33160156 -3.28632813 3.60070312 -2.62890625 2.84765625 C-1.77458541 1.87860647 -0.91348825 0.91348825 0 0 Z " fill="#96CCF8" transform="translate(16,164)"/>
<path d="M0 0 C0.66 0 1.32 0 2 0 C0.55746343 3.36591866 -1.33264727 5.51047079 -4 8 C-4.66 7.67 -5.32 7.34 -6 7 C-5.04882866 5.8274869 -4.08882991 4.66212985 -3.125 3.5 C-2.59132813 2.8503125 -2.05765625 2.200625 -1.5078125 1.53125 C-0.76144531 0.77328125 -0.76144531 0.77328125 0 0 Z " fill="#C3E2F4" transform="translate(456,23)"/>
<path d="M0 0 C2 2 2 2 2.125 5.625 C2.08375 6.73875 2.0425 7.8525 2 9 C1.34 8.01 0.68 7.02 0 6 C-0.99 6.66 -1.98 7.32 -3 8 C-2.690625 7.236875 -2.38125 6.47375 -2.0625 5.6875 C-1.32106407 3.81210323 -0.63771783 1.91315348 0 0 Z " fill="#C1DDF8" transform="translate(418,161)"/>
<path d="M0 0 C2.64 0 5.28 0 8 0 C8 0.33 8 0.66 8 1 C5.36 1 2.72 1 0 1 C0 0.67 0 0.34 0 0 Z " fill="#4EAAF0" transform="translate(134,55)"/>
<path d="M0 0 C1.98 0 3.96 0 6 0 C6 0.33 6 0.66 6 1 C4.02 1 2.04 1 0 1 C0 0.67 0 0.34 0 0 Z " fill="#2CCDF9" transform="translate(543,299)"/>
<path d="M0 0 C1.98 0 3.96 0 6 0 C6 0.33 6 0.66 6 1 C4.02 1 2.04 1 0 1 C0 0.67 0 0.34 0 0 Z " fill="#28CFFF" transform="translate(535,298)"/>
<path d="M0 0 C1.98 0 3.96 0 6 0 C6 0.33 6 0.66 6 1 C4.02 1 2.04 1 0 1 C0 0.67 0 0.34 0 0 Z " fill="#28CFFF" transform="translate(527,297)"/>
<path d="M0 0 C1.65 0 3.3 0 5 0 C5 0.33 5 0.66 5 1 C3.35 1 1.7 1 0 1 C0 0.67 0 0.34 0 0 Z " fill="#00FFFF" transform="translate(506,295)"/>
<path d="M0 0 C1.65 0 3.3 0 5 0 C5 0.33 5 0.66 5 1 C3.35 1 1.7 1 0 1 C0 0.67 0 0.34 0 0 Z " fill="#4AA7EB" transform="translate(54,292)"/>
<path d="M0 0 C1.65 0 3.3 0 5 0 C5 0.33 5 0.66 5 1 C3.35 1 1.7 1 0 1 C0 0.67 0 0.34 0 0 Z " fill="#4BABED" transform="translate(46,291)"/>
<path d="M0 0 C1.65 0 3.3 0 5 0 C5 0.33 5 0.66 5 1 C3.35 1 1.7 1 0 1 C0 0.67 0 0.34 0 0 Z " fill="#48ABEF" transform="translate(144,54)"/>
<path d="M0 0 C1.65 0 3.3 0 5 0 C5 0.33 5 0.66 5 1 C3.35 1 1.7 1 0 1 C0 0.67 0 0.34 0 0 Z " fill="#46A8F2" transform="translate(151,53)"/>
<path d="M0 0 C1.65 0 3.3 0 5 0 C5 0.33 5 0.66 5 1 C3.35 1 1.7 1 0 1 C0 0.67 0 0.34 0 0 Z " fill="#48A9F3" transform="translate(158,52)"/>
<path d="M0 0 C4 1 4 1 4 1 Z " fill="#4DB2F6" transform="translate(145,311)"/>
<path d="M0 0 C4 1 4 1 4 1 Z " fill="#4DB2F8" transform="translate(139,310)"/>
<path d="M0 0 C4 1 4 1 4 1 Z " fill="#4CA9EC" transform="translate(654,299)"/>
<path d="M0 0 C4 1 4 1 4 1 Z " fill="#5CAAF3" transform="translate(659,298)"/>
<path d="M0 0 C4 1 4 1 4 1 Z " fill="#47B5F5" transform="translate(40,290)"/>
<path d="M0 0 C4 1 4 1 4 1 Z " fill="#46ACF6" transform="translate(35,289)"/>
<path d="M0 0 C4 1 4 1 4 1 Z " fill="#4AADF7" transform="translate(30,288)"/>
<path d="M0 0 C4 1 4 1 4 1 Z " fill="#47ABF3" transform="translate(24,287)"/>
<path d="M0 0 C4 1 4 1 4 1 Z " fill="#46ADF0" transform="translate(18,286)"/>
<path d="M0 0 C4 1 4 1 4 1 Z " fill="#48AAEF" transform="translate(12,285)"/>
<path d="M0 0 C4 1 4 1 4 1 Z " fill="#358AFF" transform="translate(128,56)"/>
<path d="M0 0 C4 1 4 1 4 1 Z " fill="#41ACEE" transform="translate(171,49)"/>
<path d="M0 0 C4 1 4 1 4 1 Z " fill="#55CAFF" transform="translate(176,48)"/>
<path d="M0 0 C3 1 3 1 3 1 Z " fill="#4AB5E7" transform="translate(134,309)"/>
<path d="M0 0 C3 1 3 1 3 1 Z " fill="#4AB5F3" transform="translate(129,308)"/>
<path d="M0 0 C3 1 3 1 3 1 Z " fill="#45A7EC" transform="translate(124,307)"/>
<path d="M0 0 C3 1 3 1 3 1 Z " fill="#40A2E2" transform="translate(119,306)"/>
<path d="M0 0 C3 1 3 1 3 1 Z " fill="#4EB1EC" transform="translate(114,305)"/>
<path d="M0 0 C3 1 3 1 3 1 Z " fill="#52ACF5" transform="translate(110,304)"/>
<path d="M0 0 C3 1 3 1 3 1 Z " fill="#44AADD" transform="translate(105,303)"/>
<path d="M0 0 C3 1 3 1 3 1 Z " fill="#4AB0F1" transform="translate(101,302)"/>
<path d="M0 0 C3 1 3 1 3 1 Z " fill="#AAFFFF" transform="translate(518,296)"/>
<path d="M0 0 C3 1 3 1 3 1 Z " fill="#49A6EB" transform="translate(76,296)"/>
<path d="M0 0 C3 1 3 1 3 1 Z " fill="#46ABEB" transform="translate(71,295)"/>
<path d="M0 0 C3 1 3 1 3 1 Z " fill="#44ABEF" transform="translate(66,294)"/>
<path d="M0 0 C3 1 3 1 3 1 Z " fill="#4AABED" transform="translate(61,293)"/>
<path d="M0 0 C3 1 3 1 3 1 Z " fill="#15E9FF" transform="translate(694,287)"/>
<path d="M0 0 C3 1 3 1 3 1 Z " fill="#1594FF" transform="translate(700,284)"/>
<path d="M0 0 C3 1 3 1 3 1 Z " fill="#15E9FF" transform="translate(705,281)"/>
<path d="M0 0 C0.99 0.495 0.99 0.495 2 1 C1.01 1.495 1.01 1.495 0 2 C0 1.34 0 0.68 0 0 Z " fill="#47ABF0" transform="translate(63,99)"/>
<path d="M0 0 C3 1 3 1 3 1 Z " fill="#639CE7" transform="translate(23,81)"/>
<path d="M0 0 C3 1 3 1 3 1 Z " fill="#44AAF2" transform="translate(164,51)"/>
<path d="M0 0 C3 1 3 1 3 1 Z " fill="#49A9F5" transform="translate(167,50)"/>
<path d="M0 0 C3 1 3 1 3 1 Z " fill="#00FFFF" transform="translate(189,45)"/>
<path d="M0 0 C3 1 3 1 3 1 Z " fill="#95E9FF" transform="translate(706,40)"/>
<path d="M0 0 C3 1 3 1 3 1 Z " fill="#2DD1FF" transform="translate(234,34)"/>
<path d="M0 0 C3 1 3 1 3 1 Z " fill="#2AD4FF" transform="translate(300,33)"/>
<path d="M0 0 C2 1 2 1 2 1 Z " fill="#7FFFFF" transform="translate(369,311)"/>
<path d="M0 0 C2 1 2 1 2 1 Z " fill="#46A2E8" transform="translate(97,301)"/>
<path d="M0 0 C2 1 2 1 2 1 Z " fill="#43B1F4" transform="translate(93,300)"/>
<path d="M0 0 C2 1 2 1 2 1 Z " fill="#4AAAF4" transform="translate(89,299)"/>
<path d="M0 0 C2 1 2 1 2 1 Z " fill="#4EB1EB" transform="translate(85,298)"/>
<path d="M0 0 C2 1 2 1 2 1 Z " fill="#7FFFFF" transform="translate(669,297)"/>
<path d="M0 0 C2 1 2 1 2 1 Z " fill="#4EB1FF" transform="translate(81,297)"/>
<path d="M0 0 C2 1 2 1 2 1 Z " fill="#4040FF" transform="translate(689,290)"/>
<path d="M0 0 C2 1 2 1 2 1 Z " fill="#4040FF" transform="translate(691,289)"/>
<path d="M0 0 C2 1 2 1 2 1 Z " fill="#19E5FF" transform="translate(698,285)"/>
<path d="M0 0 C2 1 2 1 2 1 Z " fill="#4040FF" transform="translate(708,280)"/>
<path d="M0 0 C2 1 2 1 2 1 Z " fill="#6AD4FF" transform="translate(62,96)"/>
<path d="M0 0 C2 1 2 1 2 1 Z " fill="#40AFF7" transform="translate(69,95)"/>
<path d="M0 0 C2 1 2 1 2 1 Z " fill="#4AAAF4" transform="translate(72,93)"/>
<path d="M0 0 C2 1 2 1 2 1 Z " fill="#51AEC8" transform="translate(75,91)"/>
<path d="M0 0 C2 1 2 1 2 1 Z " fill="#5CD4F1" transform="translate(78,89)"/>
<path d="" fill="#60DFFF" transform="translate(0,0)"/>
<path d="M0 0 C2 1 2 1 2 1 Z " fill="#7FFFFF" transform="translate(126,57)"/>
<path d="M0 0 C2 1 2 1 2 1 Z " fill="#2AD4FF" transform="translate(181,47)"/>
<path d="M0 0 C2 1 2 1 2 1 Z " fill="#007FFF" transform="translate(184,46)"/>
<path d="M0 0 C2 1 2 1 2 1 Z " fill="#00FFFF" transform="translate(711,41)"/>
<path d="M0 0 C2 1 2 1 2 1 Z " fill="#44A1FF" transform="translate(703,39)"/>
<path d="M0 0 C2 1 2 1 2 1 Z " fill="#4AB4FF" transform="translate(701,38)"/>
<path d="M0 0 C2 1 2 1 2 1 Z " fill="#44A1FF" transform="translate(699,37)"/>
<path d="M0 0 C2 1 2 1 2 1 Z " fill="#598CFF" transform="translate(697,36)"/>
<path d="M0 0 C2 1 2 1 2 1 Z " fill="#40A6F2" transform="translate(694,35)"/>
<path d="" fill="#00FFFF" transform="translate(0,0)"/>
<path d="" fill="#00FFFF" transform="translate(0,0)"/>
<path d="" fill="#00FFFF" transform="translate(0,0)"/>
<path d="" fill="#00FFFF" transform="translate(0,0)"/>
<path d="" fill="#00FFFF" transform="translate(0,0)"/>
<path d="" fill="#00FFFF" transform="translate(0,0)"/>
<path d="" fill="#00FFFF" transform="translate(0,0)"/>
<path d="" fill="#80FFFF" transform="translate(0,0)"/>
<path d="" fill="#55AAFF" transform="translate(0,0)"/>
<path d="" fill="#48ABF4" transform="translate(0,0)"/>
<path d="" fill="#80FFFF" transform="translate(0,0)"/>
<path d="" fill="#55AAFF" transform="translate(0,0)"/>
<path d="" fill="#FFFFFF" transform="translate(0,0)"/>
<path d="" fill="#00FFFF" transform="translate(0,0)"/>
<path d="" fill="#00FFFF" transform="translate(0,0)"/>
<path d="" fill="#00FFFF" transform="translate(0,0)"/>
<path d="" fill="#45ABF2" transform="translate(0,0)"/>
<path d="" fill="#47A3EB" transform="translate(0,0)"/>
<path d="" fill="#46A2E8" transform="translate(0,0)"/>
<path d="" fill="#46A2E8" transform="translate(0,0)"/>
<path d="" fill="#FFFFFF" transform="translate(0,0)"/>
<path d="" fill="#409FDF" transform="translate(0,0)"/>
<path d="" fill="#55AAFF" transform="translate(0,0)"/>
<path d="" fill="#55AAD5" transform="translate(0,0)"/>
<path d="" fill="#55AAD5" transform="translate(0,0)"/>
<path d="" fill="#8080FF" transform="translate(0,0)"/>
<path d="" fill="#00FFFF" transform="translate(0,0)"/>
<path d="" fill="#55AAFF" transform="translate(0,0)"/>
<path d="" fill="#8080FF" transform="translate(0,0)"/>
<path d="" fill="#00FFFF" transform="translate(0,0)"/>
<path d="" fill="#0000FF" transform="translate(0,0)"/>
<path d="" fill="#8080FF" transform="translate(0,0)"/>
<path d="" fill="#FFFFFF" transform="translate(0,0)"/>
<path d="" fill="#FFFFFF" transform="translate(0,0)"/>
<path d="" fill="#0000FF" transform="translate(0,0)"/>
<path d="" fill="#FFFFFF" transform="translate(0,0)"/>
<path d="" fill="#00FFFF" transform="translate(0,0)"/>
<path d="" fill="#00FFFF" transform="translate(0,0)"/>
<path d="" fill="#00FFFF" transform="translate(0,0)"/>
<path d="" fill="#00FFFF" transform="translate(0,0)"/>
<path d="" fill="#00FFFF" transform="translate(0,0)"/>
<path d="" fill="#00FFFF" transform="translate(0,0)"/>
<path d="" fill="#00FFFF" transform="translate(0,0)"/>
<path d="" fill="#00FFFF" transform="translate(0,0)"/>
<path d="" fill="#00FFFF" transform="translate(0,0)"/>
<path d="" fill="#00FFFF" transform="translate(0,0)"/>
<path d="" fill="#00FFFF" transform="translate(0,0)"/>
<path d="" fill="#00FFFF" transform="translate(0,0)"/>
<path d="" fill="#00FFFF" transform="translate(0,0)"/>
<path d="" fill="#3399FF" transform="translate(0,0)"/>
<path d="" fill="#66CCFF" transform="translate(0,0)"/>
<path d="" fill="#40BFFF" transform="translate(0,0)"/>
<path d="" fill="#40BFFF" transform="translate(0,0)"/>
<path d="" fill="#80FFFF" transform="translate(0,0)"/>
<path d="" fill="#80FFFF" transform="translate(0,0)"/>
<path d="" fill="#8080FF" transform="translate(0,0)"/>
<path d="" fill="#FFFFFF" transform="translate(0,0)"/>
<path d="" fill="#00FFFF" transform="translate(0,0)"/>
<path d="" fill="#00FFFF" transform="translate(0,0)"/>
</svg>
