<?xml version="1.0" encoding="UTF-8"?>
<svg version="1.1" xmlns="http://www.w3.org/2000/svg" width="790" height="341">
<path d="M0 0 C14.95864486 13.36529707 24.92965962 31.45070671 27.70776367 51.37792969 C27.7842828 53.32200921 27.8158799 55.26831047 27.80541992 57.21386719 C27.80219727 58.27734375 27.79897461 59.34082031 27.7956543 60.43652344 C27.78727539 61.5309375 27.77889648 62.62535156 27.77026367 63.75292969 C27.76575195 64.87054688 27.76124023 65.98816406 27.7565918 67.13964844 C27.74485612 69.88579773 27.7284373 72.63183555 27.70776367 75.37792969 C28.53018555 75.66925781 29.35260742 75.96058594 30.19995117 76.26074219 C40.16463746 79.91983022 48.77592394 84.28102045 56.70776367 91.37792969 C57.58819336 91.02859375 58.46862305 90.67925781 59.37573242 90.31933594 C60.53717773 89.86429687 61.69862305 89.40925781 62.89526367 88.94042969 C64.04381836 88.48796875 65.19237305 88.03550781 66.37573242 87.56933594 C77.39872225 83.62793864 88.01998655 85.26285285 98.87573242 89.15527344 C100.76798882 89.60150129 100.76798882 89.60150129 102.17260742 88.26074219 C102.90157227 87.390625 102.90157227 87.390625 103.64526367 86.50292969 C117.55248111 71.68037522 138.31679884 63.28853884 158.36401367 62.17480469 C182.03806991 61.88609668 203.02748171 68.87509004 220.14526367 85.44042969 C220.87181152 86.19296021 220.87181152 86.19296021 221.61303711 86.96069336 C223.15242877 88.54771495 223.15242877 88.54771495 225.70776367 90.37792969 C228.19333949 90.4698636 228.19333949 90.4698636 230.70776367 89.37792969 C232.3996582 88.82298828 232.3996582 88.82298828 234.12573242 88.25683594 C236.62633781 87.38356753 239.12634506 86.50858438 241.62573242 85.63183594 C263.77975648 78.48961046 288.94246458 80.99873028 309.71948242 91.10473633 C327.74301783 100.40289495 341.9754109 115.03047027 348.74291992 134.30761719 C351.91455017 144.4003353 351.92684213 153.88650595 351.70776367 164.37792969 C352.32071289 164.36221924 352.93366211 164.34650879 353.56518555 164.33032227 C379.80183719 163.74897537 404.55168936 167.39533941 424.50463867 185.93652344 C430.06499205 192.09826255 433.15827678 199.79233974 432.97338867 208.11230469 C431.88066871 217.43256317 426.45780516 224.21981492 419.70776367 230.37792969 C397.82716601 247.37747095 371.23917221 248.78442802 344.70776367 247.37792969 C342.3707659 247.07134047 340.03599574 246.74520478 337.70776367 246.37792969 C337.76577148 247.41691406 337.8237793 248.45589844 337.88354492 249.52636719 C338.34703044 261.25579085 336.34779376 268.20884919 328.77026367 277.44042969 C310.06589169 297.13412382 279.37903191 303.83945463 253.16479492 304.56152344 C220.71145911 305.10349631 188.02991608 299.49898815 163.70776367 276.37792969 C162.77963867 277.18230469 161.85151367 277.98667969 160.89526367 278.81542969 C159.9265332 279.63720703 159.9265332 279.63720703 158.93823242 280.47558594 C157.38501316 281.8003106 155.84695719 283.14293447 154.32104492 284.49902344 C136.79596952 299.61407352 114.87838141 306.94054247 91.70776367 305.37792969 C68.67638844 302.7764169 47.60517339 291.91544313 32.95776367 273.81542969 C31.34321353 271.69548465 29.89775722 269.75791678 28.70776367 267.37792969 C27.59401367 267.76980469 26.48026367 268.16167969 25.33276367 268.56542969 C-12.26612923 280.92269823 -53.30809815 283.57328853 -90.29223633 267.37792969 C-91.30930664 266.93707031 -92.32637695 266.49621094 -93.37426758 266.04199219 C-101.74076595 262.15409435 -108.77110421 256.89906181 -115.29223633 250.37792969 C-115.78530273 251.41240234 -115.78530273 251.41240234 -116.28833008 252.46777344 C-122.76107632 265.25539406 -131.21223252 272.07010206 -144.29223633 277.37792969 C-155.80214957 280.42832272 -167.19049689 278.40308323 -177.41723633 272.69042969 C-188.90206808 265.35239747 -193.87694409 255.92665501 -198.29223633 243.37792969 C-198.91227539 244.05597656 -199.53231445 244.73402344 -200.17114258 245.43261719 C-216.26159641 262.34281758 -236.29179923 272.30515194 -259.81567383 273.50683594 C-281.35177057 273.98050375 -302.28785712 266.90091181 -318.29223633 252.37792969 C-319.12368164 251.63929688 -319.95512695 250.90066406 -320.81176758 250.13964844 C-336.14031397 235.75294821 -345.38441659 215.53921442 -346.49536133 194.53808594 C-346.77495757 179.89757173 -344.79059986 166.67257599 -338.29223633 153.37792969 C-337.87329102 152.47816406 -337.4543457 151.57839844 -337.02270508 150.65136719 C-329.89210935 136.39017573 -317.66418024 123.41100862 -303.29223633 116.37792969 C-302.63223633 116.37792969 -301.97223633 116.37792969 -301.29223633 116.37792969 C-301.61836914 115.84425781 -301.94450195 115.31058594 -302.28051758 114.76074219 C-308.69832067 103.81829325 -310.97472286 93.30460025 -308.82348633 80.61230469 C-305.7758808 69.0749409 -298.92509645 60.09446118 -288.80786133 53.84277344 C-277.09149551 47.60253512 -266.15672023 47.87393992 -253.29223633 49.37792969 C-252.80754883 48.35054688 -252.32286133 47.32316406 -251.82348633 46.26464844 C-241.13303794 23.99422872 -225.82795992 7.1563053 -202.29223633 -1.62207031 C-180.75740822 -8.57632959 -157.69604457 -7.44719957 -137.29223633 2.37792969 C-134.23727498 3.95791751 -131.25686525 5.63536154 -128.29223633 7.37792969 C-126.9387333 8.14992771 -125.58461933 8.92085614 -124.22973633 9.69042969 C-123.26036133 10.24730469 -122.29098633 10.80417969 -121.29223633 11.37792969 C-120.75856445 10.74886719 -120.22489258 10.11980469 -119.67504883 9.47167969 C-104.89005537 -7.51315709 -85.42548797 -18.55398544 -62.80786133 -20.46191406 C-39.49667911 -21.94601107 -17.77574315 -15.29510422 0 0 Z " fill="#E6F4FD" transform="translate(351.292236328125,25.6220703125)"/>
<path d="M0 0 C1.4712017 1.94009347 2.91918344 3.88122414 4.2890625 5.89453125 C9.81100904 13.82223813 17.11644539 19.2997673 26 23 C26.96035156 23.41121094 27.92070312 23.82242188 28.91015625 24.24609375 C57.5876363 35.54938121 91.11063549 33.28560485 119.2421875 21.66015625 C129.47760387 16.95915713 137.74770627 10.63073433 142 0 C142.99 0.495 142.99 0.495 144 1 C144.62759841 9.47257848 142.34940914 16.41772721 137.0625 23.125 C124.30406309 36.61950058 103.05091055 43.41912034 84.85473633 44.07763672 C82.58974699 44.0977264 80.32742099 44.08773048 78.0625 44.0625 C77.28326172 44.05798828 76.50402344 44.05347656 75.70117188 44.04882812 C73.80074732 44.03716908 71.90036294 44.01923877 70 44 C69.89955022 48.17677912 69.82780601 52.35287985 69.78027344 56.53051758 C69.76041606 57.945356 69.73332034 59.36011531 69.69824219 60.7746582 C69.232661 80.06204346 75.68813503 97.77572249 89 112 C102.58765244 125.89787282 120.47434007 135.00910936 140.10620117 135.43115234 C162.40260718 135.48006035 180.79185818 128.73840323 197.125 113.1875 C206.28212009 103.7033399 213.00285701 91.88771484 216 79 C217.12921875 79.15984375 218.2584375 79.3196875 219.421875 79.484375 C234.78474836 81.38953344 249.27492899 80.53850982 263.0390625 72.98828125 C265 72 265 72 267 72 C267.14695312 72.70382813 267.29390625 73.40765625 267.4453125 74.1328125 C270.29333883 86.67067555 274.96736609 97.90771637 283 108 C283.58265625 108.75796875 284.1653125 109.5159375 284.765625 110.296875 C292.63971285 119.89135179 303.43955618 126.6807133 315 131 C316.0209375 131.391875 317.041875 131.78375 318.09375 132.1875 C337.09866096 138.58167565 358.10376842 135.36356551 376 127 C386.37965232 121.50323892 386.37965232 121.50323892 394 113 C394.66 113 395.32 113 396 113 C396.268125 112.4225 396.53625 111.845 396.8125 111.25 C398.01800803 108.96587952 399.43135523 107.04568469 401 105 C399.42025391 104.87044922 399.42025391 104.87044922 397.80859375 104.73828125 C378.8867969 102.97975816 360.22862716 97.36735514 347 83 C343.16111168 77.82546159 340.86203246 73.86520846 340.9375 67.375 C340.94652344 66.37210937 340.95554687 65.36921875 340.96484375 64.3359375 C340.98224609 63.17964844 340.98224609 63.17964844 341 62 C341.66 62 342.32 62 343 62 C343.36738281 62.8353125 343.36738281 62.8353125 343.7421875 63.6875 C349.29742921 75.02785548 360.35367146 81.78744283 372 86 C378.90567003 88.0480941 385.94451228 89.56783678 393 91 C393.80244141 91.18103271 394.60488281 91.36206543 395.43164062 91.54858398 C408.75361723 93.89006067 424.81130038 92.94624752 438 90 C438.68433105 89.84934082 439.36866211 89.69868164 440.07373047 89.54345703 C453.79193548 86.42336714 471.49974568 81.14307037 479.51953125 68.62890625 C480.75468735 66.44781792 481.91152259 64.25721122 483 62 C483.66 62 484.32 62 485 62 C485.78661537 71.3519827 484.09103906 76.69978684 478.4140625 84.0546875 C468.38149283 95.31394691 450.32522793 102.4137268 435.5625 103.8125 C434.04258571 103.89435856 432.52171917 103.96519977 431 104 C438.44082815 116.61705643 450.57252628 124.75559949 464 130 C464.91007813 130.3609375 465.82015625 130.721875 466.7578125 131.09375 C485.40931924 138.2087662 506.00814777 136.21217 524.10546875 128.2734375 C540.93669449 120.25695909 553.52351091 105.98177421 561 89 C567 91 567 91 569.2265625 91.765625 C570.38285156 92.16007812 570.38285156 92.16007812 571.5625 92.5625 C572.28566406 92.81128906 573.00882813 93.06007813 573.75390625 93.31640625 C587.65989261 97.54866297 604.06344884 96.43423202 617 90 C617.8971875 89.55398437 618.794375 89.10796875 619.71875 88.6484375 C626.14951296 85.09563945 634.64583312 79.70833376 638 73 C652.272303 75.61658888 667.93770626 82.15293891 677 94 C681.62862186 101.78669198 684.62519511 109.2795986 682.421875 118.390625 C677.95155729 131.3139071 667.53749079 138.59868487 655.85546875 144.62109375 C635.08409679 154.31762478 610.46432322 155.5437131 588 152 C588.08701172 153.55847656 588.08701172 153.55847656 588.17578125 155.1484375 C588.63926676 166.87786116 586.64003008 173.83091951 579.0625 183.0625 C560.35812802 202.75619414 529.67126824 209.46152495 503.45703125 210.18359375 C471.00369544 210.72556663 438.32215241 205.12105846 414 182 C413.071875 182.804375 412.14375 183.60875 411.1875 184.4375 C410.21876953 185.25927734 410.21876953 185.25927734 409.23046875 186.09765625 C407.67724948 187.42238091 406.13919351 188.76500478 404.61328125 190.12109375 C387.08820585 205.23614384 365.17061773 212.56261279 342 211 C318.96862477 208.39848722 297.89740972 197.53751344 283.25 179.4375 C281.63544986 177.31755496 280.18999355 175.37998709 279 173 C277.88625 173.391875 276.7725 173.78375 275.625 174.1875 C238.0261071 186.54476854 196.98413818 189.19535884 160 173 C158.98292969 172.55914062 157.96585938 172.11828125 156.91796875 171.6640625 C148.55147038 167.77616467 141.52113212 162.52113212 135 156 C134.50693359 157.03447266 134.50693359 157.03447266 134.00390625 158.08984375 C127.53116001 170.87746437 119.08000381 177.69217237 106 183 C94.49008675 186.05039303 83.10173944 184.02515354 72.875 178.3125 C61.39016824 170.97446778 56.41529224 161.54872532 52 149 C51.37996094 149.67804688 50.75992188 150.35609375 50.12109375 151.0546875 C34.03063991 167.96488789 14.0004371 177.92722225 -9.5234375 179.12890625 C-31.05953424 179.60257407 -51.99562079 172.52298212 -68 158 C-68.83144531 157.26136719 -69.66289063 156.52273438 -70.51953125 155.76171875 C-85.81802448 141.4032251 -95.28147356 121.02740573 -96.16796875 100.01953125 C-96.18250532 98.61724773 -96.18878318 97.21485828 -96.1875 95.8125 C-96.18814453 95.07652588 -96.18878906 94.34055176 -96.18945312 93.58227539 C-96.12895841 87.25714083 -95.33511899 81.18684604 -94 75 C-93.67 75 -93.34 75 -93 75 C-92.82984375 75.75023437 -92.6596875 76.50046875 -92.484375 77.2734375 C-87.60907633 97.86379464 -77.20384475 113.73852399 -59 125 C-40.72730113 135.71689933 -20.83992706 137.7587896 -0.3828125 132.96484375 C17.90440266 127.74897522 33.70160168 116.21394154 43.4765625 99.76171875 C53.33276077 81.89420035 56.2795087 63.10365497 53 43 C51.7625 42.896875 50.525 42.79375 49.25 42.6875 C34.25118595 40.91470083 17.82945392 35.01378505 7 24 C2.384135 18.04848045 -0.13682528 13.95617836 -0.0625 6.375 C-0.05347656 5.18648438 -0.04445313 3.99796875 -0.03515625 2.7734375 C-0.02355469 1.85820313 -0.01195313 0.94296875 0 0 Z " fill="#B3D7FC" transform="translate(101,120)"/>
<path d="M0 0 C14.95864486 13.36529707 24.92965962 31.45070671 27.70776367 51.37792969 C27.7842828 53.32200921 27.8158799 55.26831047 27.80541992 57.21386719 C27.80219727 58.27734375 27.79897461 59.34082031 27.7956543 60.43652344 C27.78727539 61.5309375 27.77889648 62.62535156 27.77026367 63.75292969 C27.76575195 64.87054688 27.76124023 65.98816406 27.7565918 67.13964844 C27.74485612 69.88579773 27.7284373 72.63183555 27.70776367 75.37792969 C28.53018555 75.66925781 29.35260742 75.96058594 30.19995117 76.26074219 C40.16463746 79.91983022 48.77592394 84.28102045 56.70776367 91.37792969 C57.58819336 91.02859375 58.46862305 90.67925781 59.37573242 90.31933594 C60.53717773 89.86429687 61.69862305 89.40925781 62.89526367 88.94042969 C64.04381836 88.48796875 65.19237305 88.03550781 66.37573242 87.56933594 C77.39872225 83.62793864 88.01998655 85.26285285 98.87573242 89.15527344 C100.76798882 89.60150129 100.76798882 89.60150129 102.17260742 88.26074219 C102.90157227 87.390625 102.90157227 87.390625 103.64526367 86.50292969 C117.55248111 71.68037522 138.31679884 63.28853884 158.36401367 62.17480469 C182.03806991 61.88609668 203.02748171 68.87509004 220.14526367 85.44042969 C220.87181152 86.19296021 220.87181152 86.19296021 221.61303711 86.96069336 C223.15242877 88.54771495 223.15242877 88.54771495 225.70776367 90.37792969 C228.19333949 90.4698636 228.19333949 90.4698636 230.70776367 89.37792969 C232.3996582 88.82298828 232.3996582 88.82298828 234.12573242 88.25683594 C236.62633781 87.38356753 239.12634506 86.50858438 241.62573242 85.63183594 C263.77975648 78.48961046 288.94246458 80.99873028 309.71948242 91.10473633 C322.60567478 97.75259192 336.21768643 108.06690852 342.70776367 121.37792969 C342.70776367 122.69792969 342.70776367 124.01792969 342.70776367 125.37792969 C339.8125884 124.43531448 336.95873586 123.48199133 334.14526367 122.31542969 C327.25238192 119.66432132 319.31529063 118.80887278 312.46557617 121.78808594 C310.39658687 122.89846039 308.35087227 124.05382999 306.33666992 125.26074219 C303.70776367 126.37792969 303.70776367 126.37792969 301.62963867 125.78417969 C299.45950869 124.1962797 297.42737172 122.51479194 295.39526367 120.75292969 C279.43695538 107.88332622 260.18913649 102.15482925 239.70776367 103.37792969 C225.85067102 105.2092 214.42592265 109.9449207 202.70776367 117.37792969 C201.04336698 118.38170329 199.37728141 119.38269689 197.70776367 120.37792969 C197.37905273 119.62769531 197.0503418 118.87746094 196.71166992 118.10449219 C190.04693701 103.76357639 180.48703909 94.88393425 165.70776367 89.37792969 C154.67981554 86.44407934 140.32897876 86.75963646 130.14916992 91.88574219 C126.43802748 94.15399245 123.04348884 96.59188383 119.70776367 99.37792969 C118.19182617 100.42980469 118.19182617 100.42980469 116.64526367 101.50292969 C111.4736216 105.82210328 107.80952364 113.07264978 105.70776367 119.37792969 C102.22023324 117.70018676 99.04277755 115.70772005 95.80541992 113.59667969 C90.86571039 110.72668085 86.63005572 110.02076072 80.95776367 110.06542969 C80.24910156 110.06889404 79.54043945 110.0723584 78.81030273 110.07592773 C71.39608823 110.22947154 65.44122545 111.5618218 59.70776367 116.37792969 C59.04776367 116.37792969 58.38776367 116.37792969 57.70776367 116.37792969 C57.70776367 117.03792969 57.70776367 117.69792969 57.70776367 118.37792969 C54.32759733 117.25120757 53.81789549 116.48555039 51.70776367 113.75292969 C44.10395465 104.83646311 34.0578327 100.38201601 22.64526367 98.69042969 C13.34490722 97.95230616 5.54119395 98.68267233 -3.25317383 102.15136719 C-6.42138793 102.50339098 -8.35141349 101.07463232 -11.10473633 99.56542969 C-19.11866904 95.20079104 -25.74803906 94.08480576 -34.72973633 94.25292969 C-35.65206055 94.26195313 -36.57438477 94.27097656 -37.5246582 94.28027344 C-39.78079441 94.30365309 -42.03637317 94.33642053 -44.29223633 94.37792969 C-44.08236084 93.71317627 -43.87248535 93.04842285 -43.65625 92.36352539 C-39.00299863 77.49986912 -37.1141413 64.05840266 -43.65161133 49.31152344 C-50.81142458 35.74847515 -60.85930184 28.2847168 -75.29223633 23.37792969 C-87.61494198 20.61594394 -101.13733911 22.45619413 -112.29223633 28.37792969 C-116.56953946 31.40568359 -120.58561448 34.67130784 -124.29223633 38.37792969 C-128.98978094 37.85247727 -133.33649017 35.00387155 -137.51489258 32.94824219 C-146.70600142 28.90125906 -155.56634906 27.85062054 -165.54223633 27.94042969 C-166.73228271 27.94872803 -167.9223291 27.95702637 -169.1484375 27.96557617 C-189.81396476 28.36187817 -206.52025979 36.16530979 -221.43286133 50.42480469 C-227.62282505 56.90720764 -231.88563177 64.63577029 -236.29223633 72.37792969 C-238.24129883 72.14009766 -238.24129883 72.14009766 -240.22973633 71.89746094 C-260.79485753 69.63610093 -281.63041678 71.78135441 -298.53442383 84.79589844 C-300.44157081 86.35381461 -302.32754042 87.93832823 -304.18286133 89.55761719 C-306.29223633 91.37792969 -306.29223633 91.37792969 -308.29223633 92.37792969 C-309.30926626 79.64622166 -306.59491188 71.23424665 -298.41723633 61.44042969 C-290.93371603 53.57277431 -281.19308527 48.77390556 -270.27270508 48.28808594 C-264.56419403 48.19810941 -258.95762129 48.71558823 -253.29223633 49.37792969 C-252.80754883 48.35054688 -252.32286133 47.32316406 -251.82348633 46.26464844 C-241.13303794 23.99422872 -225.82795992 7.1563053 -202.29223633 -1.62207031 C-180.75740822 -8.57632959 -157.69604457 -7.44719957 -137.29223633 2.37792969 C-134.23727498 3.95791751 -131.25686525 5.63536154 -128.29223633 7.37792969 C-126.9387333 8.14992771 -125.58461933 8.92085614 -124.22973633 9.69042969 C-123.26036133 10.24730469 -122.29098633 10.80417969 -121.29223633 11.37792969 C-120.75856445 10.74886719 -120.22489258 10.11980469 -119.67504883 9.47167969 C-104.89005537 -7.51315709 -85.42548797 -18.55398544 -62.80786133 -20.46191406 C-39.49667911 -21.94601107 -17.77574315 -15.29510422 0 0 Z " fill="#FBFDFE" transform="translate(351.292236328125,25.6220703125)"/>
<path d="M0 0 C0.66 0.33 1.32 0.66 2 1 C-3.94 6.445 -3.94 6.445 -10 12 C-10.66 11.67 -11.32 11.34 -12 11 C-10.75323147 9.72599623 -9.5024352 8.45593346 -8.25 7.1875 C-7.55390625 6.47980469 -6.8578125 5.77210937 -6.140625 5.04296875 C-4.18571355 3.17724121 -2.19661447 1.56830358 0 0 Z " fill="#CCE8F7" transform="translate(128,35)"/>
<path d="M0 0 C0.66 0.33 1.32 0.66 2 1 C0.90653119 2.34212062 -0.2001575 3.67347975 -1.3125 5 C-2.23482422 6.11375 -2.23482422 6.11375 -3.17578125 7.25 C-5 9 -5 9 -8 9 C-5.36 6.03 -2.72 3.06 0 0 Z " fill="#B9E0F7" transform="translate(32,153)"/>
<path d="M0 0 C0.33 0.66 0.66 1.32 1 2 C-0.09346881 3.34212062 -1.2001575 4.67347975 -2.3125 6 C-3.23482422 7.11375 -3.23482422 7.11375 -4.17578125 8.25 C-6 10 -6 10 -9 10 C-7.55401676 7.10803353 -5.30346813 5.24862365 -3 3 C-2.401875 2.401875 -1.80375 1.80375 -1.1875 1.1875 C-0.795625 0.795625 -0.40375 0.40375 0 0 Z " fill="#CCE8F6" transform="translate(237,29)"/>
<path d="M0 0 C-1.49097658 3.7952131 -3.75700849 5.61042731 -7 8 C-7.66 7.67 -8.32 7.34 -9 7 C-7.88121617 5.82737096 -6.75476949 4.66204862 -5.625 3.5 C-4.68527344 2.52546875 -4.68527344 2.52546875 -3.7265625 1.53125 C-2 0 -2 0 0 0 Z " fill="#C6E4F6" transform="translate(461,108)"/>
<path d="M0 0 C-1.44077046 3.36179774 -3.24750021 5.59156268 -6 8 C-6.66 8 -7.32 8 -8 8 C-6.48291727 4.46014029 -4.24676932 0 0 0 Z " fill="#C8E5F6" transform="translate(59,83)"/>
<path d="M0 0 C0.66 0.33 1.32 0.66 2 1 C-0.31 3.31 -2.62 5.62 -5 8 C-5.99 7.67 -6.98 7.34 -8 7 C-5.36 4.69 -2.72 2.38 0 0 Z " fill="#C9E7F7" transform="translate(246,21)"/>
<path d="M0 0 C4 1 4 1 4 1 Z " fill="#86B2FF" transform="translate(702,5)"/>
<path d="M0 0 C3 1 3 1 3 1 Z " fill="#77C3FF" transform="translate(714,5)"/>
<path d="M0 0 C2 1 2 1 2 1 Z " fill="#809FFF" transform="translate(719,4)"/>
<path d="M0 0 C2 1 2 1 2 1 Z " fill="#BFBFFF" transform="translate(698,4)"/>
<path d="M0 0 C2 1 2 1 2 1 Z " fill="#77BBFF" transform="translate(725,2)"/>
<path d="M0 0 C2 1 2 1 2 1 Z " fill="#86BAFF" transform="translate(727,1)"/>
<path d="M0 0 C2 1 2 1 2 1 Z " fill="#7CC5F8" transform="translate(690,1)"/>
<path d="" fill="#00FFFF" transform="translate(0,0)"/>
<path d="" fill="#6DB6FF" transform="translate(0,0)"/>
<path d="" fill="#8BD1FF" transform="translate(0,0)"/>
<path d="" fill="#80BFFF" transform="translate(0,0)"/>
<path d="" fill="#91CCF7" transform="translate(0,0)"/>
</svg>
